<mxfile host="app.diagrams.net" modified="2023-09-17T17:10:40.395Z" agent="Mozilla/5.0 (Windows NT 10.0; Win64; x64) AppleWebKit/537.36 (KHTML, like Gecko) Chrome/117.0.0.0 Safari/537.36" etag="gXfdAtFJeI2f3JZuAmlR" version="21.7.5" type="github">
  <diagram name="Page-1" id="OqLqXZ3Ex6XcyKU5ZFf5">
    <mxGraphModel dx="5736" dy="3200" grid="1" gridSize="10" guides="1" tooltips="1" connect="1" arrows="0" fold="1" page="1" pageScale="1" pageWidth="5000" pageHeight="1000" math="0" shadow="0">
      <root>
        <mxCell id="0" />
        <mxCell id="1" parent="0" />
        <mxCell id="Cv09e2wkvftgPO6_TC34-1" value="Home" style="rounded=0;whiteSpace=wrap;html=1;" parent="1" vertex="1">
          <mxGeometry x="2440" y="224" width="120" height="60" as="geometry" />
        </mxCell>
        <mxCell id="0xJsNuAYVk1cQdWshQu--1" value="About me" style="rounded=0;whiteSpace=wrap;html=1;" parent="1" vertex="1">
          <mxGeometry x="1400" y="344" width="120" height="60" as="geometry" />
        </mxCell>
        <mxCell id="0xJsNuAYVk1cQdWshQu--2" value="Basic Vocabulary" style="rounded=0;whiteSpace=wrap;html=1;" parent="1" vertex="1">
          <mxGeometry x="1530" y="344" width="120" height="60" as="geometry" />
        </mxCell>
        <mxCell id="0xJsNuAYVk1cQdWshQu--3" value="Food and Drinks" style="rounded=0;whiteSpace=wrap;html=1;" parent="1" vertex="1">
          <mxGeometry x="1660" y="344" width="120" height="60" as="geometry" />
        </mxCell>
        <mxCell id="0xJsNuAYVk1cQdWshQu--5" value="Places and Locations" style="rounded=0;whiteSpace=wrap;html=1;" parent="1" vertex="1">
          <mxGeometry x="1790" y="344" width="120" height="60" as="geometry" />
        </mxCell>
        <mxCell id="0xJsNuAYVk1cQdWshQu--6" value="&lt;div&gt;Family and Relationships&lt;/div&gt;" style="rounded=0;whiteSpace=wrap;html=1;" parent="1" vertex="1">
          <mxGeometry x="1920" y="344" width="120" height="60" as="geometry" />
        </mxCell>
        <mxCell id="0xJsNuAYVk1cQdWshQu--7" value="&lt;div&gt;Travel and Transportation&lt;/div&gt;" style="rounded=0;whiteSpace=wrap;html=1;" parent="1" vertex="1">
          <mxGeometry x="2050" y="344" width="120" height="60" as="geometry" />
        </mxCell>
        <mxCell id="0xJsNuAYVk1cQdWshQu--8" value="&lt;div&gt;Clothing and Fashion&lt;/div&gt;" style="rounded=0;whiteSpace=wrap;html=1;" parent="1" vertex="1">
          <mxGeometry x="2180" y="344" width="120" height="60" as="geometry" />
        </mxCell>
        <mxCell id="0xJsNuAYVk1cQdWshQu--9" value="Weather and Seasons" style="rounded=0;whiteSpace=wrap;html=1;" parent="1" vertex="1">
          <mxGeometry x="2310" y="344" width="120" height="60" as="geometry" />
        </mxCell>
        <mxCell id="0xJsNuAYVk1cQdWshQu--10" value="Body Parts and Health" style="rounded=0;whiteSpace=wrap;html=1;" parent="1" vertex="1">
          <mxGeometry x="2440" y="344" width="120" height="60" as="geometry" />
        </mxCell>
        <mxCell id="0xJsNuAYVk1cQdWshQu--11" value="Animals and Nature" style="rounded=0;whiteSpace=wrap;html=1;" parent="1" vertex="1">
          <mxGeometry x="2570" y="344" width="120" height="60" as="geometry" />
        </mxCell>
        <mxCell id="0xJsNuAYVk1cQdWshQu--12" value="Hobbies and Leisure Activities" style="rounded=0;whiteSpace=wrap;html=1;" parent="1" vertex="1">
          <mxGeometry x="2700" y="344" width="120" height="60" as="geometry" />
        </mxCell>
        <mxCell id="0xJsNuAYVk1cQdWshQu--13" value="Work and Professions" style="rounded=0;whiteSpace=wrap;html=1;" parent="1" vertex="1">
          <mxGeometry x="2830" y="344" width="120" height="60" as="geometry" />
        </mxCell>
        <mxCell id="0xJsNuAYVk1cQdWshQu--14" value="&lt;div&gt;Education and School&lt;/div&gt;" style="rounded=0;whiteSpace=wrap;html=1;" parent="1" vertex="1">
          <mxGeometry x="2960" y="344" width="120" height="60" as="geometry" />
        </mxCell>
        <mxCell id="0xJsNuAYVk1cQdWshQu--15" value="Home and Household" style="rounded=0;whiteSpace=wrap;html=1;" parent="1" vertex="1">
          <mxGeometry x="3090" y="344" width="120" height="60" as="geometry" />
        </mxCell>
        <mxCell id="0xJsNuAYVk1cQdWshQu--16" value="Technology and Gadgets" style="rounded=0;whiteSpace=wrap;html=1;" parent="1" vertex="1">
          <mxGeometry x="3220" y="344" width="120" height="60" as="geometry" />
        </mxCell>
        <mxCell id="0xJsNuAYVk1cQdWshQu--17" value="Emotions and Feelings" style="rounded=0;whiteSpace=wrap;html=1;" parent="1" vertex="1">
          <mxGeometry x="3350" y="344" width="120" height="60" as="geometry" />
        </mxCell>
        <mxCell id="0xJsNuAYVk1cQdWshQu--18" value="Time and Date" style="rounded=0;whiteSpace=wrap;html=1;" parent="1" vertex="1">
          <mxGeometry x="3480" y="344" width="120" height="60" as="geometry" />
        </mxCell>
        <mxCell id="0xJsNuAYVk1cQdWshQu--21" value="" style="endArrow=none;html=1;rounded=0;exitX=0.5;exitY=0;exitDx=0;exitDy=0;entryX=0.5;entryY=1;entryDx=0;entryDy=0;" parent="1" source="0xJsNuAYVk1cQdWshQu--1" target="Cv09e2wkvftgPO6_TC34-1" edge="1">
          <mxGeometry width="50" height="50" relative="1" as="geometry">
            <mxPoint x="1480" y="314" as="sourcePoint" />
            <mxPoint x="1530" y="264" as="targetPoint" />
          </mxGeometry>
        </mxCell>
        <mxCell id="0xJsNuAYVk1cQdWshQu--22" value="" style="endArrow=none;html=1;rounded=0;exitX=0.5;exitY=0;exitDx=0;exitDy=0;entryX=0.5;entryY=1;entryDx=0;entryDy=0;" parent="1" source="0xJsNuAYVk1cQdWshQu--2" target="Cv09e2wkvftgPO6_TC34-1" edge="1">
          <mxGeometry width="50" height="50" relative="1" as="geometry">
            <mxPoint x="1610" y="324" as="sourcePoint" />
            <mxPoint x="1660" y="274" as="targetPoint" />
          </mxGeometry>
        </mxCell>
        <mxCell id="0xJsNuAYVk1cQdWshQu--23" value="" style="endArrow=none;html=1;rounded=0;exitX=0.5;exitY=0;exitDx=0;exitDy=0;" parent="1" source="0xJsNuAYVk1cQdWshQu--3" edge="1">
          <mxGeometry width="50" height="50" relative="1" as="geometry">
            <mxPoint x="1750" y="284" as="sourcePoint" />
            <mxPoint x="2500" y="284" as="targetPoint" />
          </mxGeometry>
        </mxCell>
        <mxCell id="0xJsNuAYVk1cQdWshQu--24" value="" style="endArrow=none;html=1;rounded=0;exitX=0.5;exitY=0;exitDx=0;exitDy=0;entryX=0.5;entryY=1;entryDx=0;entryDy=0;" parent="1" source="0xJsNuAYVk1cQdWshQu--5" target="Cv09e2wkvftgPO6_TC34-1" edge="1">
          <mxGeometry width="50" height="50" relative="1" as="geometry">
            <mxPoint x="1950" y="264" as="sourcePoint" />
            <mxPoint x="2000" y="214" as="targetPoint" />
          </mxGeometry>
        </mxCell>
        <mxCell id="0xJsNuAYVk1cQdWshQu--25" value="" style="endArrow=none;html=1;rounded=0;exitX=0.5;exitY=0;exitDx=0;exitDy=0;entryX=0.5;entryY=1;entryDx=0;entryDy=0;" parent="1" source="0xJsNuAYVk1cQdWshQu--6" target="Cv09e2wkvftgPO6_TC34-1" edge="1">
          <mxGeometry width="50" height="50" relative="1" as="geometry">
            <mxPoint x="2010" y="274" as="sourcePoint" />
            <mxPoint x="2060" y="224" as="targetPoint" />
          </mxGeometry>
        </mxCell>
        <mxCell id="0xJsNuAYVk1cQdWshQu--26" value="" style="endArrow=none;html=1;rounded=0;exitX=0.5;exitY=0;exitDx=0;exitDy=0;entryX=0.5;entryY=1;entryDx=0;entryDy=0;" parent="1" source="0xJsNuAYVk1cQdWshQu--7" target="Cv09e2wkvftgPO6_TC34-1" edge="1">
          <mxGeometry width="50" height="50" relative="1" as="geometry">
            <mxPoint x="2230" y="284" as="sourcePoint" />
            <mxPoint x="2280" y="234" as="targetPoint" />
          </mxGeometry>
        </mxCell>
        <mxCell id="0xJsNuAYVk1cQdWshQu--27" value="" style="endArrow=none;html=1;rounded=0;exitX=0.5;exitY=0;exitDx=0;exitDy=0;" parent="1" source="0xJsNuAYVk1cQdWshQu--8" edge="1">
          <mxGeometry width="50" height="50" relative="1" as="geometry">
            <mxPoint x="2350" y="304" as="sourcePoint" />
            <mxPoint x="2500" y="284" as="targetPoint" />
          </mxGeometry>
        </mxCell>
        <mxCell id="0xJsNuAYVk1cQdWshQu--28" value="" style="endArrow=none;html=1;rounded=0;exitX=0.5;exitY=0;exitDx=0;exitDy=0;entryX=0.5;entryY=1;entryDx=0;entryDy=0;" parent="1" source="0xJsNuAYVk1cQdWshQu--9" target="Cv09e2wkvftgPO6_TC34-1" edge="1">
          <mxGeometry width="50" height="50" relative="1" as="geometry">
            <mxPoint x="2620" y="314" as="sourcePoint" />
            <mxPoint x="2670" y="264" as="targetPoint" />
          </mxGeometry>
        </mxCell>
        <mxCell id="0xJsNuAYVk1cQdWshQu--29" value="" style="endArrow=none;html=1;rounded=0;exitX=0.5;exitY=0;exitDx=0;exitDy=0;entryX=0.5;entryY=1;entryDx=0;entryDy=0;" parent="1" source="0xJsNuAYVk1cQdWshQu--10" target="Cv09e2wkvftgPO6_TC34-1" edge="1">
          <mxGeometry width="50" height="50" relative="1" as="geometry">
            <mxPoint x="2670" y="304" as="sourcePoint" />
            <mxPoint x="2720" y="254" as="targetPoint" />
          </mxGeometry>
        </mxCell>
        <mxCell id="0xJsNuAYVk1cQdWshQu--30" value="" style="endArrow=none;html=1;rounded=0;exitX=0.5;exitY=1;exitDx=0;exitDy=0;entryX=0.5;entryY=0;entryDx=0;entryDy=0;" parent="1" source="Cv09e2wkvftgPO6_TC34-1" target="0xJsNuAYVk1cQdWshQu--11" edge="1">
          <mxGeometry width="50" height="50" relative="1" as="geometry">
            <mxPoint x="2720" y="304" as="sourcePoint" />
            <mxPoint x="2770" y="254" as="targetPoint" />
          </mxGeometry>
        </mxCell>
        <mxCell id="0xJsNuAYVk1cQdWshQu--31" value="" style="endArrow=none;html=1;rounded=0;exitX=0.5;exitY=1;exitDx=0;exitDy=0;entryX=0.5;entryY=0;entryDx=0;entryDy=0;" parent="1" source="Cv09e2wkvftgPO6_TC34-1" target="0xJsNuAYVk1cQdWshQu--12" edge="1">
          <mxGeometry width="50" height="50" relative="1" as="geometry">
            <mxPoint x="2865" y="294" as="sourcePoint" />
            <mxPoint x="2915" y="244" as="targetPoint" />
          </mxGeometry>
        </mxCell>
        <mxCell id="0xJsNuAYVk1cQdWshQu--32" value="" style="endArrow=none;html=1;rounded=0;exitX=0.5;exitY=1;exitDx=0;exitDy=0;entryX=0.5;entryY=0;entryDx=0;entryDy=0;" parent="1" source="Cv09e2wkvftgPO6_TC34-1" target="0xJsNuAYVk1cQdWshQu--13" edge="1">
          <mxGeometry width="50" height="50" relative="1" as="geometry">
            <mxPoint x="2820" y="294" as="sourcePoint" />
            <mxPoint x="2870" y="244" as="targetPoint" />
          </mxGeometry>
        </mxCell>
        <mxCell id="0xJsNuAYVk1cQdWshQu--33" value="" style="endArrow=none;html=1;rounded=0;exitX=0.5;exitY=1;exitDx=0;exitDy=0;entryX=0.5;entryY=0;entryDx=0;entryDy=0;" parent="1" source="Cv09e2wkvftgPO6_TC34-1" target="0xJsNuAYVk1cQdWshQu--14" edge="1">
          <mxGeometry width="50" height="50" relative="1" as="geometry">
            <mxPoint x="2910" y="294" as="sourcePoint" />
            <mxPoint x="2960" y="244" as="targetPoint" />
          </mxGeometry>
        </mxCell>
        <mxCell id="0xJsNuAYVk1cQdWshQu--34" value="" style="endArrow=none;html=1;rounded=0;exitX=0.5;exitY=1;exitDx=0;exitDy=0;entryX=0.5;entryY=0;entryDx=0;entryDy=0;" parent="1" source="Cv09e2wkvftgPO6_TC34-1" target="0xJsNuAYVk1cQdWshQu--15" edge="1">
          <mxGeometry width="50" height="50" relative="1" as="geometry">
            <mxPoint x="2930" y="274" as="sourcePoint" />
            <mxPoint x="2980" y="224" as="targetPoint" />
          </mxGeometry>
        </mxCell>
        <mxCell id="0xJsNuAYVk1cQdWshQu--35" value="" style="endArrow=none;html=1;rounded=0;exitX=0.5;exitY=1;exitDx=0;exitDy=0;entryX=0.5;entryY=0;entryDx=0;entryDy=0;" parent="1" source="Cv09e2wkvftgPO6_TC34-1" target="0xJsNuAYVk1cQdWshQu--16" edge="1">
          <mxGeometry width="50" height="50" relative="1" as="geometry">
            <mxPoint x="2780" y="274" as="sourcePoint" />
            <mxPoint x="2830" y="224" as="targetPoint" />
          </mxGeometry>
        </mxCell>
        <mxCell id="0xJsNuAYVk1cQdWshQu--36" value="" style="endArrow=none;html=1;rounded=0;exitX=0.5;exitY=1;exitDx=0;exitDy=0;entryX=0.5;entryY=0;entryDx=0;entryDy=0;" parent="1" source="Cv09e2wkvftgPO6_TC34-1" target="0xJsNuAYVk1cQdWshQu--17" edge="1">
          <mxGeometry width="50" height="50" relative="1" as="geometry">
            <mxPoint x="3010" y="154" as="sourcePoint" />
            <mxPoint x="3060" y="104" as="targetPoint" />
          </mxGeometry>
        </mxCell>
        <mxCell id="0xJsNuAYVk1cQdWshQu--37" value="" style="endArrow=none;html=1;rounded=0;exitX=0.5;exitY=1;exitDx=0;exitDy=0;entryX=0.5;entryY=0;entryDx=0;entryDy=0;" parent="1" source="Cv09e2wkvftgPO6_TC34-1" target="0xJsNuAYVk1cQdWshQu--18" edge="1">
          <mxGeometry width="50" height="50" relative="1" as="geometry">
            <mxPoint x="2930" y="234" as="sourcePoint" />
            <mxPoint x="2980" y="184" as="targetPoint" />
          </mxGeometry>
        </mxCell>
        <mxCell id="0xJsNuAYVk1cQdWshQu--38" value="Greetings" style="rounded=1;whiteSpace=wrap;html=1;" parent="1" vertex="1">
          <mxGeometry x="480" y="534" width="80" height="40" as="geometry" />
        </mxCell>
        <mxCell id="0xJsNuAYVk1cQdWshQu--40" value="Numbers" style="rounded=1;whiteSpace=wrap;html=1;" parent="1" vertex="1">
          <mxGeometry x="570" y="534" width="80" height="40" as="geometry" />
        </mxCell>
        <mxCell id="0xJsNuAYVk1cQdWshQu--41" value="&lt;div&gt;Days of the Week&lt;/div&gt;" style="rounded=1;whiteSpace=wrap;html=1;" parent="1" vertex="1">
          <mxGeometry x="660" y="535" width="80" height="40" as="geometry" />
        </mxCell>
        <mxCell id="0xJsNuAYVk1cQdWshQu--42" value="&lt;div&gt;Months of the Year&lt;/div&gt;" style="rounded=1;whiteSpace=wrap;html=1;" parent="1" vertex="1">
          <mxGeometry x="750" y="534" width="80" height="40" as="geometry" />
        </mxCell>
        <mxCell id="0xJsNuAYVk1cQdWshQu--43" value="&lt;div&gt;Common Phrases&lt;/div&gt;" style="rounded=1;whiteSpace=wrap;html=1;" parent="1" vertex="1">
          <mxGeometry x="840" y="535" width="80" height="40" as="geometry" />
        </mxCell>
        <mxCell id="-nZZ4A2zbSsPAfugriXv-1" value="&lt;div&gt;Fruits and Vegetables&lt;/div&gt;" style="rounded=1;whiteSpace=wrap;html=1;" parent="1" vertex="1">
          <mxGeometry x="930" y="535" width="80" height="40" as="geometry" />
        </mxCell>
        <mxCell id="-nZZ4A2zbSsPAfugriXv-2" value="&lt;div&gt;Meats and Seafood&lt;/div&gt;" style="rounded=1;whiteSpace=wrap;html=1;" parent="1" vertex="1">
          <mxGeometry x="1020" y="535" width="80" height="40" as="geometry" />
        </mxCell>
        <mxCell id="-nZZ4A2zbSsPAfugriXv-3" value="&lt;div&gt;Beverages&lt;/div&gt;" style="rounded=1;whiteSpace=wrap;html=1;" parent="1" vertex="1">
          <mxGeometry x="1110" y="535" width="80" height="40" as="geometry" />
        </mxCell>
        <mxCell id="-nZZ4A2zbSsPAfugriXv-4" value="&lt;div&gt;Restaurant Phrases&lt;/div&gt;" style="rounded=1;whiteSpace=wrap;html=1;" parent="1" vertex="1">
          <mxGeometry x="1200" y="534" width="80" height="40" as="geometry" />
        </mxCell>
        <mxCell id="-nZZ4A2zbSsPAfugriXv-6" value="" style="endArrow=none;html=1;rounded=0;fontFamily=Helvetica;fontSize=12;fontColor=default;exitX=0.5;exitY=0;exitDx=0;exitDy=0;entryX=0.5;entryY=1;entryDx=0;entryDy=0;fillColor=#dae8fc;strokeColor=#6c8ebf;" parent="1" source="0xJsNuAYVk1cQdWshQu--38" target="0xJsNuAYVk1cQdWshQu--2" edge="1">
          <mxGeometry width="50" height="50" relative="1" as="geometry">
            <mxPoint x="770" y="644" as="sourcePoint" />
            <mxPoint x="820" y="594" as="targetPoint" />
          </mxGeometry>
        </mxCell>
        <mxCell id="-nZZ4A2zbSsPAfugriXv-7" value="" style="endArrow=none;html=1;rounded=0;fontFamily=Helvetica;fontSize=12;fontColor=default;exitX=0.5;exitY=0;exitDx=0;exitDy=0;entryX=0.5;entryY=1;entryDx=0;entryDy=0;fillColor=#dae8fc;strokeColor=#6c8ebf;" parent="1" source="0xJsNuAYVk1cQdWshQu--40" target="0xJsNuAYVk1cQdWshQu--2" edge="1">
          <mxGeometry width="50" height="50" relative="1" as="geometry">
            <mxPoint x="770" y="644" as="sourcePoint" />
            <mxPoint x="820" y="594" as="targetPoint" />
          </mxGeometry>
        </mxCell>
        <mxCell id="-nZZ4A2zbSsPAfugriXv-8" value="" style="endArrow=none;html=1;rounded=0;fontFamily=Helvetica;fontSize=12;fontColor=default;exitX=0.5;exitY=0;exitDx=0;exitDy=0;entryX=0.5;entryY=1;entryDx=0;entryDy=0;fillColor=#dae8fc;strokeColor=#6c8ebf;" parent="1" source="0xJsNuAYVk1cQdWshQu--41" target="0xJsNuAYVk1cQdWshQu--2" edge="1">
          <mxGeometry width="50" height="50" relative="1" as="geometry">
            <mxPoint x="770" y="644" as="sourcePoint" />
            <mxPoint x="820" y="594" as="targetPoint" />
          </mxGeometry>
        </mxCell>
        <mxCell id="-nZZ4A2zbSsPAfugriXv-9" value="" style="endArrow=none;html=1;rounded=0;fontFamily=Helvetica;fontSize=12;fontColor=default;exitX=0.5;exitY=0;exitDx=0;exitDy=0;entryX=0.5;entryY=1;entryDx=0;entryDy=0;fillColor=#dae8fc;strokeColor=#6c8ebf;" parent="1" source="0xJsNuAYVk1cQdWshQu--42" target="0xJsNuAYVk1cQdWshQu--2" edge="1">
          <mxGeometry width="50" height="50" relative="1" as="geometry">
            <mxPoint x="800" y="644" as="sourcePoint" />
            <mxPoint x="850" y="594" as="targetPoint" />
          </mxGeometry>
        </mxCell>
        <mxCell id="-nZZ4A2zbSsPAfugriXv-10" value="" style="endArrow=none;html=1;rounded=0;fontFamily=Helvetica;fontSize=12;fontColor=default;exitX=0.5;exitY=0;exitDx=0;exitDy=0;entryX=0.5;entryY=1;entryDx=0;entryDy=0;fillColor=#dae8fc;strokeColor=#6c8ebf;" parent="1" source="0xJsNuAYVk1cQdWshQu--43" target="0xJsNuAYVk1cQdWshQu--2" edge="1">
          <mxGeometry width="50" height="50" relative="1" as="geometry">
            <mxPoint x="800" y="644" as="sourcePoint" />
            <mxPoint x="850" y="594" as="targetPoint" />
          </mxGeometry>
        </mxCell>
        <mxCell id="-nZZ4A2zbSsPAfugriXv-11" value="" style="endArrow=none;html=1;rounded=0;fontFamily=Helvetica;fontSize=12;fontColor=default;exitX=0.5;exitY=0;exitDx=0;exitDy=0;entryX=0.5;entryY=1;entryDx=0;entryDy=0;fillColor=#d5e8d4;strokeColor=#82b366;" parent="1" source="-nZZ4A2zbSsPAfugriXv-1" target="0xJsNuAYVk1cQdWshQu--3" edge="1">
          <mxGeometry width="50" height="50" relative="1" as="geometry">
            <mxPoint x="1290" y="644" as="sourcePoint" />
            <mxPoint x="1340" y="594" as="targetPoint" />
          </mxGeometry>
        </mxCell>
        <mxCell id="-nZZ4A2zbSsPAfugriXv-12" value="" style="endArrow=none;html=1;rounded=0;fontFamily=Helvetica;fontSize=12;fontColor=default;exitX=0.5;exitY=0;exitDx=0;exitDy=0;entryX=0.5;entryY=1;entryDx=0;entryDy=0;fillColor=#d5e8d4;strokeColor=#82b366;" parent="1" source="-nZZ4A2zbSsPAfugriXv-2" target="0xJsNuAYVk1cQdWshQu--3" edge="1">
          <mxGeometry width="50" height="50" relative="1" as="geometry">
            <mxPoint x="1290" y="644" as="sourcePoint" />
            <mxPoint x="1340" y="594" as="targetPoint" />
          </mxGeometry>
        </mxCell>
        <mxCell id="-nZZ4A2zbSsPAfugriXv-13" value="" style="endArrow=none;html=1;rounded=0;fontFamily=Helvetica;fontSize=12;fontColor=default;exitX=0.5;exitY=0;exitDx=0;exitDy=0;entryX=0.5;entryY=1;entryDx=0;entryDy=0;fillColor=#d5e8d4;strokeColor=#82b366;" parent="1" source="-nZZ4A2zbSsPAfugriXv-3" target="0xJsNuAYVk1cQdWshQu--3" edge="1">
          <mxGeometry width="50" height="50" relative="1" as="geometry">
            <mxPoint x="1290" y="644" as="sourcePoint" />
            <mxPoint x="1340" y="594" as="targetPoint" />
          </mxGeometry>
        </mxCell>
        <mxCell id="-nZZ4A2zbSsPAfugriXv-14" value="" style="endArrow=none;html=1;rounded=0;fontFamily=Helvetica;fontSize=12;fontColor=default;exitX=0.5;exitY=0;exitDx=0;exitDy=0;entryX=0.5;entryY=1;entryDx=0;entryDy=0;fillColor=#d5e8d4;strokeColor=#82b366;" parent="1" source="-nZZ4A2zbSsPAfugriXv-4" target="0xJsNuAYVk1cQdWshQu--3" edge="1">
          <mxGeometry width="50" height="50" relative="1" as="geometry">
            <mxPoint x="1290" y="644" as="sourcePoint" />
            <mxPoint x="1340" y="594" as="targetPoint" />
          </mxGeometry>
        </mxCell>
        <mxCell id="y5r_hRR_hxgqkKdXUc_k-1" value="&lt;div&gt;Places&lt;/div&gt;" style="rounded=1;whiteSpace=wrap;html=1;" parent="1" vertex="1">
          <mxGeometry x="1290" y="535" width="80" height="40" as="geometry" />
        </mxCell>
        <mxCell id="y5r_hRR_hxgqkKdXUc_k-2" value="&lt;div&gt;Directions&lt;/div&gt;" style="rounded=1;whiteSpace=wrap;html=1;" parent="1" vertex="1">
          <mxGeometry x="1380" y="535" width="80" height="40" as="geometry" />
        </mxCell>
        <mxCell id="y5r_hRR_hxgqkKdXUc_k-3" value="" style="endArrow=none;html=1;rounded=0;exitX=0.5;exitY=0;exitDx=0;exitDy=0;entryX=0.5;entryY=1;entryDx=0;entryDy=0;fillColor=#ffe6cc;strokeColor=#d79b00;" parent="1" source="y5r_hRR_hxgqkKdXUc_k-1" target="0xJsNuAYVk1cQdWshQu--5" edge="1">
          <mxGeometry width="50" height="50" relative="1" as="geometry">
            <mxPoint x="1120" y="644" as="sourcePoint" />
            <mxPoint x="1170" y="594" as="targetPoint" />
          </mxGeometry>
        </mxCell>
        <mxCell id="y5r_hRR_hxgqkKdXUc_k-4" value="" style="endArrow=none;html=1;rounded=0;exitX=0.5;exitY=0;exitDx=0;exitDy=0;entryX=0.5;entryY=1;entryDx=0;entryDy=0;fillColor=#ffe6cc;strokeColor=#d79b00;" parent="1" source="y5r_hRR_hxgqkKdXUc_k-2" target="0xJsNuAYVk1cQdWshQu--5" edge="1">
          <mxGeometry width="50" height="50" relative="1" as="geometry">
            <mxPoint x="1120" y="644" as="sourcePoint" />
            <mxPoint x="1170" y="594" as="targetPoint" />
          </mxGeometry>
        </mxCell>
        <mxCell id="y5r_hRR_hxgqkKdXUc_k-5" value="&lt;div&gt;Family Members&lt;/div&gt;" style="rounded=1;whiteSpace=wrap;html=1;" parent="1" vertex="1">
          <mxGeometry x="1470" y="535" width="80" height="40" as="geometry" />
        </mxCell>
        <mxCell id="y5r_hRR_hxgqkKdXUc_k-6" value="&lt;div&gt;Relationships&lt;/div&gt;" style="rounded=1;whiteSpace=wrap;html=1;" parent="1" vertex="1">
          <mxGeometry x="1560" y="535" width="80" height="40" as="geometry" />
        </mxCell>
        <mxCell id="y5r_hRR_hxgqkKdXUc_k-7" value="&lt;div&gt;Terms of Endearment&lt;/div&gt;" style="rounded=1;whiteSpace=wrap;html=1;" parent="1" vertex="1">
          <mxGeometry x="1650" y="535" width="80" height="40" as="geometry" />
        </mxCell>
        <mxCell id="y5r_hRR_hxgqkKdXUc_k-8" value="" style="endArrow=none;html=1;rounded=0;exitX=0.5;exitY=0;exitDx=0;exitDy=0;entryX=0.5;entryY=1;entryDx=0;entryDy=0;fillColor=#f8cecc;strokeColor=#b85450;" parent="1" source="y5r_hRR_hxgqkKdXUc_k-5" target="0xJsNuAYVk1cQdWshQu--6" edge="1">
          <mxGeometry width="50" height="50" relative="1" as="geometry">
            <mxPoint x="1630" y="644" as="sourcePoint" />
            <mxPoint x="1680" y="594" as="targetPoint" />
          </mxGeometry>
        </mxCell>
        <mxCell id="y5r_hRR_hxgqkKdXUc_k-9" value="" style="endArrow=none;html=1;rounded=0;exitX=0.5;exitY=0;exitDx=0;exitDy=0;entryX=0.5;entryY=1;entryDx=0;entryDy=0;fillColor=#f8cecc;strokeColor=#b85450;" parent="1" source="y5r_hRR_hxgqkKdXUc_k-6" target="0xJsNuAYVk1cQdWshQu--6" edge="1">
          <mxGeometry width="50" height="50" relative="1" as="geometry">
            <mxPoint x="1630" y="644" as="sourcePoint" />
            <mxPoint x="1680" y="594" as="targetPoint" />
          </mxGeometry>
        </mxCell>
        <mxCell id="y5r_hRR_hxgqkKdXUc_k-10" value="" style="endArrow=none;html=1;rounded=0;exitX=0.5;exitY=0;exitDx=0;exitDy=0;entryX=0.5;entryY=1;entryDx=0;entryDy=0;fillColor=#f8cecc;strokeColor=#b85450;" parent="1" source="y5r_hRR_hxgqkKdXUc_k-7" target="0xJsNuAYVk1cQdWshQu--6" edge="1">
          <mxGeometry width="50" height="50" relative="1" as="geometry">
            <mxPoint x="1630" y="644" as="sourcePoint" />
            <mxPoint x="1680" y="594" as="targetPoint" />
          </mxGeometry>
        </mxCell>
        <mxCell id="y5r_hRR_hxgqkKdXUc_k-11" value="&lt;div&gt;Modes of Transportation&lt;/div&gt;" style="rounded=1;whiteSpace=wrap;html=1;" parent="1" vertex="1">
          <mxGeometry x="1740" y="535" width="80" height="40" as="geometry" />
        </mxCell>
        <mxCell id="y5r_hRR_hxgqkKdXUc_k-12" value="&lt;div&gt;Travel Phrases&lt;/div&gt;" style="rounded=1;whiteSpace=wrap;html=1;" parent="1" vertex="1">
          <mxGeometry x="1830" y="535" width="80" height="40" as="geometry" />
        </mxCell>
        <mxCell id="y5r_hRR_hxgqkKdXUc_k-13" value="&lt;div&gt;Airport and Travel Vocabulary&lt;/div&gt;" style="rounded=1;whiteSpace=wrap;html=1;" parent="1" vertex="1">
          <mxGeometry x="1920" y="534" width="80" height="40" as="geometry" />
        </mxCell>
        <mxCell id="y5r_hRR_hxgqkKdXUc_k-14" value="" style="endArrow=none;html=1;rounded=0;exitX=0.5;exitY=0;exitDx=0;exitDy=0;entryX=0.5;entryY=1;entryDx=0;entryDy=0;fillColor=#e1d5e7;strokeColor=#9673a6;" parent="1" source="y5r_hRR_hxgqkKdXUc_k-11" target="0xJsNuAYVk1cQdWshQu--7" edge="1">
          <mxGeometry width="50" height="50" relative="1" as="geometry">
            <mxPoint x="1960" y="644" as="sourcePoint" />
            <mxPoint x="2010" y="594" as="targetPoint" />
          </mxGeometry>
        </mxCell>
        <mxCell id="y5r_hRR_hxgqkKdXUc_k-15" value="" style="endArrow=none;html=1;rounded=0;exitX=0.5;exitY=0;exitDx=0;exitDy=0;entryX=0.5;entryY=1;entryDx=0;entryDy=0;fillColor=#e1d5e7;strokeColor=#9673a6;" parent="1" source="y5r_hRR_hxgqkKdXUc_k-12" target="0xJsNuAYVk1cQdWshQu--7" edge="1">
          <mxGeometry width="50" height="50" relative="1" as="geometry">
            <mxPoint x="1960" y="644" as="sourcePoint" />
            <mxPoint x="2010" y="594" as="targetPoint" />
          </mxGeometry>
        </mxCell>
        <mxCell id="y5r_hRR_hxgqkKdXUc_k-16" value="" style="endArrow=none;html=1;rounded=0;exitX=0.5;exitY=0;exitDx=0;exitDy=0;entryX=0.5;entryY=1;entryDx=0;entryDy=0;fillColor=#e1d5e7;strokeColor=#9673a6;" parent="1" source="y5r_hRR_hxgqkKdXUc_k-13" target="0xJsNuAYVk1cQdWshQu--7" edge="1">
          <mxGeometry width="50" height="50" relative="1" as="geometry">
            <mxPoint x="1960" y="644" as="sourcePoint" />
            <mxPoint x="2010" y="594" as="targetPoint" />
          </mxGeometry>
        </mxCell>
        <mxCell id="y5r_hRR_hxgqkKdXUc_k-17" value="&lt;div&gt;Clothing Items&lt;/div&gt;" style="rounded=1;whiteSpace=wrap;html=1;" parent="1" vertex="1">
          <mxGeometry x="2010" y="535" width="80" height="40" as="geometry" />
        </mxCell>
        <mxCell id="y5r_hRR_hxgqkKdXUc_k-18" value="&lt;div&gt;Accessories&lt;/div&gt;" style="rounded=1;whiteSpace=wrap;html=1;" parent="1" vertex="1">
          <mxGeometry x="2100" y="534" width="80" height="40" as="geometry" />
        </mxCell>
        <mxCell id="y5r_hRR_hxgqkKdXUc_k-19" value="&lt;div&gt;Shopping Phrases&lt;/div&gt;" style="rounded=1;whiteSpace=wrap;html=1;" parent="1" vertex="1">
          <mxGeometry x="2190" y="534" width="80" height="40" as="geometry" />
        </mxCell>
        <mxCell id="y5r_hRR_hxgqkKdXUc_k-20" value="" style="endArrow=none;html=1;rounded=0;exitX=0.5;exitY=0;exitDx=0;exitDy=0;entryX=0.5;entryY=1;entryDx=0;entryDy=0;fillColor=#a20025;strokeColor=#6F0000;" parent="1" source="y5r_hRR_hxgqkKdXUc_k-17" target="0xJsNuAYVk1cQdWshQu--8" edge="1">
          <mxGeometry width="50" height="50" relative="1" as="geometry">
            <mxPoint x="1960" y="644" as="sourcePoint" />
            <mxPoint x="2010" y="594" as="targetPoint" />
          </mxGeometry>
        </mxCell>
        <mxCell id="y5r_hRR_hxgqkKdXUc_k-21" value="" style="endArrow=none;html=1;rounded=0;exitX=0.5;exitY=0;exitDx=0;exitDy=0;fillColor=#a20025;strokeColor=#6F0000;" parent="1" source="y5r_hRR_hxgqkKdXUc_k-18" edge="1">
          <mxGeometry width="50" height="50" relative="1" as="geometry">
            <mxPoint x="1960" y="644" as="sourcePoint" />
            <mxPoint x="2240" y="404" as="targetPoint" />
          </mxGeometry>
        </mxCell>
        <mxCell id="y5r_hRR_hxgqkKdXUc_k-22" value="" style="endArrow=none;html=1;rounded=0;exitX=0.5;exitY=0;exitDx=0;exitDy=0;entryX=0.5;entryY=1;entryDx=0;entryDy=0;fillColor=#a20025;strokeColor=#6F0000;" parent="1" source="y5r_hRR_hxgqkKdXUc_k-19" target="0xJsNuAYVk1cQdWshQu--8" edge="1">
          <mxGeometry width="50" height="50" relative="1" as="geometry">
            <mxPoint x="1960" y="644" as="sourcePoint" />
            <mxPoint x="2010" y="594" as="targetPoint" />
          </mxGeometry>
        </mxCell>
        <mxCell id="y5r_hRR_hxgqkKdXUc_k-23" value="&lt;div&gt;Weather Conditions&lt;/div&gt;" style="rounded=1;whiteSpace=wrap;html=1;" parent="1" vertex="1">
          <mxGeometry x="2280" y="535" width="80" height="40" as="geometry" />
        </mxCell>
        <mxCell id="y5r_hRR_hxgqkKdXUc_k-24" value="&lt;div&gt;Seasons&lt;/div&gt;" style="rounded=1;whiteSpace=wrap;html=1;" parent="1" vertex="1">
          <mxGeometry x="2370" y="534" width="80" height="40" as="geometry" />
        </mxCell>
        <mxCell id="y5r_hRR_hxgqkKdXUc_k-25" value="&lt;div&gt;Climate Terms&lt;/div&gt;" style="rounded=1;whiteSpace=wrap;html=1;" parent="1" vertex="1">
          <mxGeometry x="2460" y="534" width="80" height="40" as="geometry" />
        </mxCell>
        <mxCell id="y5r_hRR_hxgqkKdXUc_k-26" value="" style="endArrow=none;html=1;rounded=0;exitX=0.5;exitY=0;exitDx=0;exitDy=0;entryX=0.5;entryY=1;entryDx=0;entryDy=0;fillColor=#6a00ff;strokeColor=#3700CC;" parent="1" source="y5r_hRR_hxgqkKdXUc_k-23" target="0xJsNuAYVk1cQdWshQu--9" edge="1">
          <mxGeometry width="50" height="50" relative="1" as="geometry">
            <mxPoint x="1960" y="644" as="sourcePoint" />
            <mxPoint x="2010" y="594" as="targetPoint" />
          </mxGeometry>
        </mxCell>
        <mxCell id="y5r_hRR_hxgqkKdXUc_k-27" value="" style="endArrow=none;html=1;rounded=0;exitX=0.5;exitY=0;exitDx=0;exitDy=0;entryX=0.5;entryY=1;entryDx=0;entryDy=0;fillColor=#6a00ff;strokeColor=#3700CC;" parent="1" source="y5r_hRR_hxgqkKdXUc_k-24" target="0xJsNuAYVk1cQdWshQu--9" edge="1">
          <mxGeometry width="50" height="50" relative="1" as="geometry">
            <mxPoint x="1960" y="644" as="sourcePoint" />
            <mxPoint x="2010" y="594" as="targetPoint" />
          </mxGeometry>
        </mxCell>
        <mxCell id="y5r_hRR_hxgqkKdXUc_k-28" value="" style="endArrow=none;html=1;rounded=0;exitX=0.5;exitY=0;exitDx=0;exitDy=0;entryX=0.5;entryY=1;entryDx=0;entryDy=0;fillColor=#6a00ff;strokeColor=#3700CC;" parent="1" source="y5r_hRR_hxgqkKdXUc_k-25" target="0xJsNuAYVk1cQdWshQu--9" edge="1">
          <mxGeometry width="50" height="50" relative="1" as="geometry">
            <mxPoint x="1960" y="644" as="sourcePoint" />
            <mxPoint x="2010" y="594" as="targetPoint" />
          </mxGeometry>
        </mxCell>
        <mxCell id="y5r_hRR_hxgqkKdXUc_k-29" value="&lt;div&gt;Human Body Parts&lt;/div&gt;" style="rounded=1;whiteSpace=wrap;html=1;" parent="1" vertex="1">
          <mxGeometry x="2550" y="534" width="80" height="40" as="geometry" />
        </mxCell>
        <mxCell id="y5r_hRR_hxgqkKdXUc_k-30" value="" style="endArrow=none;html=1;rounded=0;exitX=0.5;exitY=0;exitDx=0;exitDy=0;entryX=0.5;entryY=1;entryDx=0;entryDy=0;fillColor=#60a917;strokeColor=#2D7600;" parent="1" source="y5r_hRR_hxgqkKdXUc_k-29" target="0xJsNuAYVk1cQdWshQu--10" edge="1">
          <mxGeometry width="50" height="50" relative="1" as="geometry">
            <mxPoint x="2390" y="644" as="sourcePoint" />
            <mxPoint x="2440" y="594" as="targetPoint" />
          </mxGeometry>
        </mxCell>
        <mxCell id="y5r_hRR_hxgqkKdXUc_k-31" value="&lt;div&gt;Common Animals&lt;/div&gt;" style="rounded=1;whiteSpace=wrap;html=1;" parent="1" vertex="1">
          <mxGeometry x="2640" y="535" width="80" height="40" as="geometry" />
        </mxCell>
        <mxCell id="y5r_hRR_hxgqkKdXUc_k-32" value="&lt;div&gt;Birds&lt;/div&gt;" style="rounded=1;whiteSpace=wrap;html=1;" parent="1" vertex="1">
          <mxGeometry x="2730" y="535" width="80" height="40" as="geometry" />
        </mxCell>
        <mxCell id="y5r_hRR_hxgqkKdXUc_k-33" value="&lt;div&gt;Insects&lt;/div&gt;" style="rounded=1;whiteSpace=wrap;html=1;" parent="1" vertex="1">
          <mxGeometry x="2820" y="534" width="80" height="40" as="geometry" />
        </mxCell>
        <mxCell id="y5r_hRR_hxgqkKdXUc_k-34" value="&lt;div&gt;Plants and Trees&lt;/div&gt;" style="rounded=1;whiteSpace=wrap;html=1;" parent="1" vertex="1">
          <mxGeometry x="2910" y="534" width="80" height="40" as="geometry" />
        </mxCell>
        <mxCell id="y5r_hRR_hxgqkKdXUc_k-35" value="" style="endArrow=none;html=1;rounded=0;exitX=0.5;exitY=0;exitDx=0;exitDy=0;entryX=0.5;entryY=1;entryDx=0;entryDy=0;fillColor=#1ba1e2;strokeColor=#006EAF;" parent="1" source="y5r_hRR_hxgqkKdXUc_k-31" target="0xJsNuAYVk1cQdWshQu--11" edge="1">
          <mxGeometry width="50" height="50" relative="1" as="geometry">
            <mxPoint x="2480" y="644" as="sourcePoint" />
            <mxPoint x="2530" y="594" as="targetPoint" />
          </mxGeometry>
        </mxCell>
        <mxCell id="y5r_hRR_hxgqkKdXUc_k-36" value="" style="endArrow=none;html=1;rounded=0;exitX=0.5;exitY=0;exitDx=0;exitDy=0;entryX=0.5;entryY=1;entryDx=0;entryDy=0;fillColor=#1ba1e2;strokeColor=#006EAF;" parent="1" source="y5r_hRR_hxgqkKdXUc_k-32" target="0xJsNuAYVk1cQdWshQu--11" edge="1">
          <mxGeometry width="50" height="50" relative="1" as="geometry">
            <mxPoint x="2480" y="644" as="sourcePoint" />
            <mxPoint x="2530" y="594" as="targetPoint" />
          </mxGeometry>
        </mxCell>
        <mxCell id="y5r_hRR_hxgqkKdXUc_k-37" value="" style="endArrow=none;html=1;rounded=0;exitX=0.5;exitY=0;exitDx=0;exitDy=0;entryX=0.5;entryY=1;entryDx=0;entryDy=0;fillColor=#1ba1e2;strokeColor=#006EAF;" parent="1" source="y5r_hRR_hxgqkKdXUc_k-33" target="0xJsNuAYVk1cQdWshQu--11" edge="1">
          <mxGeometry width="50" height="50" relative="1" as="geometry">
            <mxPoint x="2480" y="644" as="sourcePoint" />
            <mxPoint x="2530" y="594" as="targetPoint" />
          </mxGeometry>
        </mxCell>
        <mxCell id="y5r_hRR_hxgqkKdXUc_k-38" value="" style="endArrow=none;html=1;rounded=0;exitX=0.5;exitY=0;exitDx=0;exitDy=0;entryX=0.5;entryY=1;entryDx=0;entryDy=0;fillColor=#1ba1e2;strokeColor=#006EAF;" parent="1" source="y5r_hRR_hxgqkKdXUc_k-34" target="0xJsNuAYVk1cQdWshQu--11" edge="1">
          <mxGeometry width="50" height="50" relative="1" as="geometry">
            <mxPoint x="2480" y="644" as="sourcePoint" />
            <mxPoint x="2530" y="594" as="targetPoint" />
          </mxGeometry>
        </mxCell>
        <mxCell id="y5r_hRR_hxgqkKdXUc_k-39" value="&lt;div&gt;Sports&lt;/div&gt;" style="rounded=1;whiteSpace=wrap;html=1;" parent="1" vertex="1">
          <mxGeometry x="3000" y="534" width="80" height="40" as="geometry" />
        </mxCell>
        <mxCell id="y5r_hRR_hxgqkKdXUc_k-40" value="&lt;div&gt;Hobbies&lt;/div&gt;" style="rounded=1;whiteSpace=wrap;html=1;" parent="1" vertex="1">
          <mxGeometry x="3090" y="534" width="80" height="40" as="geometry" />
        </mxCell>
        <mxCell id="y5r_hRR_hxgqkKdXUc_k-41" value="&lt;div&gt;Entertainment&lt;/div&gt;" style="rounded=1;whiteSpace=wrap;html=1;" parent="1" vertex="1">
          <mxGeometry x="3180" y="534" width="80" height="40" as="geometry" />
        </mxCell>
        <mxCell id="y5r_hRR_hxgqkKdXUc_k-42" value="" style="endArrow=none;html=1;rounded=0;exitX=0.5;exitY=0;exitDx=0;exitDy=0;entryX=0.5;entryY=1;entryDx=0;entryDy=0;fillColor=#e51400;strokeColor=#B20000;" parent="1" source="y5r_hRR_hxgqkKdXUc_k-39" target="0xJsNuAYVk1cQdWshQu--12" edge="1">
          <mxGeometry width="50" height="50" relative="1" as="geometry">
            <mxPoint x="3000" y="624" as="sourcePoint" />
            <mxPoint x="2770" y="414" as="targetPoint" />
          </mxGeometry>
        </mxCell>
        <mxCell id="y5r_hRR_hxgqkKdXUc_k-43" value="" style="endArrow=none;html=1;rounded=0;exitX=0.5;exitY=0;exitDx=0;exitDy=0;entryX=0.5;entryY=1;entryDx=0;entryDy=0;fillColor=#e51400;strokeColor=#B20000;" parent="1" source="y5r_hRR_hxgqkKdXUc_k-40" target="0xJsNuAYVk1cQdWshQu--12" edge="1">
          <mxGeometry width="50" height="50" relative="1" as="geometry">
            <mxPoint x="3000" y="624" as="sourcePoint" />
            <mxPoint x="3050" y="574" as="targetPoint" />
          </mxGeometry>
        </mxCell>
        <mxCell id="y5r_hRR_hxgqkKdXUc_k-44" value="" style="endArrow=none;html=1;rounded=0;exitX=0.5;exitY=0;exitDx=0;exitDy=0;entryX=0.5;entryY=1;entryDx=0;entryDy=0;fillColor=#e51400;strokeColor=#B20000;" parent="1" source="y5r_hRR_hxgqkKdXUc_k-41" target="0xJsNuAYVk1cQdWshQu--12" edge="1">
          <mxGeometry width="50" height="50" relative="1" as="geometry">
            <mxPoint x="3000" y="624" as="sourcePoint" />
            <mxPoint x="3050" y="574" as="targetPoint" />
          </mxGeometry>
        </mxCell>
        <mxCell id="y5r_hRR_hxgqkKdXUc_k-45" value="&lt;div&gt;Jobs and Occupations&lt;/div&gt;" style="rounded=1;whiteSpace=wrap;html=1;" parent="1" vertex="1">
          <mxGeometry x="3270" y="534" width="80" height="40" as="geometry" />
        </mxCell>
        <mxCell id="y5r_hRR_hxgqkKdXUc_k-46" value="&lt;div&gt;Work-related Vocabulary&lt;/div&gt;" style="rounded=1;whiteSpace=wrap;html=1;" parent="1" vertex="1">
          <mxGeometry x="3360" y="535" width="80" height="40" as="geometry" />
        </mxCell>
        <mxCell id="y5r_hRR_hxgqkKdXUc_k-47" value="" style="endArrow=none;html=1;rounded=0;exitX=0.5;exitY=0;exitDx=0;exitDy=0;entryX=0.5;entryY=1;entryDx=0;entryDy=0;fillColor=#fa6800;strokeColor=#C73500;" parent="1" source="y5r_hRR_hxgqkKdXUc_k-45" target="0xJsNuAYVk1cQdWshQu--13" edge="1">
          <mxGeometry width="50" height="50" relative="1" as="geometry">
            <mxPoint x="2610" y="624" as="sourcePoint" />
            <mxPoint x="2660" y="574" as="targetPoint" />
          </mxGeometry>
        </mxCell>
        <mxCell id="y5r_hRR_hxgqkKdXUc_k-48" value="" style="endArrow=none;html=1;rounded=0;exitX=0.5;exitY=0;exitDx=0;exitDy=0;entryX=0.5;entryY=1;entryDx=0;entryDy=0;fillColor=#fa6800;strokeColor=#C73500;" parent="1" source="y5r_hRR_hxgqkKdXUc_k-46" target="0xJsNuAYVk1cQdWshQu--13" edge="1">
          <mxGeometry width="50" height="50" relative="1" as="geometry">
            <mxPoint x="2610" y="624" as="sourcePoint" />
            <mxPoint x="2660" y="574" as="targetPoint" />
          </mxGeometry>
        </mxCell>
        <mxCell id="y5r_hRR_hxgqkKdXUc_k-49" value="&lt;div&gt;School Subjects&lt;/div&gt;" style="rounded=1;whiteSpace=wrap;html=1;" parent="1" vertex="1">
          <mxGeometry x="3450" y="534" width="80" height="40" as="geometry" />
        </mxCell>
        <mxCell id="y5r_hRR_hxgqkKdXUc_k-50" value="&lt;div&gt;Classroom Items&lt;/div&gt;" style="rounded=1;whiteSpace=wrap;html=1;" parent="1" vertex="1">
          <mxGeometry x="3540" y="534" width="80" height="40" as="geometry" />
        </mxCell>
        <mxCell id="y5r_hRR_hxgqkKdXUc_k-51" value="&lt;div&gt;Academic Terms&lt;/div&gt;" style="rounded=1;whiteSpace=wrap;html=1;" parent="1" vertex="1">
          <mxGeometry x="3630" y="534" width="80" height="40" as="geometry" />
        </mxCell>
        <mxCell id="y5r_hRR_hxgqkKdXUc_k-52" value="" style="endArrow=none;html=1;rounded=0;exitX=0.5;exitY=0;exitDx=0;exitDy=0;entryX=0.5;entryY=1;entryDx=0;entryDy=0;fillColor=#f0a30a;strokeColor=#BD7000;" parent="1" source="y5r_hRR_hxgqkKdXUc_k-49" target="0xJsNuAYVk1cQdWshQu--14" edge="1">
          <mxGeometry width="50" height="50" relative="1" as="geometry">
            <mxPoint x="3240" y="624" as="sourcePoint" />
            <mxPoint x="3290" y="574" as="targetPoint" />
          </mxGeometry>
        </mxCell>
        <mxCell id="y5r_hRR_hxgqkKdXUc_k-53" value="" style="endArrow=none;html=1;rounded=0;exitX=0.5;exitY=0;exitDx=0;exitDy=0;entryX=0.5;entryY=1;entryDx=0;entryDy=0;fillColor=#f0a30a;strokeColor=#BD7000;" parent="1" source="y5r_hRR_hxgqkKdXUc_k-50" target="0xJsNuAYVk1cQdWshQu--14" edge="1">
          <mxGeometry width="50" height="50" relative="1" as="geometry">
            <mxPoint x="3240" y="624" as="sourcePoint" />
            <mxPoint x="3290" y="574" as="targetPoint" />
          </mxGeometry>
        </mxCell>
        <mxCell id="y5r_hRR_hxgqkKdXUc_k-54" value="" style="endArrow=none;html=1;rounded=0;exitX=0.5;exitY=0;exitDx=0;exitDy=0;entryX=0.5;entryY=1;entryDx=0;entryDy=0;fillColor=#f0a30a;strokeColor=#BD7000;" parent="1" source="y5r_hRR_hxgqkKdXUc_k-51" target="0xJsNuAYVk1cQdWshQu--14" edge="1">
          <mxGeometry width="50" height="50" relative="1" as="geometry">
            <mxPoint x="3240" y="624" as="sourcePoint" />
            <mxPoint x="3290" y="574" as="targetPoint" />
          </mxGeometry>
        </mxCell>
        <mxCell id="y5r_hRR_hxgqkKdXUc_k-55" value="&lt;div&gt;Rooms in the House&lt;/div&gt;" style="rounded=1;whiteSpace=wrap;html=1;" parent="1" vertex="1">
          <mxGeometry x="3720" y="534" width="80" height="40" as="geometry" />
        </mxCell>
        <mxCell id="y5r_hRR_hxgqkKdXUc_k-56" value="&lt;div&gt;Furniture&lt;/div&gt;" style="rounded=1;whiteSpace=wrap;html=1;" parent="1" vertex="1">
          <mxGeometry x="3810" y="534" width="80" height="40" as="geometry" />
        </mxCell>
        <mxCell id="y5r_hRR_hxgqkKdXUc_k-57" value="&lt;div&gt;Household Items&lt;/div&gt;" style="rounded=1;whiteSpace=wrap;html=1;" parent="1" vertex="1">
          <mxGeometry x="3900" y="535" width="80" height="40" as="geometry" />
        </mxCell>
        <mxCell id="y5r_hRR_hxgqkKdXUc_k-58" value="" style="endArrow=none;html=1;rounded=0;exitX=0.5;exitY=0;exitDx=0;exitDy=0;entryX=0.5;entryY=1;entryDx=0;entryDy=0;fillColor=#e3c800;strokeColor=#B09500;" parent="1" source="y5r_hRR_hxgqkKdXUc_k-55" target="0xJsNuAYVk1cQdWshQu--15" edge="1">
          <mxGeometry width="50" height="50" relative="1" as="geometry">
            <mxPoint x="3040" y="624" as="sourcePoint" />
            <mxPoint x="3090" y="574" as="targetPoint" />
          </mxGeometry>
        </mxCell>
        <mxCell id="y5r_hRR_hxgqkKdXUc_k-59" value="" style="endArrow=none;html=1;rounded=0;exitX=0.5;exitY=0;exitDx=0;exitDy=0;entryX=0.5;entryY=1;entryDx=0;entryDy=0;fillColor=#e3c800;strokeColor=#B09500;" parent="1" source="y5r_hRR_hxgqkKdXUc_k-56" target="0xJsNuAYVk1cQdWshQu--15" edge="1">
          <mxGeometry width="50" height="50" relative="1" as="geometry">
            <mxPoint x="3040" y="624" as="sourcePoint" />
            <mxPoint x="3090" y="574" as="targetPoint" />
          </mxGeometry>
        </mxCell>
        <mxCell id="y5r_hRR_hxgqkKdXUc_k-60" value="" style="endArrow=none;html=1;rounded=0;exitX=0.5;exitY=0;exitDx=0;exitDy=0;entryX=0.5;entryY=1;entryDx=0;entryDy=0;fillColor=#e3c800;strokeColor=#B09500;" parent="1" source="y5r_hRR_hxgqkKdXUc_k-57" target="0xJsNuAYVk1cQdWshQu--15" edge="1">
          <mxGeometry width="50" height="50" relative="1" as="geometry">
            <mxPoint x="3040" y="624" as="sourcePoint" />
            <mxPoint x="3090" y="574" as="targetPoint" />
          </mxGeometry>
        </mxCell>
        <mxCell id="y5r_hRR_hxgqkKdXUc_k-61" value="&lt;div&gt;Electronics&lt;/div&gt;" style="rounded=1;whiteSpace=wrap;html=1;" parent="1" vertex="1">
          <mxGeometry x="3990" y="535" width="80" height="40" as="geometry" />
        </mxCell>
        <mxCell id="y5r_hRR_hxgqkKdXUc_k-62" value="&lt;div&gt;Computer Terms&lt;/div&gt;" style="rounded=1;whiteSpace=wrap;html=1;" parent="1" vertex="1">
          <mxGeometry x="4080" y="534" width="80" height="40" as="geometry" />
        </mxCell>
        <mxCell id="y5r_hRR_hxgqkKdXUc_k-63" value="" style="endArrow=none;html=1;rounded=0;entryX=0.5;entryY=1;entryDx=0;entryDy=0;exitX=0.5;exitY=0;exitDx=0;exitDy=0;fillColor=#6d8764;strokeColor=#3A5431;" parent="1" source="y5r_hRR_hxgqkKdXUc_k-61" target="0xJsNuAYVk1cQdWshQu--16" edge="1">
          <mxGeometry width="50" height="50" relative="1" as="geometry">
            <mxPoint x="3580" y="624" as="sourcePoint" />
            <mxPoint x="3630" y="574" as="targetPoint" />
          </mxGeometry>
        </mxCell>
        <mxCell id="y5r_hRR_hxgqkKdXUc_k-64" value="" style="endArrow=none;html=1;rounded=0;entryX=0.5;entryY=1;entryDx=0;entryDy=0;exitX=0.5;exitY=0;exitDx=0;exitDy=0;fillColor=#6d8764;strokeColor=#3A5431;" parent="1" source="y5r_hRR_hxgqkKdXUc_k-62" target="0xJsNuAYVk1cQdWshQu--16" edge="1">
          <mxGeometry width="50" height="50" relative="1" as="geometry">
            <mxPoint x="3580" y="624" as="sourcePoint" />
            <mxPoint x="3630" y="574" as="targetPoint" />
          </mxGeometry>
        </mxCell>
        <mxCell id="y5r_hRR_hxgqkKdXUc_k-66" value="&lt;div&gt;Common Emotions&lt;/div&gt;" style="rounded=1;whiteSpace=wrap;html=1;" parent="1" vertex="1">
          <mxGeometry x="4170" y="534" width="80" height="40" as="geometry" />
        </mxCell>
        <mxCell id="y5r_hRR_hxgqkKdXUc_k-67" value="&lt;div&gt;Expressing Feelings&lt;/div&gt;" style="rounded=1;whiteSpace=wrap;html=1;" parent="1" vertex="1">
          <mxGeometry x="4260" y="534" width="80" height="40" as="geometry" />
        </mxCell>
        <mxCell id="y5r_hRR_hxgqkKdXUc_k-68" value="" style="endArrow=none;html=1;rounded=0;entryX=0.5;entryY=1;entryDx=0;entryDy=0;exitX=0.5;exitY=0;exitDx=0;exitDy=0;fillColor=#76608a;strokeColor=#432D57;" parent="1" source="y5r_hRR_hxgqkKdXUc_k-66" target="0xJsNuAYVk1cQdWshQu--17" edge="1">
          <mxGeometry width="50" height="50" relative="1" as="geometry">
            <mxPoint x="3580" y="624" as="sourcePoint" />
            <mxPoint x="3630" y="574" as="targetPoint" />
          </mxGeometry>
        </mxCell>
        <mxCell id="y5r_hRR_hxgqkKdXUc_k-69" value="" style="endArrow=none;html=1;rounded=0;entryX=0.5;entryY=1;entryDx=0;entryDy=0;exitX=0.5;exitY=0;exitDx=0;exitDy=0;fillColor=#76608a;strokeColor=#432D57;" parent="1" source="y5r_hRR_hxgqkKdXUc_k-67" target="0xJsNuAYVk1cQdWshQu--17" edge="1">
          <mxGeometry width="50" height="50" relative="1" as="geometry">
            <mxPoint x="3580" y="624" as="sourcePoint" />
            <mxPoint x="3630" y="574" as="targetPoint" />
          </mxGeometry>
        </mxCell>
        <mxCell id="y5r_hRR_hxgqkKdXUc_k-71" value="&lt;div&gt;Clock Time&lt;/div&gt;" style="rounded=1;whiteSpace=wrap;html=1;" parent="1" vertex="1">
          <mxGeometry x="4350" y="534" width="80" height="39" as="geometry" />
        </mxCell>
        <mxCell id="y5r_hRR_hxgqkKdXUc_k-72" value="&lt;div&gt;Calendar Dates&lt;/div&gt;" style="rounded=1;whiteSpace=wrap;html=1;" parent="1" vertex="1">
          <mxGeometry x="4440" y="534" width="80" height="39" as="geometry" />
        </mxCell>
        <mxCell id="y5r_hRR_hxgqkKdXUc_k-73" value="" style="endArrow=none;html=1;rounded=0;entryX=0.5;entryY=1;entryDx=0;entryDy=0;exitX=0.5;exitY=0;exitDx=0;exitDy=0;fillColor=#a0522d;strokeColor=#6D1F00;" parent="1" source="y5r_hRR_hxgqkKdXUc_k-71" target="0xJsNuAYVk1cQdWshQu--18" edge="1">
          <mxGeometry width="50" height="50" relative="1" as="geometry">
            <mxPoint x="3580" y="624" as="sourcePoint" />
            <mxPoint x="3630" y="574" as="targetPoint" />
          </mxGeometry>
        </mxCell>
        <mxCell id="y5r_hRR_hxgqkKdXUc_k-74" value="" style="endArrow=none;html=1;rounded=0;entryX=0.5;entryY=1;entryDx=0;entryDy=0;exitX=0.5;exitY=0;exitDx=0;exitDy=0;fillColor=#a0522d;strokeColor=#6D1F00;" parent="1" source="y5r_hRR_hxgqkKdXUc_k-72" target="0xJsNuAYVk1cQdWshQu--18" edge="1">
          <mxGeometry width="50" height="50" relative="1" as="geometry">
            <mxPoint x="3680" y="624" as="sourcePoint" />
            <mxPoint x="3730" y="574" as="targetPoint" />
          </mxGeometry>
        </mxCell>
        <mxCell id="y5r_hRR_hxgqkKdXUc_k-76" value="Print" style="rounded=1;whiteSpace=wrap;html=1;" parent="1" vertex="1">
          <mxGeometry x="480" y="594" width="80" height="40" as="geometry" />
        </mxCell>
        <mxCell id="y5r_hRR_hxgqkKdXUc_k-77" value="" style="endArrow=none;html=1;rounded=0;exitX=0.5;exitY=0;exitDx=0;exitDy=0;entryX=0.5;entryY=1;entryDx=0;entryDy=0;" parent="1" source="y5r_hRR_hxgqkKdXUc_k-76" target="0xJsNuAYVk1cQdWshQu--38" edge="1">
          <mxGeometry width="50" height="50" relative="1" as="geometry">
            <mxPoint x="720" y="434" as="sourcePoint" />
            <mxPoint x="770" y="384" as="targetPoint" />
          </mxGeometry>
        </mxCell>
        <mxCell id="jmV42XF77DHSqQWprtIl-1" value="Options" style="swimlane;fontStyle=0;childLayout=stackLayout;horizontal=1;startSize=30;horizontalStack=0;resizeParent=1;resizeParentMax=0;resizeLast=0;collapsible=1;marginBottom=0;whiteSpace=wrap;html=1;" vertex="1" parent="1">
          <mxGeometry x="480" y="654" width="80" height="120" as="geometry">
            <mxRectangle x="480" y="450" width="80" height="30" as="alternateBounds" />
          </mxGeometry>
        </mxCell>
        <mxCell id="jmV42XF77DHSqQWprtIl-2" value="Definitions" style="text;strokeColor=none;fillColor=none;align=left;verticalAlign=middle;spacingLeft=4;spacingRight=4;overflow=hidden;points=[[0,0.5],[1,0.5]];portConstraint=eastwest;rotatable=0;whiteSpace=wrap;html=1;" vertex="1" parent="jmV42XF77DHSqQWprtIl-1">
          <mxGeometry y="30" width="80" height="30" as="geometry" />
        </mxCell>
        <mxCell id="jmV42XF77DHSqQWprtIl-3" value="Eng --&amp;gt; Esp" style="text;strokeColor=none;fillColor=none;align=left;verticalAlign=middle;spacingLeft=4;spacingRight=4;overflow=hidden;points=[[0,0.5],[1,0.5]];portConstraint=eastwest;rotatable=0;whiteSpace=wrap;html=1;" vertex="1" parent="jmV42XF77DHSqQWprtIl-1">
          <mxGeometry y="60" width="80" height="30" as="geometry" />
        </mxCell>
        <mxCell id="jmV42XF77DHSqQWprtIl-4" value="Esp --&amp;gt; Eng" style="text;strokeColor=none;fillColor=none;align=left;verticalAlign=middle;spacingLeft=4;spacingRight=4;overflow=hidden;points=[[0,0.5],[1,0.5]];portConstraint=eastwest;rotatable=0;whiteSpace=wrap;html=1;" vertex="1" parent="jmV42XF77DHSqQWprtIl-1">
          <mxGeometry y="90" width="80" height="30" as="geometry" />
        </mxCell>
        <mxCell id="jmV42XF77DHSqQWprtIl-5" value="" style="endArrow=none;html=1;rounded=0;exitX=0.5;exitY=0;exitDx=0;exitDy=0;entryX=0.5;entryY=1;entryDx=0;entryDy=0;" edge="1" parent="1" source="jmV42XF77DHSqQWprtIl-1" target="y5r_hRR_hxgqkKdXUc_k-76">
          <mxGeometry width="50" height="50" relative="1" as="geometry">
            <mxPoint x="1010" y="644" as="sourcePoint" />
            <mxPoint x="1060" y="594" as="targetPoint" />
          </mxGeometry>
        </mxCell>
        <mxCell id="jmV42XF77DHSqQWprtIl-6" value="Print" style="rounded=1;whiteSpace=wrap;html=1;" vertex="1" parent="1">
          <mxGeometry x="570" y="595" width="80" height="40" as="geometry" />
        </mxCell>
        <mxCell id="jmV42XF77DHSqQWprtIl-7" value="" style="endArrow=none;html=1;rounded=0;exitX=0.5;exitY=0;exitDx=0;exitDy=0;entryX=0.5;entryY=1;entryDx=0;entryDy=0;" edge="1" source="jmV42XF77DHSqQWprtIl-6" parent="1" target="0xJsNuAYVk1cQdWshQu--40">
          <mxGeometry width="50" height="50" relative="1" as="geometry">
            <mxPoint x="810" y="435" as="sourcePoint" />
            <mxPoint x="620" y="594" as="targetPoint" />
          </mxGeometry>
        </mxCell>
        <mxCell id="jmV42XF77DHSqQWprtIl-8" value="Options" style="swimlane;fontStyle=0;childLayout=stackLayout;horizontal=1;startSize=30;horizontalStack=0;resizeParent=1;resizeParentMax=0;resizeLast=0;collapsible=1;marginBottom=0;whiteSpace=wrap;html=1;" vertex="1" parent="1">
          <mxGeometry x="570" y="655" width="80" height="120" as="geometry">
            <mxRectangle x="480" y="450" width="80" height="30" as="alternateBounds" />
          </mxGeometry>
        </mxCell>
        <mxCell id="jmV42XF77DHSqQWprtIl-9" value="Definitions" style="text;strokeColor=none;fillColor=none;align=left;verticalAlign=middle;spacingLeft=4;spacingRight=4;overflow=hidden;points=[[0,0.5],[1,0.5]];portConstraint=eastwest;rotatable=0;whiteSpace=wrap;html=1;" vertex="1" parent="jmV42XF77DHSqQWprtIl-8">
          <mxGeometry y="30" width="80" height="30" as="geometry" />
        </mxCell>
        <mxCell id="jmV42XF77DHSqQWprtIl-10" value="Eng --&amp;gt; Esp" style="text;strokeColor=none;fillColor=none;align=left;verticalAlign=middle;spacingLeft=4;spacingRight=4;overflow=hidden;points=[[0,0.5],[1,0.5]];portConstraint=eastwest;rotatable=0;whiteSpace=wrap;html=1;" vertex="1" parent="jmV42XF77DHSqQWprtIl-8">
          <mxGeometry y="60" width="80" height="30" as="geometry" />
        </mxCell>
        <mxCell id="jmV42XF77DHSqQWprtIl-11" value="Esp --&amp;gt; Eng" style="text;strokeColor=none;fillColor=none;align=left;verticalAlign=middle;spacingLeft=4;spacingRight=4;overflow=hidden;points=[[0,0.5],[1,0.5]];portConstraint=eastwest;rotatable=0;whiteSpace=wrap;html=1;" vertex="1" parent="jmV42XF77DHSqQWprtIl-8">
          <mxGeometry y="90" width="80" height="30" as="geometry" />
        </mxCell>
        <mxCell id="jmV42XF77DHSqQWprtIl-12" value="" style="endArrow=none;html=1;rounded=0;exitX=0.5;exitY=0;exitDx=0;exitDy=0;entryX=0.5;entryY=1;entryDx=0;entryDy=0;" edge="1" source="jmV42XF77DHSqQWprtIl-8" target="jmV42XF77DHSqQWprtIl-6" parent="1">
          <mxGeometry width="50" height="50" relative="1" as="geometry">
            <mxPoint x="1100" y="645" as="sourcePoint" />
            <mxPoint x="1150" y="595" as="targetPoint" />
          </mxGeometry>
        </mxCell>
        <mxCell id="jmV42XF77DHSqQWprtIl-14" value="Print" style="rounded=1;whiteSpace=wrap;html=1;" vertex="1" parent="1">
          <mxGeometry x="660" y="595" width="80" height="40" as="geometry" />
        </mxCell>
        <mxCell id="jmV42XF77DHSqQWprtIl-15" value="" style="endArrow=none;html=1;rounded=0;exitX=0.5;exitY=0;exitDx=0;exitDy=0;" edge="1" parent="1" source="jmV42XF77DHSqQWprtIl-14">
          <mxGeometry width="50" height="50" relative="1" as="geometry">
            <mxPoint x="900" y="435" as="sourcePoint" />
            <mxPoint x="700" y="574" as="targetPoint" />
          </mxGeometry>
        </mxCell>
        <mxCell id="jmV42XF77DHSqQWprtIl-16" value="Options" style="swimlane;fontStyle=0;childLayout=stackLayout;horizontal=1;startSize=30;horizontalStack=0;resizeParent=1;resizeParentMax=0;resizeLast=0;collapsible=1;marginBottom=0;whiteSpace=wrap;html=1;" vertex="1" parent="1">
          <mxGeometry x="660" y="655" width="80" height="120" as="geometry">
            <mxRectangle x="480" y="450" width="80" height="30" as="alternateBounds" />
          </mxGeometry>
        </mxCell>
        <mxCell id="jmV42XF77DHSqQWprtIl-17" value="Definitions" style="text;strokeColor=none;fillColor=none;align=left;verticalAlign=middle;spacingLeft=4;spacingRight=4;overflow=hidden;points=[[0,0.5],[1,0.5]];portConstraint=eastwest;rotatable=0;whiteSpace=wrap;html=1;" vertex="1" parent="jmV42XF77DHSqQWprtIl-16">
          <mxGeometry y="30" width="80" height="30" as="geometry" />
        </mxCell>
        <mxCell id="jmV42XF77DHSqQWprtIl-18" value="Eng --&amp;gt; Esp" style="text;strokeColor=none;fillColor=none;align=left;verticalAlign=middle;spacingLeft=4;spacingRight=4;overflow=hidden;points=[[0,0.5],[1,0.5]];portConstraint=eastwest;rotatable=0;whiteSpace=wrap;html=1;" vertex="1" parent="jmV42XF77DHSqQWprtIl-16">
          <mxGeometry y="60" width="80" height="30" as="geometry" />
        </mxCell>
        <mxCell id="jmV42XF77DHSqQWprtIl-19" value="Esp --&amp;gt; Eng" style="text;strokeColor=none;fillColor=none;align=left;verticalAlign=middle;spacingLeft=4;spacingRight=4;overflow=hidden;points=[[0,0.5],[1,0.5]];portConstraint=eastwest;rotatable=0;whiteSpace=wrap;html=1;" vertex="1" parent="jmV42XF77DHSqQWprtIl-16">
          <mxGeometry y="90" width="80" height="30" as="geometry" />
        </mxCell>
        <mxCell id="jmV42XF77DHSqQWprtIl-20" value="" style="endArrow=none;html=1;rounded=0;exitX=0.5;exitY=0;exitDx=0;exitDy=0;entryX=0.5;entryY=1;entryDx=0;entryDy=0;" edge="1" parent="1" source="jmV42XF77DHSqQWprtIl-16" target="jmV42XF77DHSqQWprtIl-14">
          <mxGeometry width="50" height="50" relative="1" as="geometry">
            <mxPoint x="1190" y="645" as="sourcePoint" />
            <mxPoint x="1240" y="595" as="targetPoint" />
          </mxGeometry>
        </mxCell>
        <mxCell id="jmV42XF77DHSqQWprtIl-21" value="Print" style="rounded=1;whiteSpace=wrap;html=1;" vertex="1" parent="1">
          <mxGeometry x="750" y="595" width="80" height="40" as="geometry" />
        </mxCell>
        <mxCell id="jmV42XF77DHSqQWprtIl-22" value="" style="endArrow=none;html=1;rounded=0;exitX=0.5;exitY=0;exitDx=0;exitDy=0;entryX=0.5;entryY=1;entryDx=0;entryDy=0;" edge="1" parent="1" source="jmV42XF77DHSqQWprtIl-21" target="0xJsNuAYVk1cQdWshQu--42">
          <mxGeometry width="50" height="50" relative="1" as="geometry">
            <mxPoint x="990" y="435" as="sourcePoint" />
            <mxPoint x="790" y="574" as="targetPoint" />
          </mxGeometry>
        </mxCell>
        <mxCell id="jmV42XF77DHSqQWprtIl-23" value="Options" style="swimlane;fontStyle=0;childLayout=stackLayout;horizontal=1;startSize=30;horizontalStack=0;resizeParent=1;resizeParentMax=0;resizeLast=0;collapsible=1;marginBottom=0;whiteSpace=wrap;html=1;" vertex="1" parent="1">
          <mxGeometry x="750" y="655" width="80" height="120" as="geometry">
            <mxRectangle x="480" y="450" width="80" height="30" as="alternateBounds" />
          </mxGeometry>
        </mxCell>
        <mxCell id="jmV42XF77DHSqQWprtIl-24" value="Definitions" style="text;strokeColor=none;fillColor=none;align=left;verticalAlign=middle;spacingLeft=4;spacingRight=4;overflow=hidden;points=[[0,0.5],[1,0.5]];portConstraint=eastwest;rotatable=0;whiteSpace=wrap;html=1;" vertex="1" parent="jmV42XF77DHSqQWprtIl-23">
          <mxGeometry y="30" width="80" height="30" as="geometry" />
        </mxCell>
        <mxCell id="jmV42XF77DHSqQWprtIl-25" value="Eng --&amp;gt; Esp" style="text;strokeColor=none;fillColor=none;align=left;verticalAlign=middle;spacingLeft=4;spacingRight=4;overflow=hidden;points=[[0,0.5],[1,0.5]];portConstraint=eastwest;rotatable=0;whiteSpace=wrap;html=1;" vertex="1" parent="jmV42XF77DHSqQWprtIl-23">
          <mxGeometry y="60" width="80" height="30" as="geometry" />
        </mxCell>
        <mxCell id="jmV42XF77DHSqQWprtIl-26" value="Esp --&amp;gt; Eng" style="text;strokeColor=none;fillColor=none;align=left;verticalAlign=middle;spacingLeft=4;spacingRight=4;overflow=hidden;points=[[0,0.5],[1,0.5]];portConstraint=eastwest;rotatable=0;whiteSpace=wrap;html=1;" vertex="1" parent="jmV42XF77DHSqQWprtIl-23">
          <mxGeometry y="90" width="80" height="30" as="geometry" />
        </mxCell>
        <mxCell id="jmV42XF77DHSqQWprtIl-27" value="" style="endArrow=none;html=1;rounded=0;exitX=0.5;exitY=0;exitDx=0;exitDy=0;entryX=0.5;entryY=1;entryDx=0;entryDy=0;" edge="1" parent="1" source="jmV42XF77DHSqQWprtIl-23" target="jmV42XF77DHSqQWprtIl-21">
          <mxGeometry width="50" height="50" relative="1" as="geometry">
            <mxPoint x="1280" y="645" as="sourcePoint" />
            <mxPoint x="1330" y="595" as="targetPoint" />
          </mxGeometry>
        </mxCell>
        <mxCell id="jmV42XF77DHSqQWprtIl-28" value="Print" style="rounded=1;whiteSpace=wrap;html=1;" vertex="1" parent="1">
          <mxGeometry x="840" y="595" width="80" height="40" as="geometry" />
        </mxCell>
        <mxCell id="jmV42XF77DHSqQWprtIl-29" value="" style="endArrow=none;html=1;rounded=0;exitX=0.5;exitY=0;exitDx=0;exitDy=0;" edge="1" parent="1" source="jmV42XF77DHSqQWprtIl-28">
          <mxGeometry width="50" height="50" relative="1" as="geometry">
            <mxPoint x="1080" y="435" as="sourcePoint" />
            <mxPoint x="880" y="574" as="targetPoint" />
          </mxGeometry>
        </mxCell>
        <mxCell id="jmV42XF77DHSqQWprtIl-30" value="Options" style="swimlane;fontStyle=0;childLayout=stackLayout;horizontal=1;startSize=30;horizontalStack=0;resizeParent=1;resizeParentMax=0;resizeLast=0;collapsible=1;marginBottom=0;whiteSpace=wrap;html=1;" vertex="1" parent="1">
          <mxGeometry x="840" y="655" width="80" height="120" as="geometry">
            <mxRectangle x="480" y="450" width="80" height="30" as="alternateBounds" />
          </mxGeometry>
        </mxCell>
        <mxCell id="jmV42XF77DHSqQWprtIl-31" value="Definitions" style="text;strokeColor=none;fillColor=none;align=left;verticalAlign=middle;spacingLeft=4;spacingRight=4;overflow=hidden;points=[[0,0.5],[1,0.5]];portConstraint=eastwest;rotatable=0;whiteSpace=wrap;html=1;" vertex="1" parent="jmV42XF77DHSqQWprtIl-30">
          <mxGeometry y="30" width="80" height="30" as="geometry" />
        </mxCell>
        <mxCell id="jmV42XF77DHSqQWprtIl-32" value="Eng --&amp;gt; Esp" style="text;strokeColor=none;fillColor=none;align=left;verticalAlign=middle;spacingLeft=4;spacingRight=4;overflow=hidden;points=[[0,0.5],[1,0.5]];portConstraint=eastwest;rotatable=0;whiteSpace=wrap;html=1;" vertex="1" parent="jmV42XF77DHSqQWprtIl-30">
          <mxGeometry y="60" width="80" height="30" as="geometry" />
        </mxCell>
        <mxCell id="jmV42XF77DHSqQWprtIl-33" value="Esp --&amp;gt; Eng" style="text;strokeColor=none;fillColor=none;align=left;verticalAlign=middle;spacingLeft=4;spacingRight=4;overflow=hidden;points=[[0,0.5],[1,0.5]];portConstraint=eastwest;rotatable=0;whiteSpace=wrap;html=1;" vertex="1" parent="jmV42XF77DHSqQWprtIl-30">
          <mxGeometry y="90" width="80" height="30" as="geometry" />
        </mxCell>
        <mxCell id="jmV42XF77DHSqQWprtIl-34" value="" style="endArrow=none;html=1;rounded=0;exitX=0.5;exitY=0;exitDx=0;exitDy=0;entryX=0.5;entryY=1;entryDx=0;entryDy=0;" edge="1" parent="1" source="jmV42XF77DHSqQWprtIl-30" target="jmV42XF77DHSqQWprtIl-28">
          <mxGeometry width="50" height="50" relative="1" as="geometry">
            <mxPoint x="1370" y="645" as="sourcePoint" />
            <mxPoint x="1420" y="595" as="targetPoint" />
          </mxGeometry>
        </mxCell>
        <mxCell id="jmV42XF77DHSqQWprtIl-35" value="Print" style="rounded=1;whiteSpace=wrap;html=1;" vertex="1" parent="1">
          <mxGeometry x="930" y="596" width="80" height="40" as="geometry" />
        </mxCell>
        <mxCell id="jmV42XF77DHSqQWprtIl-36" value="" style="endArrow=none;html=1;rounded=0;exitX=0.5;exitY=0;exitDx=0;exitDy=0;" edge="1" parent="1" source="jmV42XF77DHSqQWprtIl-35">
          <mxGeometry width="50" height="50" relative="1" as="geometry">
            <mxPoint x="1170" y="436" as="sourcePoint" />
            <mxPoint x="970" y="574" as="targetPoint" />
          </mxGeometry>
        </mxCell>
        <mxCell id="jmV42XF77DHSqQWprtIl-37" value="Options" style="swimlane;fontStyle=0;childLayout=stackLayout;horizontal=1;startSize=30;horizontalStack=0;resizeParent=1;resizeParentMax=0;resizeLast=0;collapsible=1;marginBottom=0;whiteSpace=wrap;html=1;" vertex="1" parent="1">
          <mxGeometry x="930" y="656" width="80" height="120" as="geometry">
            <mxRectangle x="480" y="450" width="80" height="30" as="alternateBounds" />
          </mxGeometry>
        </mxCell>
        <mxCell id="jmV42XF77DHSqQWprtIl-38" value="Definitions" style="text;strokeColor=none;fillColor=none;align=left;verticalAlign=middle;spacingLeft=4;spacingRight=4;overflow=hidden;points=[[0,0.5],[1,0.5]];portConstraint=eastwest;rotatable=0;whiteSpace=wrap;html=1;" vertex="1" parent="jmV42XF77DHSqQWprtIl-37">
          <mxGeometry y="30" width="80" height="30" as="geometry" />
        </mxCell>
        <mxCell id="jmV42XF77DHSqQWprtIl-39" value="Eng --&amp;gt; Esp" style="text;strokeColor=none;fillColor=none;align=left;verticalAlign=middle;spacingLeft=4;spacingRight=4;overflow=hidden;points=[[0,0.5],[1,0.5]];portConstraint=eastwest;rotatable=0;whiteSpace=wrap;html=1;" vertex="1" parent="jmV42XF77DHSqQWprtIl-37">
          <mxGeometry y="60" width="80" height="30" as="geometry" />
        </mxCell>
        <mxCell id="jmV42XF77DHSqQWprtIl-40" value="Esp --&amp;gt; Eng" style="text;strokeColor=none;fillColor=none;align=left;verticalAlign=middle;spacingLeft=4;spacingRight=4;overflow=hidden;points=[[0,0.5],[1,0.5]];portConstraint=eastwest;rotatable=0;whiteSpace=wrap;html=1;" vertex="1" parent="jmV42XF77DHSqQWprtIl-37">
          <mxGeometry y="90" width="80" height="30" as="geometry" />
        </mxCell>
        <mxCell id="jmV42XF77DHSqQWprtIl-41" value="" style="endArrow=none;html=1;rounded=0;exitX=0.5;exitY=0;exitDx=0;exitDy=0;entryX=0.5;entryY=1;entryDx=0;entryDy=0;" edge="1" parent="1" source="jmV42XF77DHSqQWprtIl-37" target="jmV42XF77DHSqQWprtIl-35">
          <mxGeometry width="50" height="50" relative="1" as="geometry">
            <mxPoint x="1460" y="646" as="sourcePoint" />
            <mxPoint x="1510" y="596" as="targetPoint" />
          </mxGeometry>
        </mxCell>
        <mxCell id="jmV42XF77DHSqQWprtIl-42" value="Print" style="rounded=1;whiteSpace=wrap;html=1;" vertex="1" parent="1">
          <mxGeometry x="1020" y="595" width="80" height="40" as="geometry" />
        </mxCell>
        <mxCell id="jmV42XF77DHSqQWprtIl-43" value="" style="endArrow=none;html=1;rounded=0;exitX=0.5;exitY=0;exitDx=0;exitDy=0;entryX=0.5;entryY=1;entryDx=0;entryDy=0;" edge="1" parent="1" source="jmV42XF77DHSqQWprtIl-42">
          <mxGeometry width="50" height="50" relative="1" as="geometry">
            <mxPoint x="1260" y="435" as="sourcePoint" />
            <mxPoint x="1060" y="574" as="targetPoint" />
          </mxGeometry>
        </mxCell>
        <mxCell id="jmV42XF77DHSqQWprtIl-44" value="Options" style="swimlane;fontStyle=0;childLayout=stackLayout;horizontal=1;startSize=30;horizontalStack=0;resizeParent=1;resizeParentMax=0;resizeLast=0;collapsible=1;marginBottom=0;whiteSpace=wrap;html=1;" vertex="1" parent="1">
          <mxGeometry x="1020" y="655" width="80" height="120" as="geometry">
            <mxRectangle x="480" y="450" width="80" height="30" as="alternateBounds" />
          </mxGeometry>
        </mxCell>
        <mxCell id="jmV42XF77DHSqQWprtIl-45" value="Definitions" style="text;strokeColor=none;fillColor=none;align=left;verticalAlign=middle;spacingLeft=4;spacingRight=4;overflow=hidden;points=[[0,0.5],[1,0.5]];portConstraint=eastwest;rotatable=0;whiteSpace=wrap;html=1;" vertex="1" parent="jmV42XF77DHSqQWprtIl-44">
          <mxGeometry y="30" width="80" height="30" as="geometry" />
        </mxCell>
        <mxCell id="jmV42XF77DHSqQWprtIl-46" value="Eng --&amp;gt; Esp" style="text;strokeColor=none;fillColor=none;align=left;verticalAlign=middle;spacingLeft=4;spacingRight=4;overflow=hidden;points=[[0,0.5],[1,0.5]];portConstraint=eastwest;rotatable=0;whiteSpace=wrap;html=1;" vertex="1" parent="jmV42XF77DHSqQWprtIl-44">
          <mxGeometry y="60" width="80" height="30" as="geometry" />
        </mxCell>
        <mxCell id="jmV42XF77DHSqQWprtIl-47" value="Esp --&amp;gt; Eng" style="text;strokeColor=none;fillColor=none;align=left;verticalAlign=middle;spacingLeft=4;spacingRight=4;overflow=hidden;points=[[0,0.5],[1,0.5]];portConstraint=eastwest;rotatable=0;whiteSpace=wrap;html=1;" vertex="1" parent="jmV42XF77DHSqQWprtIl-44">
          <mxGeometry y="90" width="80" height="30" as="geometry" />
        </mxCell>
        <mxCell id="jmV42XF77DHSqQWprtIl-48" value="" style="endArrow=none;html=1;rounded=0;exitX=0.5;exitY=0;exitDx=0;exitDy=0;entryX=0.5;entryY=1;entryDx=0;entryDy=0;" edge="1" parent="1" source="jmV42XF77DHSqQWprtIl-44" target="jmV42XF77DHSqQWprtIl-42">
          <mxGeometry width="50" height="50" relative="1" as="geometry">
            <mxPoint x="1550" y="645" as="sourcePoint" />
            <mxPoint x="1600" y="595" as="targetPoint" />
          </mxGeometry>
        </mxCell>
        <mxCell id="jmV42XF77DHSqQWprtIl-49" value="Print" style="rounded=1;whiteSpace=wrap;html=1;" vertex="1" parent="1">
          <mxGeometry x="1110" y="595" width="80" height="40" as="geometry" />
        </mxCell>
        <mxCell id="jmV42XF77DHSqQWprtIl-50" value="" style="endArrow=none;html=1;rounded=0;exitX=0.5;exitY=0;exitDx=0;exitDy=0;entryX=0.5;entryY=1;entryDx=0;entryDy=0;" edge="1" parent="1" source="jmV42XF77DHSqQWprtIl-49">
          <mxGeometry width="50" height="50" relative="1" as="geometry">
            <mxPoint x="1350" y="435" as="sourcePoint" />
            <mxPoint x="1150" y="574" as="targetPoint" />
          </mxGeometry>
        </mxCell>
        <mxCell id="jmV42XF77DHSqQWprtIl-51" value="Options" style="swimlane;fontStyle=0;childLayout=stackLayout;horizontal=1;startSize=30;horizontalStack=0;resizeParent=1;resizeParentMax=0;resizeLast=0;collapsible=1;marginBottom=0;whiteSpace=wrap;html=1;" vertex="1" parent="1">
          <mxGeometry x="1110" y="655" width="80" height="120" as="geometry">
            <mxRectangle x="480" y="450" width="80" height="30" as="alternateBounds" />
          </mxGeometry>
        </mxCell>
        <mxCell id="jmV42XF77DHSqQWprtIl-52" value="Definitions" style="text;strokeColor=none;fillColor=none;align=left;verticalAlign=middle;spacingLeft=4;spacingRight=4;overflow=hidden;points=[[0,0.5],[1,0.5]];portConstraint=eastwest;rotatable=0;whiteSpace=wrap;html=1;" vertex="1" parent="jmV42XF77DHSqQWprtIl-51">
          <mxGeometry y="30" width="80" height="30" as="geometry" />
        </mxCell>
        <mxCell id="jmV42XF77DHSqQWprtIl-53" value="Eng --&amp;gt; Esp" style="text;strokeColor=none;fillColor=none;align=left;verticalAlign=middle;spacingLeft=4;spacingRight=4;overflow=hidden;points=[[0,0.5],[1,0.5]];portConstraint=eastwest;rotatable=0;whiteSpace=wrap;html=1;" vertex="1" parent="jmV42XF77DHSqQWprtIl-51">
          <mxGeometry y="60" width="80" height="30" as="geometry" />
        </mxCell>
        <mxCell id="jmV42XF77DHSqQWprtIl-54" value="Esp --&amp;gt; Eng" style="text;strokeColor=none;fillColor=none;align=left;verticalAlign=middle;spacingLeft=4;spacingRight=4;overflow=hidden;points=[[0,0.5],[1,0.5]];portConstraint=eastwest;rotatable=0;whiteSpace=wrap;html=1;" vertex="1" parent="jmV42XF77DHSqQWprtIl-51">
          <mxGeometry y="90" width="80" height="30" as="geometry" />
        </mxCell>
        <mxCell id="jmV42XF77DHSqQWprtIl-55" value="" style="endArrow=none;html=1;rounded=0;exitX=0.5;exitY=0;exitDx=0;exitDy=0;entryX=0.5;entryY=1;entryDx=0;entryDy=0;" edge="1" parent="1" source="jmV42XF77DHSqQWprtIl-51" target="jmV42XF77DHSqQWprtIl-49">
          <mxGeometry width="50" height="50" relative="1" as="geometry">
            <mxPoint x="1640" y="645" as="sourcePoint" />
            <mxPoint x="1690" y="595" as="targetPoint" />
          </mxGeometry>
        </mxCell>
        <mxCell id="jmV42XF77DHSqQWprtIl-56" value="Print" style="rounded=1;whiteSpace=wrap;html=1;" vertex="1" parent="1">
          <mxGeometry x="1200" y="595" width="80" height="40" as="geometry" />
        </mxCell>
        <mxCell id="jmV42XF77DHSqQWprtIl-57" value="" style="endArrow=none;html=1;rounded=0;exitX=0.5;exitY=0;exitDx=0;exitDy=0;entryX=0.5;entryY=1;entryDx=0;entryDy=0;" edge="1" parent="1" source="jmV42XF77DHSqQWprtIl-56">
          <mxGeometry width="50" height="50" relative="1" as="geometry">
            <mxPoint x="1440" y="435" as="sourcePoint" />
            <mxPoint x="1240" y="574" as="targetPoint" />
          </mxGeometry>
        </mxCell>
        <mxCell id="jmV42XF77DHSqQWprtIl-58" value="Options" style="swimlane;fontStyle=0;childLayout=stackLayout;horizontal=1;startSize=30;horizontalStack=0;resizeParent=1;resizeParentMax=0;resizeLast=0;collapsible=1;marginBottom=0;whiteSpace=wrap;html=1;" vertex="1" parent="1">
          <mxGeometry x="1200" y="655" width="80" height="120" as="geometry">
            <mxRectangle x="480" y="450" width="80" height="30" as="alternateBounds" />
          </mxGeometry>
        </mxCell>
        <mxCell id="jmV42XF77DHSqQWprtIl-59" value="Definitions" style="text;strokeColor=none;fillColor=none;align=left;verticalAlign=middle;spacingLeft=4;spacingRight=4;overflow=hidden;points=[[0,0.5],[1,0.5]];portConstraint=eastwest;rotatable=0;whiteSpace=wrap;html=1;" vertex="1" parent="jmV42XF77DHSqQWprtIl-58">
          <mxGeometry y="30" width="80" height="30" as="geometry" />
        </mxCell>
        <mxCell id="jmV42XF77DHSqQWprtIl-60" value="Eng --&amp;gt; Esp" style="text;strokeColor=none;fillColor=none;align=left;verticalAlign=middle;spacingLeft=4;spacingRight=4;overflow=hidden;points=[[0,0.5],[1,0.5]];portConstraint=eastwest;rotatable=0;whiteSpace=wrap;html=1;" vertex="1" parent="jmV42XF77DHSqQWprtIl-58">
          <mxGeometry y="60" width="80" height="30" as="geometry" />
        </mxCell>
        <mxCell id="jmV42XF77DHSqQWprtIl-61" value="Esp --&amp;gt; Eng" style="text;strokeColor=none;fillColor=none;align=left;verticalAlign=middle;spacingLeft=4;spacingRight=4;overflow=hidden;points=[[0,0.5],[1,0.5]];portConstraint=eastwest;rotatable=0;whiteSpace=wrap;html=1;" vertex="1" parent="jmV42XF77DHSqQWprtIl-58">
          <mxGeometry y="90" width="80" height="30" as="geometry" />
        </mxCell>
        <mxCell id="jmV42XF77DHSqQWprtIl-62" value="" style="endArrow=none;html=1;rounded=0;exitX=0.5;exitY=0;exitDx=0;exitDy=0;entryX=0.5;entryY=1;entryDx=0;entryDy=0;" edge="1" parent="1" source="jmV42XF77DHSqQWprtIl-58" target="jmV42XF77DHSqQWprtIl-56">
          <mxGeometry width="50" height="50" relative="1" as="geometry">
            <mxPoint x="1730" y="645" as="sourcePoint" />
            <mxPoint x="1780" y="595" as="targetPoint" />
          </mxGeometry>
        </mxCell>
        <mxCell id="jmV42XF77DHSqQWprtIl-63" value="Print" style="rounded=1;whiteSpace=wrap;html=1;" vertex="1" parent="1">
          <mxGeometry x="1290" y="595" width="80" height="40" as="geometry" />
        </mxCell>
        <mxCell id="jmV42XF77DHSqQWprtIl-64" value="" style="endArrow=none;html=1;rounded=0;exitX=0.5;exitY=0;exitDx=0;exitDy=0;entryX=0.5;entryY=1;entryDx=0;entryDy=0;" edge="1" parent="1" source="jmV42XF77DHSqQWprtIl-63">
          <mxGeometry width="50" height="50" relative="1" as="geometry">
            <mxPoint x="1530" y="435" as="sourcePoint" />
            <mxPoint x="1330" y="574" as="targetPoint" />
          </mxGeometry>
        </mxCell>
        <mxCell id="jmV42XF77DHSqQWprtIl-65" value="Options" style="swimlane;fontStyle=0;childLayout=stackLayout;horizontal=1;startSize=30;horizontalStack=0;resizeParent=1;resizeParentMax=0;resizeLast=0;collapsible=1;marginBottom=0;whiteSpace=wrap;html=1;" vertex="1" parent="1">
          <mxGeometry x="1290" y="655" width="80" height="120" as="geometry">
            <mxRectangle x="480" y="450" width="80" height="30" as="alternateBounds" />
          </mxGeometry>
        </mxCell>
        <mxCell id="jmV42XF77DHSqQWprtIl-66" value="Definitions" style="text;strokeColor=none;fillColor=none;align=left;verticalAlign=middle;spacingLeft=4;spacingRight=4;overflow=hidden;points=[[0,0.5],[1,0.5]];portConstraint=eastwest;rotatable=0;whiteSpace=wrap;html=1;" vertex="1" parent="jmV42XF77DHSqQWprtIl-65">
          <mxGeometry y="30" width="80" height="30" as="geometry" />
        </mxCell>
        <mxCell id="jmV42XF77DHSqQWprtIl-67" value="Eng --&amp;gt; Esp" style="text;strokeColor=none;fillColor=none;align=left;verticalAlign=middle;spacingLeft=4;spacingRight=4;overflow=hidden;points=[[0,0.5],[1,0.5]];portConstraint=eastwest;rotatable=0;whiteSpace=wrap;html=1;" vertex="1" parent="jmV42XF77DHSqQWprtIl-65">
          <mxGeometry y="60" width="80" height="30" as="geometry" />
        </mxCell>
        <mxCell id="jmV42XF77DHSqQWprtIl-68" value="Esp --&amp;gt; Eng" style="text;strokeColor=none;fillColor=none;align=left;verticalAlign=middle;spacingLeft=4;spacingRight=4;overflow=hidden;points=[[0,0.5],[1,0.5]];portConstraint=eastwest;rotatable=0;whiteSpace=wrap;html=1;" vertex="1" parent="jmV42XF77DHSqQWprtIl-65">
          <mxGeometry y="90" width="80" height="30" as="geometry" />
        </mxCell>
        <mxCell id="jmV42XF77DHSqQWprtIl-69" value="" style="endArrow=none;html=1;rounded=0;exitX=0.5;exitY=0;exitDx=0;exitDy=0;entryX=0.5;entryY=1;entryDx=0;entryDy=0;" edge="1" parent="1" source="jmV42XF77DHSqQWprtIl-65" target="jmV42XF77DHSqQWprtIl-63">
          <mxGeometry width="50" height="50" relative="1" as="geometry">
            <mxPoint x="1820" y="645" as="sourcePoint" />
            <mxPoint x="1870" y="595" as="targetPoint" />
          </mxGeometry>
        </mxCell>
        <mxCell id="jmV42XF77DHSqQWprtIl-70" value="Print" style="rounded=1;whiteSpace=wrap;html=1;" vertex="1" parent="1">
          <mxGeometry x="1380" y="595" width="80" height="40" as="geometry" />
        </mxCell>
        <mxCell id="jmV42XF77DHSqQWprtIl-71" value="" style="endArrow=none;html=1;rounded=0;exitX=0.5;exitY=0;exitDx=0;exitDy=0;entryX=0.5;entryY=1;entryDx=0;entryDy=0;" edge="1" parent="1" source="jmV42XF77DHSqQWprtIl-70">
          <mxGeometry width="50" height="50" relative="1" as="geometry">
            <mxPoint x="1620" y="435" as="sourcePoint" />
            <mxPoint x="1420" y="574" as="targetPoint" />
          </mxGeometry>
        </mxCell>
        <mxCell id="jmV42XF77DHSqQWprtIl-72" value="Options" style="swimlane;fontStyle=0;childLayout=stackLayout;horizontal=1;startSize=30;horizontalStack=0;resizeParent=1;resizeParentMax=0;resizeLast=0;collapsible=1;marginBottom=0;whiteSpace=wrap;html=1;" vertex="1" parent="1">
          <mxGeometry x="1380" y="655" width="80" height="120" as="geometry">
            <mxRectangle x="480" y="450" width="80" height="30" as="alternateBounds" />
          </mxGeometry>
        </mxCell>
        <mxCell id="jmV42XF77DHSqQWprtIl-73" value="Definitions" style="text;strokeColor=none;fillColor=none;align=left;verticalAlign=middle;spacingLeft=4;spacingRight=4;overflow=hidden;points=[[0,0.5],[1,0.5]];portConstraint=eastwest;rotatable=0;whiteSpace=wrap;html=1;" vertex="1" parent="jmV42XF77DHSqQWprtIl-72">
          <mxGeometry y="30" width="80" height="30" as="geometry" />
        </mxCell>
        <mxCell id="jmV42XF77DHSqQWprtIl-74" value="Eng --&amp;gt; Esp" style="text;strokeColor=none;fillColor=none;align=left;verticalAlign=middle;spacingLeft=4;spacingRight=4;overflow=hidden;points=[[0,0.5],[1,0.5]];portConstraint=eastwest;rotatable=0;whiteSpace=wrap;html=1;" vertex="1" parent="jmV42XF77DHSqQWprtIl-72">
          <mxGeometry y="60" width="80" height="30" as="geometry" />
        </mxCell>
        <mxCell id="jmV42XF77DHSqQWprtIl-75" value="Esp --&amp;gt; Eng" style="text;strokeColor=none;fillColor=none;align=left;verticalAlign=middle;spacingLeft=4;spacingRight=4;overflow=hidden;points=[[0,0.5],[1,0.5]];portConstraint=eastwest;rotatable=0;whiteSpace=wrap;html=1;" vertex="1" parent="jmV42XF77DHSqQWprtIl-72">
          <mxGeometry y="90" width="80" height="30" as="geometry" />
        </mxCell>
        <mxCell id="jmV42XF77DHSqQWprtIl-76" value="" style="endArrow=none;html=1;rounded=0;exitX=0.5;exitY=0;exitDx=0;exitDy=0;entryX=0.5;entryY=1;entryDx=0;entryDy=0;" edge="1" parent="1" source="jmV42XF77DHSqQWprtIl-72" target="jmV42XF77DHSqQWprtIl-70">
          <mxGeometry width="50" height="50" relative="1" as="geometry">
            <mxPoint x="1910" y="645" as="sourcePoint" />
            <mxPoint x="1960" y="595" as="targetPoint" />
          </mxGeometry>
        </mxCell>
        <mxCell id="jmV42XF77DHSqQWprtIl-77" value="Print" style="rounded=1;whiteSpace=wrap;html=1;" vertex="1" parent="1">
          <mxGeometry x="1470" y="595" width="80" height="40" as="geometry" />
        </mxCell>
        <mxCell id="jmV42XF77DHSqQWprtIl-78" value="" style="endArrow=none;html=1;rounded=0;exitX=0.5;exitY=0;exitDx=0;exitDy=0;entryX=0.5;entryY=1;entryDx=0;entryDy=0;" edge="1" parent="1" source="jmV42XF77DHSqQWprtIl-77">
          <mxGeometry width="50" height="50" relative="1" as="geometry">
            <mxPoint x="1710" y="435" as="sourcePoint" />
            <mxPoint x="1510" y="574" as="targetPoint" />
          </mxGeometry>
        </mxCell>
        <mxCell id="jmV42XF77DHSqQWprtIl-79" value="Options" style="swimlane;fontStyle=0;childLayout=stackLayout;horizontal=1;startSize=30;horizontalStack=0;resizeParent=1;resizeParentMax=0;resizeLast=0;collapsible=1;marginBottom=0;whiteSpace=wrap;html=1;" vertex="1" parent="1">
          <mxGeometry x="1470" y="655" width="80" height="120" as="geometry">
            <mxRectangle x="480" y="450" width="80" height="30" as="alternateBounds" />
          </mxGeometry>
        </mxCell>
        <mxCell id="jmV42XF77DHSqQWprtIl-80" value="Definitions" style="text;strokeColor=none;fillColor=none;align=left;verticalAlign=middle;spacingLeft=4;spacingRight=4;overflow=hidden;points=[[0,0.5],[1,0.5]];portConstraint=eastwest;rotatable=0;whiteSpace=wrap;html=1;" vertex="1" parent="jmV42XF77DHSqQWprtIl-79">
          <mxGeometry y="30" width="80" height="30" as="geometry" />
        </mxCell>
        <mxCell id="jmV42XF77DHSqQWprtIl-81" value="Eng --&amp;gt; Esp" style="text;strokeColor=none;fillColor=none;align=left;verticalAlign=middle;spacingLeft=4;spacingRight=4;overflow=hidden;points=[[0,0.5],[1,0.5]];portConstraint=eastwest;rotatable=0;whiteSpace=wrap;html=1;" vertex="1" parent="jmV42XF77DHSqQWprtIl-79">
          <mxGeometry y="60" width="80" height="30" as="geometry" />
        </mxCell>
        <mxCell id="jmV42XF77DHSqQWprtIl-82" value="Esp --&amp;gt; Eng" style="text;strokeColor=none;fillColor=none;align=left;verticalAlign=middle;spacingLeft=4;spacingRight=4;overflow=hidden;points=[[0,0.5],[1,0.5]];portConstraint=eastwest;rotatable=0;whiteSpace=wrap;html=1;" vertex="1" parent="jmV42XF77DHSqQWprtIl-79">
          <mxGeometry y="90" width="80" height="30" as="geometry" />
        </mxCell>
        <mxCell id="jmV42XF77DHSqQWprtIl-83" value="" style="endArrow=none;html=1;rounded=0;exitX=0.5;exitY=0;exitDx=0;exitDy=0;entryX=0.5;entryY=1;entryDx=0;entryDy=0;" edge="1" parent="1" source="jmV42XF77DHSqQWprtIl-79" target="jmV42XF77DHSqQWprtIl-77">
          <mxGeometry width="50" height="50" relative="1" as="geometry">
            <mxPoint x="2000" y="645" as="sourcePoint" />
            <mxPoint x="2050" y="595" as="targetPoint" />
          </mxGeometry>
        </mxCell>
        <mxCell id="jmV42XF77DHSqQWprtIl-84" value="Print" style="rounded=1;whiteSpace=wrap;html=1;" vertex="1" parent="1">
          <mxGeometry x="1560" y="595" width="80" height="40" as="geometry" />
        </mxCell>
        <mxCell id="jmV42XF77DHSqQWprtIl-85" value="" style="endArrow=none;html=1;rounded=0;exitX=0.5;exitY=0;exitDx=0;exitDy=0;entryX=0.5;entryY=1;entryDx=0;entryDy=0;" edge="1" parent="1" source="jmV42XF77DHSqQWprtIl-84">
          <mxGeometry width="50" height="50" relative="1" as="geometry">
            <mxPoint x="1800" y="435" as="sourcePoint" />
            <mxPoint x="1600" y="574" as="targetPoint" />
          </mxGeometry>
        </mxCell>
        <mxCell id="jmV42XF77DHSqQWprtIl-86" value="Options" style="swimlane;fontStyle=0;childLayout=stackLayout;horizontal=1;startSize=30;horizontalStack=0;resizeParent=1;resizeParentMax=0;resizeLast=0;collapsible=1;marginBottom=0;whiteSpace=wrap;html=1;" vertex="1" parent="1">
          <mxGeometry x="1560" y="655" width="80" height="120" as="geometry">
            <mxRectangle x="480" y="450" width="80" height="30" as="alternateBounds" />
          </mxGeometry>
        </mxCell>
        <mxCell id="jmV42XF77DHSqQWprtIl-87" value="Definitions" style="text;strokeColor=none;fillColor=none;align=left;verticalAlign=middle;spacingLeft=4;spacingRight=4;overflow=hidden;points=[[0,0.5],[1,0.5]];portConstraint=eastwest;rotatable=0;whiteSpace=wrap;html=1;" vertex="1" parent="jmV42XF77DHSqQWprtIl-86">
          <mxGeometry y="30" width="80" height="30" as="geometry" />
        </mxCell>
        <mxCell id="jmV42XF77DHSqQWprtIl-88" value="Eng --&amp;gt; Esp" style="text;strokeColor=none;fillColor=none;align=left;verticalAlign=middle;spacingLeft=4;spacingRight=4;overflow=hidden;points=[[0,0.5],[1,0.5]];portConstraint=eastwest;rotatable=0;whiteSpace=wrap;html=1;" vertex="1" parent="jmV42XF77DHSqQWprtIl-86">
          <mxGeometry y="60" width="80" height="30" as="geometry" />
        </mxCell>
        <mxCell id="jmV42XF77DHSqQWprtIl-89" value="Esp --&amp;gt; Eng" style="text;strokeColor=none;fillColor=none;align=left;verticalAlign=middle;spacingLeft=4;spacingRight=4;overflow=hidden;points=[[0,0.5],[1,0.5]];portConstraint=eastwest;rotatable=0;whiteSpace=wrap;html=1;" vertex="1" parent="jmV42XF77DHSqQWprtIl-86">
          <mxGeometry y="90" width="80" height="30" as="geometry" />
        </mxCell>
        <mxCell id="jmV42XF77DHSqQWprtIl-90" value="" style="endArrow=none;html=1;rounded=0;exitX=0.5;exitY=0;exitDx=0;exitDy=0;entryX=0.5;entryY=1;entryDx=0;entryDy=0;" edge="1" parent="1" source="jmV42XF77DHSqQWprtIl-86" target="jmV42XF77DHSqQWprtIl-84">
          <mxGeometry width="50" height="50" relative="1" as="geometry">
            <mxPoint x="2090" y="645" as="sourcePoint" />
            <mxPoint x="2140" y="595" as="targetPoint" />
          </mxGeometry>
        </mxCell>
        <mxCell id="jmV42XF77DHSqQWprtIl-91" value="Print" style="rounded=1;whiteSpace=wrap;html=1;" vertex="1" parent="1">
          <mxGeometry x="1650" y="595" width="80" height="40" as="geometry" />
        </mxCell>
        <mxCell id="jmV42XF77DHSqQWprtIl-92" value="" style="endArrow=none;html=1;rounded=0;exitX=0.5;exitY=0;exitDx=0;exitDy=0;entryX=0.5;entryY=1;entryDx=0;entryDy=0;" edge="1" parent="1" source="jmV42XF77DHSqQWprtIl-91">
          <mxGeometry width="50" height="50" relative="1" as="geometry">
            <mxPoint x="1890" y="435" as="sourcePoint" />
            <mxPoint x="1690" y="574" as="targetPoint" />
          </mxGeometry>
        </mxCell>
        <mxCell id="jmV42XF77DHSqQWprtIl-93" value="Options" style="swimlane;fontStyle=0;childLayout=stackLayout;horizontal=1;startSize=30;horizontalStack=0;resizeParent=1;resizeParentMax=0;resizeLast=0;collapsible=1;marginBottom=0;whiteSpace=wrap;html=1;" vertex="1" parent="1">
          <mxGeometry x="1650" y="655" width="80" height="120" as="geometry">
            <mxRectangle x="480" y="450" width="80" height="30" as="alternateBounds" />
          </mxGeometry>
        </mxCell>
        <mxCell id="jmV42XF77DHSqQWprtIl-94" value="Definitions" style="text;strokeColor=none;fillColor=none;align=left;verticalAlign=middle;spacingLeft=4;spacingRight=4;overflow=hidden;points=[[0,0.5],[1,0.5]];portConstraint=eastwest;rotatable=0;whiteSpace=wrap;html=1;" vertex="1" parent="jmV42XF77DHSqQWprtIl-93">
          <mxGeometry y="30" width="80" height="30" as="geometry" />
        </mxCell>
        <mxCell id="jmV42XF77DHSqQWprtIl-95" value="Eng --&amp;gt; Esp" style="text;strokeColor=none;fillColor=none;align=left;verticalAlign=middle;spacingLeft=4;spacingRight=4;overflow=hidden;points=[[0,0.5],[1,0.5]];portConstraint=eastwest;rotatable=0;whiteSpace=wrap;html=1;" vertex="1" parent="jmV42XF77DHSqQWprtIl-93">
          <mxGeometry y="60" width="80" height="30" as="geometry" />
        </mxCell>
        <mxCell id="jmV42XF77DHSqQWprtIl-96" value="Esp --&amp;gt; Eng" style="text;strokeColor=none;fillColor=none;align=left;verticalAlign=middle;spacingLeft=4;spacingRight=4;overflow=hidden;points=[[0,0.5],[1,0.5]];portConstraint=eastwest;rotatable=0;whiteSpace=wrap;html=1;" vertex="1" parent="jmV42XF77DHSqQWprtIl-93">
          <mxGeometry y="90" width="80" height="30" as="geometry" />
        </mxCell>
        <mxCell id="jmV42XF77DHSqQWprtIl-97" value="" style="endArrow=none;html=1;rounded=0;exitX=0.5;exitY=0;exitDx=0;exitDy=0;entryX=0.5;entryY=1;entryDx=0;entryDy=0;" edge="1" parent="1" source="jmV42XF77DHSqQWprtIl-93" target="jmV42XF77DHSqQWprtIl-91">
          <mxGeometry width="50" height="50" relative="1" as="geometry">
            <mxPoint x="2180" y="645" as="sourcePoint" />
            <mxPoint x="2230" y="595" as="targetPoint" />
          </mxGeometry>
        </mxCell>
        <mxCell id="jmV42XF77DHSqQWprtIl-98" value="Print" style="rounded=1;whiteSpace=wrap;html=1;" vertex="1" parent="1">
          <mxGeometry x="1740" y="595" width="80" height="40" as="geometry" />
        </mxCell>
        <mxCell id="jmV42XF77DHSqQWprtIl-99" value="" style="endArrow=none;html=1;rounded=0;exitX=0.5;exitY=0;exitDx=0;exitDy=0;entryX=0.5;entryY=1;entryDx=0;entryDy=0;" edge="1" parent="1" source="jmV42XF77DHSqQWprtIl-98">
          <mxGeometry width="50" height="50" relative="1" as="geometry">
            <mxPoint x="1980" y="435" as="sourcePoint" />
            <mxPoint x="1780" y="574" as="targetPoint" />
          </mxGeometry>
        </mxCell>
        <mxCell id="jmV42XF77DHSqQWprtIl-100" value="Options" style="swimlane;fontStyle=0;childLayout=stackLayout;horizontal=1;startSize=30;horizontalStack=0;resizeParent=1;resizeParentMax=0;resizeLast=0;collapsible=1;marginBottom=0;whiteSpace=wrap;html=1;" vertex="1" parent="1">
          <mxGeometry x="1740" y="655" width="80" height="120" as="geometry">
            <mxRectangle x="480" y="450" width="80" height="30" as="alternateBounds" />
          </mxGeometry>
        </mxCell>
        <mxCell id="jmV42XF77DHSqQWprtIl-101" value="Definitions" style="text;strokeColor=none;fillColor=none;align=left;verticalAlign=middle;spacingLeft=4;spacingRight=4;overflow=hidden;points=[[0,0.5],[1,0.5]];portConstraint=eastwest;rotatable=0;whiteSpace=wrap;html=1;" vertex="1" parent="jmV42XF77DHSqQWprtIl-100">
          <mxGeometry y="30" width="80" height="30" as="geometry" />
        </mxCell>
        <mxCell id="jmV42XF77DHSqQWprtIl-102" value="Eng --&amp;gt; Esp" style="text;strokeColor=none;fillColor=none;align=left;verticalAlign=middle;spacingLeft=4;spacingRight=4;overflow=hidden;points=[[0,0.5],[1,0.5]];portConstraint=eastwest;rotatable=0;whiteSpace=wrap;html=1;" vertex="1" parent="jmV42XF77DHSqQWprtIl-100">
          <mxGeometry y="60" width="80" height="30" as="geometry" />
        </mxCell>
        <mxCell id="jmV42XF77DHSqQWprtIl-103" value="Esp --&amp;gt; Eng" style="text;strokeColor=none;fillColor=none;align=left;verticalAlign=middle;spacingLeft=4;spacingRight=4;overflow=hidden;points=[[0,0.5],[1,0.5]];portConstraint=eastwest;rotatable=0;whiteSpace=wrap;html=1;" vertex="1" parent="jmV42XF77DHSqQWprtIl-100">
          <mxGeometry y="90" width="80" height="30" as="geometry" />
        </mxCell>
        <mxCell id="jmV42XF77DHSqQWprtIl-104" value="" style="endArrow=none;html=1;rounded=0;exitX=0.5;exitY=0;exitDx=0;exitDy=0;entryX=0.5;entryY=1;entryDx=0;entryDy=0;" edge="1" parent="1" source="jmV42XF77DHSqQWprtIl-100" target="jmV42XF77DHSqQWprtIl-98">
          <mxGeometry width="50" height="50" relative="1" as="geometry">
            <mxPoint x="2270" y="645" as="sourcePoint" />
            <mxPoint x="2320" y="595" as="targetPoint" />
          </mxGeometry>
        </mxCell>
        <mxCell id="jmV42XF77DHSqQWprtIl-105" value="Print" style="rounded=1;whiteSpace=wrap;html=1;" vertex="1" parent="1">
          <mxGeometry x="1830" y="595" width="80" height="40" as="geometry" />
        </mxCell>
        <mxCell id="jmV42XF77DHSqQWprtIl-106" value="" style="endArrow=none;html=1;rounded=0;exitX=0.5;exitY=0;exitDx=0;exitDy=0;entryX=0.5;entryY=1;entryDx=0;entryDy=0;" edge="1" parent="1" source="jmV42XF77DHSqQWprtIl-105">
          <mxGeometry width="50" height="50" relative="1" as="geometry">
            <mxPoint x="2070" y="435" as="sourcePoint" />
            <mxPoint x="1870" y="574" as="targetPoint" />
          </mxGeometry>
        </mxCell>
        <mxCell id="jmV42XF77DHSqQWprtIl-107" value="Options" style="swimlane;fontStyle=0;childLayout=stackLayout;horizontal=1;startSize=30;horizontalStack=0;resizeParent=1;resizeParentMax=0;resizeLast=0;collapsible=1;marginBottom=0;whiteSpace=wrap;html=1;" vertex="1" parent="1">
          <mxGeometry x="1830" y="655" width="80" height="120" as="geometry">
            <mxRectangle x="480" y="450" width="80" height="30" as="alternateBounds" />
          </mxGeometry>
        </mxCell>
        <mxCell id="jmV42XF77DHSqQWprtIl-108" value="Definitions" style="text;strokeColor=none;fillColor=none;align=left;verticalAlign=middle;spacingLeft=4;spacingRight=4;overflow=hidden;points=[[0,0.5],[1,0.5]];portConstraint=eastwest;rotatable=0;whiteSpace=wrap;html=1;" vertex="1" parent="jmV42XF77DHSqQWprtIl-107">
          <mxGeometry y="30" width="80" height="30" as="geometry" />
        </mxCell>
        <mxCell id="jmV42XF77DHSqQWprtIl-109" value="Eng --&amp;gt; Esp" style="text;strokeColor=none;fillColor=none;align=left;verticalAlign=middle;spacingLeft=4;spacingRight=4;overflow=hidden;points=[[0,0.5],[1,0.5]];portConstraint=eastwest;rotatable=0;whiteSpace=wrap;html=1;" vertex="1" parent="jmV42XF77DHSqQWprtIl-107">
          <mxGeometry y="60" width="80" height="30" as="geometry" />
        </mxCell>
        <mxCell id="jmV42XF77DHSqQWprtIl-110" value="Esp --&amp;gt; Eng" style="text;strokeColor=none;fillColor=none;align=left;verticalAlign=middle;spacingLeft=4;spacingRight=4;overflow=hidden;points=[[0,0.5],[1,0.5]];portConstraint=eastwest;rotatable=0;whiteSpace=wrap;html=1;" vertex="1" parent="jmV42XF77DHSqQWprtIl-107">
          <mxGeometry y="90" width="80" height="30" as="geometry" />
        </mxCell>
        <mxCell id="jmV42XF77DHSqQWprtIl-111" value="" style="endArrow=none;html=1;rounded=0;exitX=0.5;exitY=0;exitDx=0;exitDy=0;entryX=0.5;entryY=1;entryDx=0;entryDy=0;" edge="1" parent="1" source="jmV42XF77DHSqQWprtIl-107" target="jmV42XF77DHSqQWprtIl-105">
          <mxGeometry width="50" height="50" relative="1" as="geometry">
            <mxPoint x="2360" y="645" as="sourcePoint" />
            <mxPoint x="2410" y="595" as="targetPoint" />
          </mxGeometry>
        </mxCell>
        <mxCell id="jmV42XF77DHSqQWprtIl-112" value="Print" style="rounded=1;whiteSpace=wrap;html=1;" vertex="1" parent="1">
          <mxGeometry x="1920" y="595" width="80" height="40" as="geometry" />
        </mxCell>
        <mxCell id="jmV42XF77DHSqQWprtIl-113" value="" style="endArrow=none;html=1;rounded=0;exitX=0.5;exitY=0;exitDx=0;exitDy=0;entryX=0.5;entryY=1;entryDx=0;entryDy=0;" edge="1" parent="1" source="jmV42XF77DHSqQWprtIl-112">
          <mxGeometry width="50" height="50" relative="1" as="geometry">
            <mxPoint x="2160" y="435" as="sourcePoint" />
            <mxPoint x="1960" y="574" as="targetPoint" />
          </mxGeometry>
        </mxCell>
        <mxCell id="jmV42XF77DHSqQWprtIl-114" value="Options" style="swimlane;fontStyle=0;childLayout=stackLayout;horizontal=1;startSize=30;horizontalStack=0;resizeParent=1;resizeParentMax=0;resizeLast=0;collapsible=1;marginBottom=0;whiteSpace=wrap;html=1;" vertex="1" parent="1">
          <mxGeometry x="1920" y="655" width="80" height="120" as="geometry">
            <mxRectangle x="480" y="450" width="80" height="30" as="alternateBounds" />
          </mxGeometry>
        </mxCell>
        <mxCell id="jmV42XF77DHSqQWprtIl-115" value="Definitions" style="text;strokeColor=none;fillColor=none;align=left;verticalAlign=middle;spacingLeft=4;spacingRight=4;overflow=hidden;points=[[0,0.5],[1,0.5]];portConstraint=eastwest;rotatable=0;whiteSpace=wrap;html=1;" vertex="1" parent="jmV42XF77DHSqQWprtIl-114">
          <mxGeometry y="30" width="80" height="30" as="geometry" />
        </mxCell>
        <mxCell id="jmV42XF77DHSqQWprtIl-116" value="Eng --&amp;gt; Esp" style="text;strokeColor=none;fillColor=none;align=left;verticalAlign=middle;spacingLeft=4;spacingRight=4;overflow=hidden;points=[[0,0.5],[1,0.5]];portConstraint=eastwest;rotatable=0;whiteSpace=wrap;html=1;" vertex="1" parent="jmV42XF77DHSqQWprtIl-114">
          <mxGeometry y="60" width="80" height="30" as="geometry" />
        </mxCell>
        <mxCell id="jmV42XF77DHSqQWprtIl-117" value="Esp --&amp;gt; Eng" style="text;strokeColor=none;fillColor=none;align=left;verticalAlign=middle;spacingLeft=4;spacingRight=4;overflow=hidden;points=[[0,0.5],[1,0.5]];portConstraint=eastwest;rotatable=0;whiteSpace=wrap;html=1;" vertex="1" parent="jmV42XF77DHSqQWprtIl-114">
          <mxGeometry y="90" width="80" height="30" as="geometry" />
        </mxCell>
        <mxCell id="jmV42XF77DHSqQWprtIl-118" value="" style="endArrow=none;html=1;rounded=0;exitX=0.5;exitY=0;exitDx=0;exitDy=0;entryX=0.5;entryY=1;entryDx=0;entryDy=0;" edge="1" parent="1" source="jmV42XF77DHSqQWprtIl-114" target="jmV42XF77DHSqQWprtIl-112">
          <mxGeometry width="50" height="50" relative="1" as="geometry">
            <mxPoint x="2450" y="645" as="sourcePoint" />
            <mxPoint x="2500" y="595" as="targetPoint" />
          </mxGeometry>
        </mxCell>
        <mxCell id="jmV42XF77DHSqQWprtIl-119" value="Print" style="rounded=1;whiteSpace=wrap;html=1;" vertex="1" parent="1">
          <mxGeometry x="2010" y="595" width="80" height="40" as="geometry" />
        </mxCell>
        <mxCell id="jmV42XF77DHSqQWprtIl-120" value="" style="endArrow=none;html=1;rounded=0;exitX=0.5;exitY=0;exitDx=0;exitDy=0;entryX=0.5;entryY=1;entryDx=0;entryDy=0;" edge="1" parent="1" source="jmV42XF77DHSqQWprtIl-119">
          <mxGeometry width="50" height="50" relative="1" as="geometry">
            <mxPoint x="2250" y="435" as="sourcePoint" />
            <mxPoint x="2050" y="574" as="targetPoint" />
          </mxGeometry>
        </mxCell>
        <mxCell id="jmV42XF77DHSqQWprtIl-121" value="Options" style="swimlane;fontStyle=0;childLayout=stackLayout;horizontal=1;startSize=30;horizontalStack=0;resizeParent=1;resizeParentMax=0;resizeLast=0;collapsible=1;marginBottom=0;whiteSpace=wrap;html=1;" vertex="1" parent="1">
          <mxGeometry x="2010" y="655" width="80" height="120" as="geometry">
            <mxRectangle x="480" y="450" width="80" height="30" as="alternateBounds" />
          </mxGeometry>
        </mxCell>
        <mxCell id="jmV42XF77DHSqQWprtIl-122" value="Definitions" style="text;strokeColor=none;fillColor=none;align=left;verticalAlign=middle;spacingLeft=4;spacingRight=4;overflow=hidden;points=[[0,0.5],[1,0.5]];portConstraint=eastwest;rotatable=0;whiteSpace=wrap;html=1;" vertex="1" parent="jmV42XF77DHSqQWprtIl-121">
          <mxGeometry y="30" width="80" height="30" as="geometry" />
        </mxCell>
        <mxCell id="jmV42XF77DHSqQWprtIl-123" value="Eng --&amp;gt; Esp" style="text;strokeColor=none;fillColor=none;align=left;verticalAlign=middle;spacingLeft=4;spacingRight=4;overflow=hidden;points=[[0,0.5],[1,0.5]];portConstraint=eastwest;rotatable=0;whiteSpace=wrap;html=1;" vertex="1" parent="jmV42XF77DHSqQWprtIl-121">
          <mxGeometry y="60" width="80" height="30" as="geometry" />
        </mxCell>
        <mxCell id="jmV42XF77DHSqQWprtIl-124" value="Esp --&amp;gt; Eng" style="text;strokeColor=none;fillColor=none;align=left;verticalAlign=middle;spacingLeft=4;spacingRight=4;overflow=hidden;points=[[0,0.5],[1,0.5]];portConstraint=eastwest;rotatable=0;whiteSpace=wrap;html=1;" vertex="1" parent="jmV42XF77DHSqQWprtIl-121">
          <mxGeometry y="90" width="80" height="30" as="geometry" />
        </mxCell>
        <mxCell id="jmV42XF77DHSqQWprtIl-125" value="" style="endArrow=none;html=1;rounded=0;exitX=0.5;exitY=0;exitDx=0;exitDy=0;entryX=0.5;entryY=1;entryDx=0;entryDy=0;" edge="1" parent="1" source="jmV42XF77DHSqQWprtIl-121" target="jmV42XF77DHSqQWprtIl-119">
          <mxGeometry width="50" height="50" relative="1" as="geometry">
            <mxPoint x="2540" y="645" as="sourcePoint" />
            <mxPoint x="2590" y="595" as="targetPoint" />
          </mxGeometry>
        </mxCell>
        <mxCell id="jmV42XF77DHSqQWprtIl-126" value="Print" style="rounded=1;whiteSpace=wrap;html=1;" vertex="1" parent="1">
          <mxGeometry x="2100" y="595" width="80" height="40" as="geometry" />
        </mxCell>
        <mxCell id="jmV42XF77DHSqQWprtIl-127" value="" style="endArrow=none;html=1;rounded=0;exitX=0.5;exitY=0;exitDx=0;exitDy=0;entryX=0.5;entryY=1;entryDx=0;entryDy=0;" edge="1" parent="1" source="jmV42XF77DHSqQWprtIl-126">
          <mxGeometry width="50" height="50" relative="1" as="geometry">
            <mxPoint x="2340" y="435" as="sourcePoint" />
            <mxPoint x="2140" y="574" as="targetPoint" />
          </mxGeometry>
        </mxCell>
        <mxCell id="jmV42XF77DHSqQWprtIl-128" value="Options" style="swimlane;fontStyle=0;childLayout=stackLayout;horizontal=1;startSize=30;horizontalStack=0;resizeParent=1;resizeParentMax=0;resizeLast=0;collapsible=1;marginBottom=0;whiteSpace=wrap;html=1;" vertex="1" parent="1">
          <mxGeometry x="2100" y="655" width="80" height="120" as="geometry">
            <mxRectangle x="480" y="450" width="80" height="30" as="alternateBounds" />
          </mxGeometry>
        </mxCell>
        <mxCell id="jmV42XF77DHSqQWprtIl-129" value="Definitions" style="text;strokeColor=none;fillColor=none;align=left;verticalAlign=middle;spacingLeft=4;spacingRight=4;overflow=hidden;points=[[0,0.5],[1,0.5]];portConstraint=eastwest;rotatable=0;whiteSpace=wrap;html=1;" vertex="1" parent="jmV42XF77DHSqQWprtIl-128">
          <mxGeometry y="30" width="80" height="30" as="geometry" />
        </mxCell>
        <mxCell id="jmV42XF77DHSqQWprtIl-130" value="Eng --&amp;gt; Esp" style="text;strokeColor=none;fillColor=none;align=left;verticalAlign=middle;spacingLeft=4;spacingRight=4;overflow=hidden;points=[[0,0.5],[1,0.5]];portConstraint=eastwest;rotatable=0;whiteSpace=wrap;html=1;" vertex="1" parent="jmV42XF77DHSqQWprtIl-128">
          <mxGeometry y="60" width="80" height="30" as="geometry" />
        </mxCell>
        <mxCell id="jmV42XF77DHSqQWprtIl-131" value="Esp --&amp;gt; Eng" style="text;strokeColor=none;fillColor=none;align=left;verticalAlign=middle;spacingLeft=4;spacingRight=4;overflow=hidden;points=[[0,0.5],[1,0.5]];portConstraint=eastwest;rotatable=0;whiteSpace=wrap;html=1;" vertex="1" parent="jmV42XF77DHSqQWprtIl-128">
          <mxGeometry y="90" width="80" height="30" as="geometry" />
        </mxCell>
        <mxCell id="jmV42XF77DHSqQWprtIl-132" value="" style="endArrow=none;html=1;rounded=0;exitX=0.5;exitY=0;exitDx=0;exitDy=0;entryX=0.5;entryY=1;entryDx=0;entryDy=0;" edge="1" parent="1" source="jmV42XF77DHSqQWprtIl-128" target="jmV42XF77DHSqQWprtIl-126">
          <mxGeometry width="50" height="50" relative="1" as="geometry">
            <mxPoint x="2630" y="645" as="sourcePoint" />
            <mxPoint x="2680" y="595" as="targetPoint" />
          </mxGeometry>
        </mxCell>
        <mxCell id="jmV42XF77DHSqQWprtIl-133" value="Print" style="rounded=1;whiteSpace=wrap;html=1;" vertex="1" parent="1">
          <mxGeometry x="2190" y="596" width="80" height="40" as="geometry" />
        </mxCell>
        <mxCell id="jmV42XF77DHSqQWprtIl-134" value="" style="endArrow=none;html=1;rounded=0;exitX=0.5;exitY=0;exitDx=0;exitDy=0;entryX=0.5;entryY=1;entryDx=0;entryDy=0;" edge="1" parent="1" source="jmV42XF77DHSqQWprtIl-133">
          <mxGeometry width="50" height="50" relative="1" as="geometry">
            <mxPoint x="2430" y="436" as="sourcePoint" />
            <mxPoint x="2230" y="575" as="targetPoint" />
          </mxGeometry>
        </mxCell>
        <mxCell id="jmV42XF77DHSqQWprtIl-135" value="Options" style="swimlane;fontStyle=0;childLayout=stackLayout;horizontal=1;startSize=30;horizontalStack=0;resizeParent=1;resizeParentMax=0;resizeLast=0;collapsible=1;marginBottom=0;whiteSpace=wrap;html=1;" vertex="1" parent="1">
          <mxGeometry x="2190" y="656" width="80" height="120" as="geometry">
            <mxRectangle x="480" y="450" width="80" height="30" as="alternateBounds" />
          </mxGeometry>
        </mxCell>
        <mxCell id="jmV42XF77DHSqQWprtIl-136" value="Definitions" style="text;strokeColor=none;fillColor=none;align=left;verticalAlign=middle;spacingLeft=4;spacingRight=4;overflow=hidden;points=[[0,0.5],[1,0.5]];portConstraint=eastwest;rotatable=0;whiteSpace=wrap;html=1;" vertex="1" parent="jmV42XF77DHSqQWprtIl-135">
          <mxGeometry y="30" width="80" height="30" as="geometry" />
        </mxCell>
        <mxCell id="jmV42XF77DHSqQWprtIl-137" value="Eng --&amp;gt; Esp" style="text;strokeColor=none;fillColor=none;align=left;verticalAlign=middle;spacingLeft=4;spacingRight=4;overflow=hidden;points=[[0,0.5],[1,0.5]];portConstraint=eastwest;rotatable=0;whiteSpace=wrap;html=1;" vertex="1" parent="jmV42XF77DHSqQWprtIl-135">
          <mxGeometry y="60" width="80" height="30" as="geometry" />
        </mxCell>
        <mxCell id="jmV42XF77DHSqQWprtIl-138" value="Esp --&amp;gt; Eng" style="text;strokeColor=none;fillColor=none;align=left;verticalAlign=middle;spacingLeft=4;spacingRight=4;overflow=hidden;points=[[0,0.5],[1,0.5]];portConstraint=eastwest;rotatable=0;whiteSpace=wrap;html=1;" vertex="1" parent="jmV42XF77DHSqQWprtIl-135">
          <mxGeometry y="90" width="80" height="30" as="geometry" />
        </mxCell>
        <mxCell id="jmV42XF77DHSqQWprtIl-139" value="" style="endArrow=none;html=1;rounded=0;exitX=0.5;exitY=0;exitDx=0;exitDy=0;entryX=0.5;entryY=1;entryDx=0;entryDy=0;" edge="1" parent="1" source="jmV42XF77DHSqQWprtIl-135" target="jmV42XF77DHSqQWprtIl-133">
          <mxGeometry width="50" height="50" relative="1" as="geometry">
            <mxPoint x="2720" y="646" as="sourcePoint" />
            <mxPoint x="2770" y="596" as="targetPoint" />
          </mxGeometry>
        </mxCell>
        <mxCell id="jmV42XF77DHSqQWprtIl-140" value="Print" style="rounded=1;whiteSpace=wrap;html=1;" vertex="1" parent="1">
          <mxGeometry x="2280" y="595" width="80" height="40" as="geometry" />
        </mxCell>
        <mxCell id="jmV42XF77DHSqQWprtIl-141" value="" style="endArrow=none;html=1;rounded=0;exitX=0.5;exitY=0;exitDx=0;exitDy=0;entryX=0.5;entryY=1;entryDx=0;entryDy=0;" edge="1" parent="1" source="jmV42XF77DHSqQWprtIl-140">
          <mxGeometry width="50" height="50" relative="1" as="geometry">
            <mxPoint x="2520" y="435" as="sourcePoint" />
            <mxPoint x="2320" y="574" as="targetPoint" />
          </mxGeometry>
        </mxCell>
        <mxCell id="jmV42XF77DHSqQWprtIl-142" value="Options" style="swimlane;fontStyle=0;childLayout=stackLayout;horizontal=1;startSize=30;horizontalStack=0;resizeParent=1;resizeParentMax=0;resizeLast=0;collapsible=1;marginBottom=0;whiteSpace=wrap;html=1;" vertex="1" parent="1">
          <mxGeometry x="2280" y="655" width="80" height="120" as="geometry">
            <mxRectangle x="480" y="450" width="80" height="30" as="alternateBounds" />
          </mxGeometry>
        </mxCell>
        <mxCell id="jmV42XF77DHSqQWprtIl-143" value="Definitions" style="text;strokeColor=none;fillColor=none;align=left;verticalAlign=middle;spacingLeft=4;spacingRight=4;overflow=hidden;points=[[0,0.5],[1,0.5]];portConstraint=eastwest;rotatable=0;whiteSpace=wrap;html=1;" vertex="1" parent="jmV42XF77DHSqQWprtIl-142">
          <mxGeometry y="30" width="80" height="30" as="geometry" />
        </mxCell>
        <mxCell id="jmV42XF77DHSqQWprtIl-144" value="Eng --&amp;gt; Esp" style="text;strokeColor=none;fillColor=none;align=left;verticalAlign=middle;spacingLeft=4;spacingRight=4;overflow=hidden;points=[[0,0.5],[1,0.5]];portConstraint=eastwest;rotatable=0;whiteSpace=wrap;html=1;" vertex="1" parent="jmV42XF77DHSqQWprtIl-142">
          <mxGeometry y="60" width="80" height="30" as="geometry" />
        </mxCell>
        <mxCell id="jmV42XF77DHSqQWprtIl-145" value="Esp --&amp;gt; Eng" style="text;strokeColor=none;fillColor=none;align=left;verticalAlign=middle;spacingLeft=4;spacingRight=4;overflow=hidden;points=[[0,0.5],[1,0.5]];portConstraint=eastwest;rotatable=0;whiteSpace=wrap;html=1;" vertex="1" parent="jmV42XF77DHSqQWprtIl-142">
          <mxGeometry y="90" width="80" height="30" as="geometry" />
        </mxCell>
        <mxCell id="jmV42XF77DHSqQWprtIl-146" value="" style="endArrow=none;html=1;rounded=0;exitX=0.5;exitY=0;exitDx=0;exitDy=0;entryX=0.5;entryY=1;entryDx=0;entryDy=0;" edge="1" parent="1" source="jmV42XF77DHSqQWprtIl-142" target="jmV42XF77DHSqQWprtIl-140">
          <mxGeometry width="50" height="50" relative="1" as="geometry">
            <mxPoint x="2810" y="645" as="sourcePoint" />
            <mxPoint x="2860" y="595" as="targetPoint" />
          </mxGeometry>
        </mxCell>
        <mxCell id="jmV42XF77DHSqQWprtIl-147" value="Print" style="rounded=1;whiteSpace=wrap;html=1;" vertex="1" parent="1">
          <mxGeometry x="2370" y="595" width="80" height="40" as="geometry" />
        </mxCell>
        <mxCell id="jmV42XF77DHSqQWprtIl-148" value="" style="endArrow=none;html=1;rounded=0;exitX=0.5;exitY=0;exitDx=0;exitDy=0;entryX=0.5;entryY=1;entryDx=0;entryDy=0;" edge="1" parent="1" source="jmV42XF77DHSqQWprtIl-147">
          <mxGeometry width="50" height="50" relative="1" as="geometry">
            <mxPoint x="2610" y="435" as="sourcePoint" />
            <mxPoint x="2410" y="574" as="targetPoint" />
          </mxGeometry>
        </mxCell>
        <mxCell id="jmV42XF77DHSqQWprtIl-149" value="Options" style="swimlane;fontStyle=0;childLayout=stackLayout;horizontal=1;startSize=30;horizontalStack=0;resizeParent=1;resizeParentMax=0;resizeLast=0;collapsible=1;marginBottom=0;whiteSpace=wrap;html=1;" vertex="1" parent="1">
          <mxGeometry x="2370" y="655" width="80" height="120" as="geometry">
            <mxRectangle x="480" y="450" width="80" height="30" as="alternateBounds" />
          </mxGeometry>
        </mxCell>
        <mxCell id="jmV42XF77DHSqQWprtIl-150" value="Definitions" style="text;strokeColor=none;fillColor=none;align=left;verticalAlign=middle;spacingLeft=4;spacingRight=4;overflow=hidden;points=[[0,0.5],[1,0.5]];portConstraint=eastwest;rotatable=0;whiteSpace=wrap;html=1;" vertex="1" parent="jmV42XF77DHSqQWprtIl-149">
          <mxGeometry y="30" width="80" height="30" as="geometry" />
        </mxCell>
        <mxCell id="jmV42XF77DHSqQWprtIl-151" value="Eng --&amp;gt; Esp" style="text;strokeColor=none;fillColor=none;align=left;verticalAlign=middle;spacingLeft=4;spacingRight=4;overflow=hidden;points=[[0,0.5],[1,0.5]];portConstraint=eastwest;rotatable=0;whiteSpace=wrap;html=1;" vertex="1" parent="jmV42XF77DHSqQWprtIl-149">
          <mxGeometry y="60" width="80" height="30" as="geometry" />
        </mxCell>
        <mxCell id="jmV42XF77DHSqQWprtIl-152" value="Esp --&amp;gt; Eng" style="text;strokeColor=none;fillColor=none;align=left;verticalAlign=middle;spacingLeft=4;spacingRight=4;overflow=hidden;points=[[0,0.5],[1,0.5]];portConstraint=eastwest;rotatable=0;whiteSpace=wrap;html=1;" vertex="1" parent="jmV42XF77DHSqQWprtIl-149">
          <mxGeometry y="90" width="80" height="30" as="geometry" />
        </mxCell>
        <mxCell id="jmV42XF77DHSqQWprtIl-153" value="" style="endArrow=none;html=1;rounded=0;exitX=0.5;exitY=0;exitDx=0;exitDy=0;entryX=0.5;entryY=1;entryDx=0;entryDy=0;" edge="1" parent="1" source="jmV42XF77DHSqQWprtIl-149" target="jmV42XF77DHSqQWprtIl-147">
          <mxGeometry width="50" height="50" relative="1" as="geometry">
            <mxPoint x="2900" y="645" as="sourcePoint" />
            <mxPoint x="2950" y="595" as="targetPoint" />
          </mxGeometry>
        </mxCell>
        <mxCell id="jmV42XF77DHSqQWprtIl-154" value="Print" style="rounded=1;whiteSpace=wrap;html=1;" vertex="1" parent="1">
          <mxGeometry x="2460" y="595" width="80" height="40" as="geometry" />
        </mxCell>
        <mxCell id="jmV42XF77DHSqQWprtIl-155" value="" style="endArrow=none;html=1;rounded=0;exitX=0.5;exitY=0;exitDx=0;exitDy=0;entryX=0.5;entryY=1;entryDx=0;entryDy=0;" edge="1" parent="1" source="jmV42XF77DHSqQWprtIl-154">
          <mxGeometry width="50" height="50" relative="1" as="geometry">
            <mxPoint x="2700" y="435" as="sourcePoint" />
            <mxPoint x="2500" y="574" as="targetPoint" />
          </mxGeometry>
        </mxCell>
        <mxCell id="jmV42XF77DHSqQWprtIl-156" value="Options" style="swimlane;fontStyle=0;childLayout=stackLayout;horizontal=1;startSize=30;horizontalStack=0;resizeParent=1;resizeParentMax=0;resizeLast=0;collapsible=1;marginBottom=0;whiteSpace=wrap;html=1;" vertex="1" parent="1">
          <mxGeometry x="2460" y="655" width="80" height="120" as="geometry">
            <mxRectangle x="480" y="450" width="80" height="30" as="alternateBounds" />
          </mxGeometry>
        </mxCell>
        <mxCell id="jmV42XF77DHSqQWprtIl-157" value="Definitions" style="text;strokeColor=none;fillColor=none;align=left;verticalAlign=middle;spacingLeft=4;spacingRight=4;overflow=hidden;points=[[0,0.5],[1,0.5]];portConstraint=eastwest;rotatable=0;whiteSpace=wrap;html=1;" vertex="1" parent="jmV42XF77DHSqQWprtIl-156">
          <mxGeometry y="30" width="80" height="30" as="geometry" />
        </mxCell>
        <mxCell id="jmV42XF77DHSqQWprtIl-158" value="Eng --&amp;gt; Esp" style="text;strokeColor=none;fillColor=none;align=left;verticalAlign=middle;spacingLeft=4;spacingRight=4;overflow=hidden;points=[[0,0.5],[1,0.5]];portConstraint=eastwest;rotatable=0;whiteSpace=wrap;html=1;" vertex="1" parent="jmV42XF77DHSqQWprtIl-156">
          <mxGeometry y="60" width="80" height="30" as="geometry" />
        </mxCell>
        <mxCell id="jmV42XF77DHSqQWprtIl-159" value="Esp --&amp;gt; Eng" style="text;strokeColor=none;fillColor=none;align=left;verticalAlign=middle;spacingLeft=4;spacingRight=4;overflow=hidden;points=[[0,0.5],[1,0.5]];portConstraint=eastwest;rotatable=0;whiteSpace=wrap;html=1;" vertex="1" parent="jmV42XF77DHSqQWprtIl-156">
          <mxGeometry y="90" width="80" height="30" as="geometry" />
        </mxCell>
        <mxCell id="jmV42XF77DHSqQWprtIl-160" value="" style="endArrow=none;html=1;rounded=0;exitX=0.5;exitY=0;exitDx=0;exitDy=0;entryX=0.5;entryY=1;entryDx=0;entryDy=0;" edge="1" parent="1" source="jmV42XF77DHSqQWprtIl-156" target="jmV42XF77DHSqQWprtIl-154">
          <mxGeometry width="50" height="50" relative="1" as="geometry">
            <mxPoint x="2990" y="645" as="sourcePoint" />
            <mxPoint x="3040" y="595" as="targetPoint" />
          </mxGeometry>
        </mxCell>
        <mxCell id="jmV42XF77DHSqQWprtIl-161" value="Print" style="rounded=1;whiteSpace=wrap;html=1;" vertex="1" parent="1">
          <mxGeometry x="2550" y="595" width="80" height="40" as="geometry" />
        </mxCell>
        <mxCell id="jmV42XF77DHSqQWprtIl-162" value="" style="endArrow=none;html=1;rounded=0;exitX=0.5;exitY=0;exitDx=0;exitDy=0;entryX=0.5;entryY=1;entryDx=0;entryDy=0;" edge="1" parent="1" source="jmV42XF77DHSqQWprtIl-161">
          <mxGeometry width="50" height="50" relative="1" as="geometry">
            <mxPoint x="2790" y="435" as="sourcePoint" />
            <mxPoint x="2590" y="574" as="targetPoint" />
          </mxGeometry>
        </mxCell>
        <mxCell id="jmV42XF77DHSqQWprtIl-163" value="Options" style="swimlane;fontStyle=0;childLayout=stackLayout;horizontal=1;startSize=30;horizontalStack=0;resizeParent=1;resizeParentMax=0;resizeLast=0;collapsible=1;marginBottom=0;whiteSpace=wrap;html=1;" vertex="1" parent="1">
          <mxGeometry x="2550" y="655" width="80" height="120" as="geometry">
            <mxRectangle x="480" y="450" width="80" height="30" as="alternateBounds" />
          </mxGeometry>
        </mxCell>
        <mxCell id="jmV42XF77DHSqQWprtIl-164" value="Definitions" style="text;strokeColor=none;fillColor=none;align=left;verticalAlign=middle;spacingLeft=4;spacingRight=4;overflow=hidden;points=[[0,0.5],[1,0.5]];portConstraint=eastwest;rotatable=0;whiteSpace=wrap;html=1;" vertex="1" parent="jmV42XF77DHSqQWprtIl-163">
          <mxGeometry y="30" width="80" height="30" as="geometry" />
        </mxCell>
        <mxCell id="jmV42XF77DHSqQWprtIl-165" value="Eng --&amp;gt; Esp" style="text;strokeColor=none;fillColor=none;align=left;verticalAlign=middle;spacingLeft=4;spacingRight=4;overflow=hidden;points=[[0,0.5],[1,0.5]];portConstraint=eastwest;rotatable=0;whiteSpace=wrap;html=1;" vertex="1" parent="jmV42XF77DHSqQWprtIl-163">
          <mxGeometry y="60" width="80" height="30" as="geometry" />
        </mxCell>
        <mxCell id="jmV42XF77DHSqQWprtIl-166" value="Esp --&amp;gt; Eng" style="text;strokeColor=none;fillColor=none;align=left;verticalAlign=middle;spacingLeft=4;spacingRight=4;overflow=hidden;points=[[0,0.5],[1,0.5]];portConstraint=eastwest;rotatable=0;whiteSpace=wrap;html=1;" vertex="1" parent="jmV42XF77DHSqQWprtIl-163">
          <mxGeometry y="90" width="80" height="30" as="geometry" />
        </mxCell>
        <mxCell id="jmV42XF77DHSqQWprtIl-167" value="" style="endArrow=none;html=1;rounded=0;exitX=0.5;exitY=0;exitDx=0;exitDy=0;entryX=0.5;entryY=1;entryDx=0;entryDy=0;" edge="1" parent="1" source="jmV42XF77DHSqQWprtIl-163" target="jmV42XF77DHSqQWprtIl-161">
          <mxGeometry width="50" height="50" relative="1" as="geometry">
            <mxPoint x="3080" y="645" as="sourcePoint" />
            <mxPoint x="3130" y="595" as="targetPoint" />
          </mxGeometry>
        </mxCell>
        <mxCell id="jmV42XF77DHSqQWprtIl-168" value="Print" style="rounded=1;whiteSpace=wrap;html=1;" vertex="1" parent="1">
          <mxGeometry x="2640" y="595" width="80" height="40" as="geometry" />
        </mxCell>
        <mxCell id="jmV42XF77DHSqQWprtIl-169" value="" style="endArrow=none;html=1;rounded=0;exitX=0.5;exitY=0;exitDx=0;exitDy=0;entryX=0.5;entryY=1;entryDx=0;entryDy=0;" edge="1" parent="1" source="jmV42XF77DHSqQWprtIl-168">
          <mxGeometry width="50" height="50" relative="1" as="geometry">
            <mxPoint x="2880" y="435" as="sourcePoint" />
            <mxPoint x="2680" y="574" as="targetPoint" />
          </mxGeometry>
        </mxCell>
        <mxCell id="jmV42XF77DHSqQWprtIl-170" value="Options" style="swimlane;fontStyle=0;childLayout=stackLayout;horizontal=1;startSize=30;horizontalStack=0;resizeParent=1;resizeParentMax=0;resizeLast=0;collapsible=1;marginBottom=0;whiteSpace=wrap;html=1;" vertex="1" parent="1">
          <mxGeometry x="2640" y="655" width="80" height="120" as="geometry">
            <mxRectangle x="480" y="450" width="80" height="30" as="alternateBounds" />
          </mxGeometry>
        </mxCell>
        <mxCell id="jmV42XF77DHSqQWprtIl-171" value="Definitions" style="text;strokeColor=none;fillColor=none;align=left;verticalAlign=middle;spacingLeft=4;spacingRight=4;overflow=hidden;points=[[0,0.5],[1,0.5]];portConstraint=eastwest;rotatable=0;whiteSpace=wrap;html=1;" vertex="1" parent="jmV42XF77DHSqQWprtIl-170">
          <mxGeometry y="30" width="80" height="30" as="geometry" />
        </mxCell>
        <mxCell id="jmV42XF77DHSqQWprtIl-172" value="Eng --&amp;gt; Esp" style="text;strokeColor=none;fillColor=none;align=left;verticalAlign=middle;spacingLeft=4;spacingRight=4;overflow=hidden;points=[[0,0.5],[1,0.5]];portConstraint=eastwest;rotatable=0;whiteSpace=wrap;html=1;" vertex="1" parent="jmV42XF77DHSqQWprtIl-170">
          <mxGeometry y="60" width="80" height="30" as="geometry" />
        </mxCell>
        <mxCell id="jmV42XF77DHSqQWprtIl-173" value="Esp --&amp;gt; Eng" style="text;strokeColor=none;fillColor=none;align=left;verticalAlign=middle;spacingLeft=4;spacingRight=4;overflow=hidden;points=[[0,0.5],[1,0.5]];portConstraint=eastwest;rotatable=0;whiteSpace=wrap;html=1;" vertex="1" parent="jmV42XF77DHSqQWprtIl-170">
          <mxGeometry y="90" width="80" height="30" as="geometry" />
        </mxCell>
        <mxCell id="jmV42XF77DHSqQWprtIl-174" value="" style="endArrow=none;html=1;rounded=0;exitX=0.5;exitY=0;exitDx=0;exitDy=0;entryX=0.5;entryY=1;entryDx=0;entryDy=0;" edge="1" parent="1" source="jmV42XF77DHSqQWprtIl-170" target="jmV42XF77DHSqQWprtIl-168">
          <mxGeometry width="50" height="50" relative="1" as="geometry">
            <mxPoint x="3170" y="645" as="sourcePoint" />
            <mxPoint x="3220" y="595" as="targetPoint" />
          </mxGeometry>
        </mxCell>
        <mxCell id="jmV42XF77DHSqQWprtIl-175" value="Print" style="rounded=1;whiteSpace=wrap;html=1;" vertex="1" parent="1">
          <mxGeometry x="2730" y="595" width="80" height="40" as="geometry" />
        </mxCell>
        <mxCell id="jmV42XF77DHSqQWprtIl-176" value="" style="endArrow=none;html=1;rounded=0;exitX=0.5;exitY=0;exitDx=0;exitDy=0;entryX=0.5;entryY=1;entryDx=0;entryDy=0;" edge="1" parent="1" source="jmV42XF77DHSqQWprtIl-175">
          <mxGeometry width="50" height="50" relative="1" as="geometry">
            <mxPoint x="2970" y="435" as="sourcePoint" />
            <mxPoint x="2770" y="574" as="targetPoint" />
          </mxGeometry>
        </mxCell>
        <mxCell id="jmV42XF77DHSqQWprtIl-177" value="Options" style="swimlane;fontStyle=0;childLayout=stackLayout;horizontal=1;startSize=30;horizontalStack=0;resizeParent=1;resizeParentMax=0;resizeLast=0;collapsible=1;marginBottom=0;whiteSpace=wrap;html=1;" vertex="1" parent="1">
          <mxGeometry x="2730" y="655" width="80" height="120" as="geometry">
            <mxRectangle x="480" y="450" width="80" height="30" as="alternateBounds" />
          </mxGeometry>
        </mxCell>
        <mxCell id="jmV42XF77DHSqQWprtIl-178" value="Definitions" style="text;strokeColor=none;fillColor=none;align=left;verticalAlign=middle;spacingLeft=4;spacingRight=4;overflow=hidden;points=[[0,0.5],[1,0.5]];portConstraint=eastwest;rotatable=0;whiteSpace=wrap;html=1;" vertex="1" parent="jmV42XF77DHSqQWprtIl-177">
          <mxGeometry y="30" width="80" height="30" as="geometry" />
        </mxCell>
        <mxCell id="jmV42XF77DHSqQWprtIl-179" value="Eng --&amp;gt; Esp" style="text;strokeColor=none;fillColor=none;align=left;verticalAlign=middle;spacingLeft=4;spacingRight=4;overflow=hidden;points=[[0,0.5],[1,0.5]];portConstraint=eastwest;rotatable=0;whiteSpace=wrap;html=1;" vertex="1" parent="jmV42XF77DHSqQWprtIl-177">
          <mxGeometry y="60" width="80" height="30" as="geometry" />
        </mxCell>
        <mxCell id="jmV42XF77DHSqQWprtIl-180" value="Esp --&amp;gt; Eng" style="text;strokeColor=none;fillColor=none;align=left;verticalAlign=middle;spacingLeft=4;spacingRight=4;overflow=hidden;points=[[0,0.5],[1,0.5]];portConstraint=eastwest;rotatable=0;whiteSpace=wrap;html=1;" vertex="1" parent="jmV42XF77DHSqQWprtIl-177">
          <mxGeometry y="90" width="80" height="30" as="geometry" />
        </mxCell>
        <mxCell id="jmV42XF77DHSqQWprtIl-181" value="" style="endArrow=none;html=1;rounded=0;exitX=0.5;exitY=0;exitDx=0;exitDy=0;entryX=0.5;entryY=1;entryDx=0;entryDy=0;" edge="1" parent="1" source="jmV42XF77DHSqQWprtIl-177" target="jmV42XF77DHSqQWprtIl-175">
          <mxGeometry width="50" height="50" relative="1" as="geometry">
            <mxPoint x="3260" y="645" as="sourcePoint" />
            <mxPoint x="3310" y="595" as="targetPoint" />
          </mxGeometry>
        </mxCell>
        <mxCell id="jmV42XF77DHSqQWprtIl-182" value="Print" style="rounded=1;whiteSpace=wrap;html=1;" vertex="1" parent="1">
          <mxGeometry x="2820" y="595" width="80" height="40" as="geometry" />
        </mxCell>
        <mxCell id="jmV42XF77DHSqQWprtIl-183" value="" style="endArrow=none;html=1;rounded=0;exitX=0.5;exitY=0;exitDx=0;exitDy=0;entryX=0.5;entryY=1;entryDx=0;entryDy=0;" edge="1" parent="1" source="jmV42XF77DHSqQWprtIl-182">
          <mxGeometry width="50" height="50" relative="1" as="geometry">
            <mxPoint x="3060" y="435" as="sourcePoint" />
            <mxPoint x="2860" y="574" as="targetPoint" />
          </mxGeometry>
        </mxCell>
        <mxCell id="jmV42XF77DHSqQWprtIl-184" value="Options" style="swimlane;fontStyle=0;childLayout=stackLayout;horizontal=1;startSize=30;horizontalStack=0;resizeParent=1;resizeParentMax=0;resizeLast=0;collapsible=1;marginBottom=0;whiteSpace=wrap;html=1;" vertex="1" parent="1">
          <mxGeometry x="2820" y="655" width="80" height="120" as="geometry">
            <mxRectangle x="480" y="450" width="80" height="30" as="alternateBounds" />
          </mxGeometry>
        </mxCell>
        <mxCell id="jmV42XF77DHSqQWprtIl-185" value="Definitions" style="text;strokeColor=none;fillColor=none;align=left;verticalAlign=middle;spacingLeft=4;spacingRight=4;overflow=hidden;points=[[0,0.5],[1,0.5]];portConstraint=eastwest;rotatable=0;whiteSpace=wrap;html=1;" vertex="1" parent="jmV42XF77DHSqQWprtIl-184">
          <mxGeometry y="30" width="80" height="30" as="geometry" />
        </mxCell>
        <mxCell id="jmV42XF77DHSqQWprtIl-186" value="Eng --&amp;gt; Esp" style="text;strokeColor=none;fillColor=none;align=left;verticalAlign=middle;spacingLeft=4;spacingRight=4;overflow=hidden;points=[[0,0.5],[1,0.5]];portConstraint=eastwest;rotatable=0;whiteSpace=wrap;html=1;" vertex="1" parent="jmV42XF77DHSqQWprtIl-184">
          <mxGeometry y="60" width="80" height="30" as="geometry" />
        </mxCell>
        <mxCell id="jmV42XF77DHSqQWprtIl-187" value="Esp --&amp;gt; Eng" style="text;strokeColor=none;fillColor=none;align=left;verticalAlign=middle;spacingLeft=4;spacingRight=4;overflow=hidden;points=[[0,0.5],[1,0.5]];portConstraint=eastwest;rotatable=0;whiteSpace=wrap;html=1;" vertex="1" parent="jmV42XF77DHSqQWprtIl-184">
          <mxGeometry y="90" width="80" height="30" as="geometry" />
        </mxCell>
        <mxCell id="jmV42XF77DHSqQWprtIl-188" value="" style="endArrow=none;html=1;rounded=0;exitX=0.5;exitY=0;exitDx=0;exitDy=0;entryX=0.5;entryY=1;entryDx=0;entryDy=0;" edge="1" parent="1" source="jmV42XF77DHSqQWprtIl-184" target="jmV42XF77DHSqQWprtIl-182">
          <mxGeometry width="50" height="50" relative="1" as="geometry">
            <mxPoint x="3350" y="645" as="sourcePoint" />
            <mxPoint x="3400" y="595" as="targetPoint" />
          </mxGeometry>
        </mxCell>
        <mxCell id="jmV42XF77DHSqQWprtIl-189" value="Print" style="rounded=1;whiteSpace=wrap;html=1;" vertex="1" parent="1">
          <mxGeometry x="2910" y="595" width="80" height="40" as="geometry" />
        </mxCell>
        <mxCell id="jmV42XF77DHSqQWprtIl-190" value="" style="endArrow=none;html=1;rounded=0;exitX=0.5;exitY=0;exitDx=0;exitDy=0;entryX=0.5;entryY=1;entryDx=0;entryDy=0;" edge="1" parent="1" source="jmV42XF77DHSqQWprtIl-189">
          <mxGeometry width="50" height="50" relative="1" as="geometry">
            <mxPoint x="3150" y="435" as="sourcePoint" />
            <mxPoint x="2950" y="574" as="targetPoint" />
          </mxGeometry>
        </mxCell>
        <mxCell id="jmV42XF77DHSqQWprtIl-191" value="Options" style="swimlane;fontStyle=0;childLayout=stackLayout;horizontal=1;startSize=30;horizontalStack=0;resizeParent=1;resizeParentMax=0;resizeLast=0;collapsible=1;marginBottom=0;whiteSpace=wrap;html=1;" vertex="1" parent="1">
          <mxGeometry x="2910" y="655" width="80" height="120" as="geometry">
            <mxRectangle x="480" y="450" width="80" height="30" as="alternateBounds" />
          </mxGeometry>
        </mxCell>
        <mxCell id="jmV42XF77DHSqQWprtIl-192" value="Definitions" style="text;strokeColor=none;fillColor=none;align=left;verticalAlign=middle;spacingLeft=4;spacingRight=4;overflow=hidden;points=[[0,0.5],[1,0.5]];portConstraint=eastwest;rotatable=0;whiteSpace=wrap;html=1;" vertex="1" parent="jmV42XF77DHSqQWprtIl-191">
          <mxGeometry y="30" width="80" height="30" as="geometry" />
        </mxCell>
        <mxCell id="jmV42XF77DHSqQWprtIl-193" value="Eng --&amp;gt; Esp" style="text;strokeColor=none;fillColor=none;align=left;verticalAlign=middle;spacingLeft=4;spacingRight=4;overflow=hidden;points=[[0,0.5],[1,0.5]];portConstraint=eastwest;rotatable=0;whiteSpace=wrap;html=1;" vertex="1" parent="jmV42XF77DHSqQWprtIl-191">
          <mxGeometry y="60" width="80" height="30" as="geometry" />
        </mxCell>
        <mxCell id="jmV42XF77DHSqQWprtIl-194" value="Esp --&amp;gt; Eng" style="text;strokeColor=none;fillColor=none;align=left;verticalAlign=middle;spacingLeft=4;spacingRight=4;overflow=hidden;points=[[0,0.5],[1,0.5]];portConstraint=eastwest;rotatable=0;whiteSpace=wrap;html=1;" vertex="1" parent="jmV42XF77DHSqQWprtIl-191">
          <mxGeometry y="90" width="80" height="30" as="geometry" />
        </mxCell>
        <mxCell id="jmV42XF77DHSqQWprtIl-195" value="" style="endArrow=none;html=1;rounded=0;exitX=0.5;exitY=0;exitDx=0;exitDy=0;entryX=0.5;entryY=1;entryDx=0;entryDy=0;" edge="1" parent="1" source="jmV42XF77DHSqQWprtIl-191" target="jmV42XF77DHSqQWprtIl-189">
          <mxGeometry width="50" height="50" relative="1" as="geometry">
            <mxPoint x="3440" y="645" as="sourcePoint" />
            <mxPoint x="3490" y="595" as="targetPoint" />
          </mxGeometry>
        </mxCell>
        <mxCell id="jmV42XF77DHSqQWprtIl-196" value="Print" style="rounded=1;whiteSpace=wrap;html=1;" vertex="1" parent="1">
          <mxGeometry x="3000" y="595" width="80" height="40" as="geometry" />
        </mxCell>
        <mxCell id="jmV42XF77DHSqQWprtIl-197" value="" style="endArrow=none;html=1;rounded=0;exitX=0.5;exitY=0;exitDx=0;exitDy=0;entryX=0.5;entryY=1;entryDx=0;entryDy=0;" edge="1" parent="1" source="jmV42XF77DHSqQWprtIl-196">
          <mxGeometry width="50" height="50" relative="1" as="geometry">
            <mxPoint x="3240" y="435" as="sourcePoint" />
            <mxPoint x="3040" y="574" as="targetPoint" />
          </mxGeometry>
        </mxCell>
        <mxCell id="jmV42XF77DHSqQWprtIl-198" value="Options" style="swimlane;fontStyle=0;childLayout=stackLayout;horizontal=1;startSize=30;horizontalStack=0;resizeParent=1;resizeParentMax=0;resizeLast=0;collapsible=1;marginBottom=0;whiteSpace=wrap;html=1;" vertex="1" parent="1">
          <mxGeometry x="3000" y="655" width="80" height="120" as="geometry">
            <mxRectangle x="480" y="450" width="80" height="30" as="alternateBounds" />
          </mxGeometry>
        </mxCell>
        <mxCell id="jmV42XF77DHSqQWprtIl-199" value="Definitions" style="text;strokeColor=none;fillColor=none;align=left;verticalAlign=middle;spacingLeft=4;spacingRight=4;overflow=hidden;points=[[0,0.5],[1,0.5]];portConstraint=eastwest;rotatable=0;whiteSpace=wrap;html=1;" vertex="1" parent="jmV42XF77DHSqQWprtIl-198">
          <mxGeometry y="30" width="80" height="30" as="geometry" />
        </mxCell>
        <mxCell id="jmV42XF77DHSqQWprtIl-200" value="Eng --&amp;gt; Esp" style="text;strokeColor=none;fillColor=none;align=left;verticalAlign=middle;spacingLeft=4;spacingRight=4;overflow=hidden;points=[[0,0.5],[1,0.5]];portConstraint=eastwest;rotatable=0;whiteSpace=wrap;html=1;" vertex="1" parent="jmV42XF77DHSqQWprtIl-198">
          <mxGeometry y="60" width="80" height="30" as="geometry" />
        </mxCell>
        <mxCell id="jmV42XF77DHSqQWprtIl-201" value="Esp --&amp;gt; Eng" style="text;strokeColor=none;fillColor=none;align=left;verticalAlign=middle;spacingLeft=4;spacingRight=4;overflow=hidden;points=[[0,0.5],[1,0.5]];portConstraint=eastwest;rotatable=0;whiteSpace=wrap;html=1;" vertex="1" parent="jmV42XF77DHSqQWprtIl-198">
          <mxGeometry y="90" width="80" height="30" as="geometry" />
        </mxCell>
        <mxCell id="jmV42XF77DHSqQWprtIl-202" value="" style="endArrow=none;html=1;rounded=0;exitX=0.5;exitY=0;exitDx=0;exitDy=0;entryX=0.5;entryY=1;entryDx=0;entryDy=0;" edge="1" parent="1" source="jmV42XF77DHSqQWprtIl-198" target="jmV42XF77DHSqQWprtIl-196">
          <mxGeometry width="50" height="50" relative="1" as="geometry">
            <mxPoint x="3530" y="645" as="sourcePoint" />
            <mxPoint x="3580" y="595" as="targetPoint" />
          </mxGeometry>
        </mxCell>
        <mxCell id="jmV42XF77DHSqQWprtIl-203" value="Print" style="rounded=1;whiteSpace=wrap;html=1;" vertex="1" parent="1">
          <mxGeometry x="3090" y="595" width="80" height="40" as="geometry" />
        </mxCell>
        <mxCell id="jmV42XF77DHSqQWprtIl-204" value="" style="endArrow=none;html=1;rounded=0;exitX=0.5;exitY=0;exitDx=0;exitDy=0;entryX=0.5;entryY=1;entryDx=0;entryDy=0;" edge="1" parent="1" source="jmV42XF77DHSqQWprtIl-203">
          <mxGeometry width="50" height="50" relative="1" as="geometry">
            <mxPoint x="3330" y="435" as="sourcePoint" />
            <mxPoint x="3130" y="574" as="targetPoint" />
          </mxGeometry>
        </mxCell>
        <mxCell id="jmV42XF77DHSqQWprtIl-205" value="Options" style="swimlane;fontStyle=0;childLayout=stackLayout;horizontal=1;startSize=30;horizontalStack=0;resizeParent=1;resizeParentMax=0;resizeLast=0;collapsible=1;marginBottom=0;whiteSpace=wrap;html=1;" vertex="1" parent="1">
          <mxGeometry x="3090" y="655" width="80" height="120" as="geometry">
            <mxRectangle x="480" y="450" width="80" height="30" as="alternateBounds" />
          </mxGeometry>
        </mxCell>
        <mxCell id="jmV42XF77DHSqQWprtIl-206" value="Definitions" style="text;strokeColor=none;fillColor=none;align=left;verticalAlign=middle;spacingLeft=4;spacingRight=4;overflow=hidden;points=[[0,0.5],[1,0.5]];portConstraint=eastwest;rotatable=0;whiteSpace=wrap;html=1;" vertex="1" parent="jmV42XF77DHSqQWprtIl-205">
          <mxGeometry y="30" width="80" height="30" as="geometry" />
        </mxCell>
        <mxCell id="jmV42XF77DHSqQWprtIl-207" value="Eng --&amp;gt; Esp" style="text;strokeColor=none;fillColor=none;align=left;verticalAlign=middle;spacingLeft=4;spacingRight=4;overflow=hidden;points=[[0,0.5],[1,0.5]];portConstraint=eastwest;rotatable=0;whiteSpace=wrap;html=1;" vertex="1" parent="jmV42XF77DHSqQWprtIl-205">
          <mxGeometry y="60" width="80" height="30" as="geometry" />
        </mxCell>
        <mxCell id="jmV42XF77DHSqQWprtIl-208" value="Esp --&amp;gt; Eng" style="text;strokeColor=none;fillColor=none;align=left;verticalAlign=middle;spacingLeft=4;spacingRight=4;overflow=hidden;points=[[0,0.5],[1,0.5]];portConstraint=eastwest;rotatable=0;whiteSpace=wrap;html=1;" vertex="1" parent="jmV42XF77DHSqQWprtIl-205">
          <mxGeometry y="90" width="80" height="30" as="geometry" />
        </mxCell>
        <mxCell id="jmV42XF77DHSqQWprtIl-209" value="" style="endArrow=none;html=1;rounded=0;exitX=0.5;exitY=0;exitDx=0;exitDy=0;entryX=0.5;entryY=1;entryDx=0;entryDy=0;" edge="1" parent="1" source="jmV42XF77DHSqQWprtIl-205" target="jmV42XF77DHSqQWprtIl-203">
          <mxGeometry width="50" height="50" relative="1" as="geometry">
            <mxPoint x="3620" y="645" as="sourcePoint" />
            <mxPoint x="3670" y="595" as="targetPoint" />
          </mxGeometry>
        </mxCell>
        <mxCell id="jmV42XF77DHSqQWprtIl-210" value="Print" style="rounded=1;whiteSpace=wrap;html=1;" vertex="1" parent="1">
          <mxGeometry x="3180" y="595" width="80" height="40" as="geometry" />
        </mxCell>
        <mxCell id="jmV42XF77DHSqQWprtIl-211" value="" style="endArrow=none;html=1;rounded=0;exitX=0.5;exitY=0;exitDx=0;exitDy=0;entryX=0.5;entryY=1;entryDx=0;entryDy=0;" edge="1" parent="1" source="jmV42XF77DHSqQWprtIl-210">
          <mxGeometry width="50" height="50" relative="1" as="geometry">
            <mxPoint x="3420" y="435" as="sourcePoint" />
            <mxPoint x="3220" y="574" as="targetPoint" />
          </mxGeometry>
        </mxCell>
        <mxCell id="jmV42XF77DHSqQWprtIl-212" value="Options" style="swimlane;fontStyle=0;childLayout=stackLayout;horizontal=1;startSize=30;horizontalStack=0;resizeParent=1;resizeParentMax=0;resizeLast=0;collapsible=1;marginBottom=0;whiteSpace=wrap;html=1;" vertex="1" parent="1">
          <mxGeometry x="3180" y="655" width="80" height="120" as="geometry">
            <mxRectangle x="480" y="450" width="80" height="30" as="alternateBounds" />
          </mxGeometry>
        </mxCell>
        <mxCell id="jmV42XF77DHSqQWprtIl-213" value="Definitions" style="text;strokeColor=none;fillColor=none;align=left;verticalAlign=middle;spacingLeft=4;spacingRight=4;overflow=hidden;points=[[0,0.5],[1,0.5]];portConstraint=eastwest;rotatable=0;whiteSpace=wrap;html=1;" vertex="1" parent="jmV42XF77DHSqQWprtIl-212">
          <mxGeometry y="30" width="80" height="30" as="geometry" />
        </mxCell>
        <mxCell id="jmV42XF77DHSqQWprtIl-214" value="Eng --&amp;gt; Esp" style="text;strokeColor=none;fillColor=none;align=left;verticalAlign=middle;spacingLeft=4;spacingRight=4;overflow=hidden;points=[[0,0.5],[1,0.5]];portConstraint=eastwest;rotatable=0;whiteSpace=wrap;html=1;" vertex="1" parent="jmV42XF77DHSqQWprtIl-212">
          <mxGeometry y="60" width="80" height="30" as="geometry" />
        </mxCell>
        <mxCell id="jmV42XF77DHSqQWprtIl-215" value="Esp --&amp;gt; Eng" style="text;strokeColor=none;fillColor=none;align=left;verticalAlign=middle;spacingLeft=4;spacingRight=4;overflow=hidden;points=[[0,0.5],[1,0.5]];portConstraint=eastwest;rotatable=0;whiteSpace=wrap;html=1;" vertex="1" parent="jmV42XF77DHSqQWprtIl-212">
          <mxGeometry y="90" width="80" height="30" as="geometry" />
        </mxCell>
        <mxCell id="jmV42XF77DHSqQWprtIl-216" value="" style="endArrow=none;html=1;rounded=0;exitX=0.5;exitY=0;exitDx=0;exitDy=0;entryX=0.5;entryY=1;entryDx=0;entryDy=0;" edge="1" parent="1" source="jmV42XF77DHSqQWprtIl-212" target="jmV42XF77DHSqQWprtIl-210">
          <mxGeometry width="50" height="50" relative="1" as="geometry">
            <mxPoint x="3710" y="645" as="sourcePoint" />
            <mxPoint x="3760" y="595" as="targetPoint" />
          </mxGeometry>
        </mxCell>
        <mxCell id="jmV42XF77DHSqQWprtIl-217" value="Print" style="rounded=1;whiteSpace=wrap;html=1;" vertex="1" parent="1">
          <mxGeometry x="3270" y="595" width="80" height="40" as="geometry" />
        </mxCell>
        <mxCell id="jmV42XF77DHSqQWprtIl-218" value="" style="endArrow=none;html=1;rounded=0;exitX=0.5;exitY=0;exitDx=0;exitDy=0;entryX=0.5;entryY=1;entryDx=0;entryDy=0;" edge="1" parent="1" source="jmV42XF77DHSqQWprtIl-217">
          <mxGeometry width="50" height="50" relative="1" as="geometry">
            <mxPoint x="3510" y="435" as="sourcePoint" />
            <mxPoint x="3310" y="574" as="targetPoint" />
          </mxGeometry>
        </mxCell>
        <mxCell id="jmV42XF77DHSqQWprtIl-219" value="Options" style="swimlane;fontStyle=0;childLayout=stackLayout;horizontal=1;startSize=30;horizontalStack=0;resizeParent=1;resizeParentMax=0;resizeLast=0;collapsible=1;marginBottom=0;whiteSpace=wrap;html=1;" vertex="1" parent="1">
          <mxGeometry x="3270" y="655" width="80" height="120" as="geometry">
            <mxRectangle x="480" y="450" width="80" height="30" as="alternateBounds" />
          </mxGeometry>
        </mxCell>
        <mxCell id="jmV42XF77DHSqQWprtIl-220" value="Definitions" style="text;strokeColor=none;fillColor=none;align=left;verticalAlign=middle;spacingLeft=4;spacingRight=4;overflow=hidden;points=[[0,0.5],[1,0.5]];portConstraint=eastwest;rotatable=0;whiteSpace=wrap;html=1;" vertex="1" parent="jmV42XF77DHSqQWprtIl-219">
          <mxGeometry y="30" width="80" height="30" as="geometry" />
        </mxCell>
        <mxCell id="jmV42XF77DHSqQWprtIl-221" value="Eng --&amp;gt; Esp" style="text;strokeColor=none;fillColor=none;align=left;verticalAlign=middle;spacingLeft=4;spacingRight=4;overflow=hidden;points=[[0,0.5],[1,0.5]];portConstraint=eastwest;rotatable=0;whiteSpace=wrap;html=1;" vertex="1" parent="jmV42XF77DHSqQWprtIl-219">
          <mxGeometry y="60" width="80" height="30" as="geometry" />
        </mxCell>
        <mxCell id="jmV42XF77DHSqQWprtIl-222" value="Esp --&amp;gt; Eng" style="text;strokeColor=none;fillColor=none;align=left;verticalAlign=middle;spacingLeft=4;spacingRight=4;overflow=hidden;points=[[0,0.5],[1,0.5]];portConstraint=eastwest;rotatable=0;whiteSpace=wrap;html=1;" vertex="1" parent="jmV42XF77DHSqQWprtIl-219">
          <mxGeometry y="90" width="80" height="30" as="geometry" />
        </mxCell>
        <mxCell id="jmV42XF77DHSqQWprtIl-223" value="" style="endArrow=none;html=1;rounded=0;exitX=0.5;exitY=0;exitDx=0;exitDy=0;entryX=0.5;entryY=1;entryDx=0;entryDy=0;" edge="1" parent="1" source="jmV42XF77DHSqQWprtIl-219" target="jmV42XF77DHSqQWprtIl-217">
          <mxGeometry width="50" height="50" relative="1" as="geometry">
            <mxPoint x="3800" y="645" as="sourcePoint" />
            <mxPoint x="3850" y="595" as="targetPoint" />
          </mxGeometry>
        </mxCell>
        <mxCell id="jmV42XF77DHSqQWprtIl-224" value="Print" style="rounded=1;whiteSpace=wrap;html=1;" vertex="1" parent="1">
          <mxGeometry x="3360" y="595" width="80" height="40" as="geometry" />
        </mxCell>
        <mxCell id="jmV42XF77DHSqQWprtIl-225" value="" style="endArrow=none;html=1;rounded=0;exitX=0.5;exitY=0;exitDx=0;exitDy=0;entryX=0.5;entryY=1;entryDx=0;entryDy=0;" edge="1" parent="1" source="jmV42XF77DHSqQWprtIl-224">
          <mxGeometry width="50" height="50" relative="1" as="geometry">
            <mxPoint x="3600" y="435" as="sourcePoint" />
            <mxPoint x="3400" y="574" as="targetPoint" />
          </mxGeometry>
        </mxCell>
        <mxCell id="jmV42XF77DHSqQWprtIl-226" value="Options" style="swimlane;fontStyle=0;childLayout=stackLayout;horizontal=1;startSize=30;horizontalStack=0;resizeParent=1;resizeParentMax=0;resizeLast=0;collapsible=1;marginBottom=0;whiteSpace=wrap;html=1;" vertex="1" parent="1">
          <mxGeometry x="3360" y="655" width="80" height="120" as="geometry">
            <mxRectangle x="480" y="450" width="80" height="30" as="alternateBounds" />
          </mxGeometry>
        </mxCell>
        <mxCell id="jmV42XF77DHSqQWprtIl-227" value="Definitions" style="text;strokeColor=none;fillColor=none;align=left;verticalAlign=middle;spacingLeft=4;spacingRight=4;overflow=hidden;points=[[0,0.5],[1,0.5]];portConstraint=eastwest;rotatable=0;whiteSpace=wrap;html=1;" vertex="1" parent="jmV42XF77DHSqQWprtIl-226">
          <mxGeometry y="30" width="80" height="30" as="geometry" />
        </mxCell>
        <mxCell id="jmV42XF77DHSqQWprtIl-228" value="Eng --&amp;gt; Esp" style="text;strokeColor=none;fillColor=none;align=left;verticalAlign=middle;spacingLeft=4;spacingRight=4;overflow=hidden;points=[[0,0.5],[1,0.5]];portConstraint=eastwest;rotatable=0;whiteSpace=wrap;html=1;" vertex="1" parent="jmV42XF77DHSqQWprtIl-226">
          <mxGeometry y="60" width="80" height="30" as="geometry" />
        </mxCell>
        <mxCell id="jmV42XF77DHSqQWprtIl-229" value="Esp --&amp;gt; Eng" style="text;strokeColor=none;fillColor=none;align=left;verticalAlign=middle;spacingLeft=4;spacingRight=4;overflow=hidden;points=[[0,0.5],[1,0.5]];portConstraint=eastwest;rotatable=0;whiteSpace=wrap;html=1;" vertex="1" parent="jmV42XF77DHSqQWprtIl-226">
          <mxGeometry y="90" width="80" height="30" as="geometry" />
        </mxCell>
        <mxCell id="jmV42XF77DHSqQWprtIl-230" value="" style="endArrow=none;html=1;rounded=0;exitX=0.5;exitY=0;exitDx=0;exitDy=0;entryX=0.5;entryY=1;entryDx=0;entryDy=0;" edge="1" parent="1" source="jmV42XF77DHSqQWprtIl-226" target="jmV42XF77DHSqQWprtIl-224">
          <mxGeometry width="50" height="50" relative="1" as="geometry">
            <mxPoint x="3890" y="645" as="sourcePoint" />
            <mxPoint x="3940" y="595" as="targetPoint" />
          </mxGeometry>
        </mxCell>
        <mxCell id="jmV42XF77DHSqQWprtIl-231" value="Print" style="rounded=1;whiteSpace=wrap;html=1;" vertex="1" parent="1">
          <mxGeometry x="3450" y="595" width="80" height="40" as="geometry" />
        </mxCell>
        <mxCell id="jmV42XF77DHSqQWprtIl-232" value="" style="endArrow=none;html=1;rounded=0;exitX=0.5;exitY=0;exitDx=0;exitDy=0;entryX=0.5;entryY=1;entryDx=0;entryDy=0;" edge="1" parent="1" source="jmV42XF77DHSqQWprtIl-231">
          <mxGeometry width="50" height="50" relative="1" as="geometry">
            <mxPoint x="3690" y="435" as="sourcePoint" />
            <mxPoint x="3490" y="574" as="targetPoint" />
          </mxGeometry>
        </mxCell>
        <mxCell id="jmV42XF77DHSqQWprtIl-233" value="Options" style="swimlane;fontStyle=0;childLayout=stackLayout;horizontal=1;startSize=30;horizontalStack=0;resizeParent=1;resizeParentMax=0;resizeLast=0;collapsible=1;marginBottom=0;whiteSpace=wrap;html=1;" vertex="1" parent="1">
          <mxGeometry x="3450" y="655" width="80" height="120" as="geometry">
            <mxRectangle x="480" y="450" width="80" height="30" as="alternateBounds" />
          </mxGeometry>
        </mxCell>
        <mxCell id="jmV42XF77DHSqQWprtIl-234" value="Definitions" style="text;strokeColor=none;fillColor=none;align=left;verticalAlign=middle;spacingLeft=4;spacingRight=4;overflow=hidden;points=[[0,0.5],[1,0.5]];portConstraint=eastwest;rotatable=0;whiteSpace=wrap;html=1;" vertex="1" parent="jmV42XF77DHSqQWprtIl-233">
          <mxGeometry y="30" width="80" height="30" as="geometry" />
        </mxCell>
        <mxCell id="jmV42XF77DHSqQWprtIl-235" value="Eng --&amp;gt; Esp" style="text;strokeColor=none;fillColor=none;align=left;verticalAlign=middle;spacingLeft=4;spacingRight=4;overflow=hidden;points=[[0,0.5],[1,0.5]];portConstraint=eastwest;rotatable=0;whiteSpace=wrap;html=1;" vertex="1" parent="jmV42XF77DHSqQWprtIl-233">
          <mxGeometry y="60" width="80" height="30" as="geometry" />
        </mxCell>
        <mxCell id="jmV42XF77DHSqQWprtIl-236" value="Esp --&amp;gt; Eng" style="text;strokeColor=none;fillColor=none;align=left;verticalAlign=middle;spacingLeft=4;spacingRight=4;overflow=hidden;points=[[0,0.5],[1,0.5]];portConstraint=eastwest;rotatable=0;whiteSpace=wrap;html=1;" vertex="1" parent="jmV42XF77DHSqQWprtIl-233">
          <mxGeometry y="90" width="80" height="30" as="geometry" />
        </mxCell>
        <mxCell id="jmV42XF77DHSqQWprtIl-237" value="" style="endArrow=none;html=1;rounded=0;exitX=0.5;exitY=0;exitDx=0;exitDy=0;entryX=0.5;entryY=1;entryDx=0;entryDy=0;" edge="1" parent="1" source="jmV42XF77DHSqQWprtIl-233" target="jmV42XF77DHSqQWprtIl-231">
          <mxGeometry width="50" height="50" relative="1" as="geometry">
            <mxPoint x="3980" y="645" as="sourcePoint" />
            <mxPoint x="4030" y="595" as="targetPoint" />
          </mxGeometry>
        </mxCell>
        <mxCell id="jmV42XF77DHSqQWprtIl-238" value="Print" style="rounded=1;whiteSpace=wrap;html=1;" vertex="1" parent="1">
          <mxGeometry x="3540" y="595" width="80" height="40" as="geometry" />
        </mxCell>
        <mxCell id="jmV42XF77DHSqQWprtIl-239" value="" style="endArrow=none;html=1;rounded=0;exitX=0.5;exitY=0;exitDx=0;exitDy=0;entryX=0.5;entryY=1;entryDx=0;entryDy=0;" edge="1" parent="1" source="jmV42XF77DHSqQWprtIl-238">
          <mxGeometry width="50" height="50" relative="1" as="geometry">
            <mxPoint x="3780" y="435" as="sourcePoint" />
            <mxPoint x="3580" y="574" as="targetPoint" />
          </mxGeometry>
        </mxCell>
        <mxCell id="jmV42XF77DHSqQWprtIl-240" value="Options" style="swimlane;fontStyle=0;childLayout=stackLayout;horizontal=1;startSize=30;horizontalStack=0;resizeParent=1;resizeParentMax=0;resizeLast=0;collapsible=1;marginBottom=0;whiteSpace=wrap;html=1;" vertex="1" parent="1">
          <mxGeometry x="3540" y="655" width="80" height="120" as="geometry">
            <mxRectangle x="480" y="450" width="80" height="30" as="alternateBounds" />
          </mxGeometry>
        </mxCell>
        <mxCell id="jmV42XF77DHSqQWprtIl-241" value="Definitions" style="text;strokeColor=none;fillColor=none;align=left;verticalAlign=middle;spacingLeft=4;spacingRight=4;overflow=hidden;points=[[0,0.5],[1,0.5]];portConstraint=eastwest;rotatable=0;whiteSpace=wrap;html=1;" vertex="1" parent="jmV42XF77DHSqQWprtIl-240">
          <mxGeometry y="30" width="80" height="30" as="geometry" />
        </mxCell>
        <mxCell id="jmV42XF77DHSqQWprtIl-242" value="Eng --&amp;gt; Esp" style="text;strokeColor=none;fillColor=none;align=left;verticalAlign=middle;spacingLeft=4;spacingRight=4;overflow=hidden;points=[[0,0.5],[1,0.5]];portConstraint=eastwest;rotatable=0;whiteSpace=wrap;html=1;" vertex="1" parent="jmV42XF77DHSqQWprtIl-240">
          <mxGeometry y="60" width="80" height="30" as="geometry" />
        </mxCell>
        <mxCell id="jmV42XF77DHSqQWprtIl-243" value="Esp --&amp;gt; Eng" style="text;strokeColor=none;fillColor=none;align=left;verticalAlign=middle;spacingLeft=4;spacingRight=4;overflow=hidden;points=[[0,0.5],[1,0.5]];portConstraint=eastwest;rotatable=0;whiteSpace=wrap;html=1;" vertex="1" parent="jmV42XF77DHSqQWprtIl-240">
          <mxGeometry y="90" width="80" height="30" as="geometry" />
        </mxCell>
        <mxCell id="jmV42XF77DHSqQWprtIl-244" value="" style="endArrow=none;html=1;rounded=0;exitX=0.5;exitY=0;exitDx=0;exitDy=0;entryX=0.5;entryY=1;entryDx=0;entryDy=0;" edge="1" parent="1" source="jmV42XF77DHSqQWprtIl-240" target="jmV42XF77DHSqQWprtIl-238">
          <mxGeometry width="50" height="50" relative="1" as="geometry">
            <mxPoint x="4070" y="645" as="sourcePoint" />
            <mxPoint x="4120" y="595" as="targetPoint" />
          </mxGeometry>
        </mxCell>
        <mxCell id="jmV42XF77DHSqQWprtIl-245" value="Print" style="rounded=1;whiteSpace=wrap;html=1;" vertex="1" parent="1">
          <mxGeometry x="3630" y="595" width="80" height="40" as="geometry" />
        </mxCell>
        <mxCell id="jmV42XF77DHSqQWprtIl-246" value="" style="endArrow=none;html=1;rounded=0;exitX=0.5;exitY=0;exitDx=0;exitDy=0;entryX=0.5;entryY=1;entryDx=0;entryDy=0;" edge="1" parent="1" source="jmV42XF77DHSqQWprtIl-245">
          <mxGeometry width="50" height="50" relative="1" as="geometry">
            <mxPoint x="3870" y="435" as="sourcePoint" />
            <mxPoint x="3670" y="574" as="targetPoint" />
          </mxGeometry>
        </mxCell>
        <mxCell id="jmV42XF77DHSqQWprtIl-247" value="Options" style="swimlane;fontStyle=0;childLayout=stackLayout;horizontal=1;startSize=30;horizontalStack=0;resizeParent=1;resizeParentMax=0;resizeLast=0;collapsible=1;marginBottom=0;whiteSpace=wrap;html=1;" vertex="1" parent="1">
          <mxGeometry x="3630" y="655" width="80" height="120" as="geometry">
            <mxRectangle x="480" y="450" width="80" height="30" as="alternateBounds" />
          </mxGeometry>
        </mxCell>
        <mxCell id="jmV42XF77DHSqQWprtIl-248" value="Definitions" style="text;strokeColor=none;fillColor=none;align=left;verticalAlign=middle;spacingLeft=4;spacingRight=4;overflow=hidden;points=[[0,0.5],[1,0.5]];portConstraint=eastwest;rotatable=0;whiteSpace=wrap;html=1;" vertex="1" parent="jmV42XF77DHSqQWprtIl-247">
          <mxGeometry y="30" width="80" height="30" as="geometry" />
        </mxCell>
        <mxCell id="jmV42XF77DHSqQWprtIl-249" value="Eng --&amp;gt; Esp" style="text;strokeColor=none;fillColor=none;align=left;verticalAlign=middle;spacingLeft=4;spacingRight=4;overflow=hidden;points=[[0,0.5],[1,0.5]];portConstraint=eastwest;rotatable=0;whiteSpace=wrap;html=1;" vertex="1" parent="jmV42XF77DHSqQWprtIl-247">
          <mxGeometry y="60" width="80" height="30" as="geometry" />
        </mxCell>
        <mxCell id="jmV42XF77DHSqQWprtIl-250" value="Esp --&amp;gt; Eng" style="text;strokeColor=none;fillColor=none;align=left;verticalAlign=middle;spacingLeft=4;spacingRight=4;overflow=hidden;points=[[0,0.5],[1,0.5]];portConstraint=eastwest;rotatable=0;whiteSpace=wrap;html=1;" vertex="1" parent="jmV42XF77DHSqQWprtIl-247">
          <mxGeometry y="90" width="80" height="30" as="geometry" />
        </mxCell>
        <mxCell id="jmV42XF77DHSqQWprtIl-251" value="" style="endArrow=none;html=1;rounded=0;exitX=0.5;exitY=0;exitDx=0;exitDy=0;entryX=0.5;entryY=1;entryDx=0;entryDy=0;" edge="1" parent="1" source="jmV42XF77DHSqQWprtIl-247" target="jmV42XF77DHSqQWprtIl-245">
          <mxGeometry width="50" height="50" relative="1" as="geometry">
            <mxPoint x="4160" y="645" as="sourcePoint" />
            <mxPoint x="4210" y="595" as="targetPoint" />
          </mxGeometry>
        </mxCell>
        <mxCell id="jmV42XF77DHSqQWprtIl-252" value="Print" style="rounded=1;whiteSpace=wrap;html=1;" vertex="1" parent="1">
          <mxGeometry x="3720" y="595" width="80" height="40" as="geometry" />
        </mxCell>
        <mxCell id="jmV42XF77DHSqQWprtIl-253" value="" style="endArrow=none;html=1;rounded=0;exitX=0.5;exitY=0;exitDx=0;exitDy=0;entryX=0.5;entryY=1;entryDx=0;entryDy=0;" edge="1" parent="1" source="jmV42XF77DHSqQWprtIl-252">
          <mxGeometry width="50" height="50" relative="1" as="geometry">
            <mxPoint x="3960" y="435" as="sourcePoint" />
            <mxPoint x="3760" y="574" as="targetPoint" />
          </mxGeometry>
        </mxCell>
        <mxCell id="jmV42XF77DHSqQWprtIl-254" value="Options" style="swimlane;fontStyle=0;childLayout=stackLayout;horizontal=1;startSize=30;horizontalStack=0;resizeParent=1;resizeParentMax=0;resizeLast=0;collapsible=1;marginBottom=0;whiteSpace=wrap;html=1;" vertex="1" parent="1">
          <mxGeometry x="3720" y="655" width="80" height="120" as="geometry">
            <mxRectangle x="480" y="450" width="80" height="30" as="alternateBounds" />
          </mxGeometry>
        </mxCell>
        <mxCell id="jmV42XF77DHSqQWprtIl-255" value="Definitions" style="text;strokeColor=none;fillColor=none;align=left;verticalAlign=middle;spacingLeft=4;spacingRight=4;overflow=hidden;points=[[0,0.5],[1,0.5]];portConstraint=eastwest;rotatable=0;whiteSpace=wrap;html=1;" vertex="1" parent="jmV42XF77DHSqQWprtIl-254">
          <mxGeometry y="30" width="80" height="30" as="geometry" />
        </mxCell>
        <mxCell id="jmV42XF77DHSqQWprtIl-256" value="Eng --&amp;gt; Esp" style="text;strokeColor=none;fillColor=none;align=left;verticalAlign=middle;spacingLeft=4;spacingRight=4;overflow=hidden;points=[[0,0.5],[1,0.5]];portConstraint=eastwest;rotatable=0;whiteSpace=wrap;html=1;" vertex="1" parent="jmV42XF77DHSqQWprtIl-254">
          <mxGeometry y="60" width="80" height="30" as="geometry" />
        </mxCell>
        <mxCell id="jmV42XF77DHSqQWprtIl-257" value="Esp --&amp;gt; Eng" style="text;strokeColor=none;fillColor=none;align=left;verticalAlign=middle;spacingLeft=4;spacingRight=4;overflow=hidden;points=[[0,0.5],[1,0.5]];portConstraint=eastwest;rotatable=0;whiteSpace=wrap;html=1;" vertex="1" parent="jmV42XF77DHSqQWprtIl-254">
          <mxGeometry y="90" width="80" height="30" as="geometry" />
        </mxCell>
        <mxCell id="jmV42XF77DHSqQWprtIl-258" value="" style="endArrow=none;html=1;rounded=0;exitX=0.5;exitY=0;exitDx=0;exitDy=0;entryX=0.5;entryY=1;entryDx=0;entryDy=0;" edge="1" parent="1" source="jmV42XF77DHSqQWprtIl-254" target="jmV42XF77DHSqQWprtIl-252">
          <mxGeometry width="50" height="50" relative="1" as="geometry">
            <mxPoint x="4250" y="645" as="sourcePoint" />
            <mxPoint x="4300" y="595" as="targetPoint" />
          </mxGeometry>
        </mxCell>
        <mxCell id="jmV42XF77DHSqQWprtIl-259" value="Print" style="rounded=1;whiteSpace=wrap;html=1;" vertex="1" parent="1">
          <mxGeometry x="3810" y="595" width="80" height="40" as="geometry" />
        </mxCell>
        <mxCell id="jmV42XF77DHSqQWprtIl-260" value="" style="endArrow=none;html=1;rounded=0;exitX=0.5;exitY=0;exitDx=0;exitDy=0;entryX=0.5;entryY=1;entryDx=0;entryDy=0;" edge="1" parent="1" source="jmV42XF77DHSqQWprtIl-259">
          <mxGeometry width="50" height="50" relative="1" as="geometry">
            <mxPoint x="4050" y="435" as="sourcePoint" />
            <mxPoint x="3850" y="574" as="targetPoint" />
          </mxGeometry>
        </mxCell>
        <mxCell id="jmV42XF77DHSqQWprtIl-261" value="Options" style="swimlane;fontStyle=0;childLayout=stackLayout;horizontal=1;startSize=30;horizontalStack=0;resizeParent=1;resizeParentMax=0;resizeLast=0;collapsible=1;marginBottom=0;whiteSpace=wrap;html=1;" vertex="1" parent="1">
          <mxGeometry x="3810" y="655" width="80" height="120" as="geometry">
            <mxRectangle x="480" y="450" width="80" height="30" as="alternateBounds" />
          </mxGeometry>
        </mxCell>
        <mxCell id="jmV42XF77DHSqQWprtIl-262" value="Definitions" style="text;strokeColor=none;fillColor=none;align=left;verticalAlign=middle;spacingLeft=4;spacingRight=4;overflow=hidden;points=[[0,0.5],[1,0.5]];portConstraint=eastwest;rotatable=0;whiteSpace=wrap;html=1;" vertex="1" parent="jmV42XF77DHSqQWprtIl-261">
          <mxGeometry y="30" width="80" height="30" as="geometry" />
        </mxCell>
        <mxCell id="jmV42XF77DHSqQWprtIl-263" value="Eng --&amp;gt; Esp" style="text;strokeColor=none;fillColor=none;align=left;verticalAlign=middle;spacingLeft=4;spacingRight=4;overflow=hidden;points=[[0,0.5],[1,0.5]];portConstraint=eastwest;rotatable=0;whiteSpace=wrap;html=1;" vertex="1" parent="jmV42XF77DHSqQWprtIl-261">
          <mxGeometry y="60" width="80" height="30" as="geometry" />
        </mxCell>
        <mxCell id="jmV42XF77DHSqQWprtIl-264" value="Esp --&amp;gt; Eng" style="text;strokeColor=none;fillColor=none;align=left;verticalAlign=middle;spacingLeft=4;spacingRight=4;overflow=hidden;points=[[0,0.5],[1,0.5]];portConstraint=eastwest;rotatable=0;whiteSpace=wrap;html=1;" vertex="1" parent="jmV42XF77DHSqQWprtIl-261">
          <mxGeometry y="90" width="80" height="30" as="geometry" />
        </mxCell>
        <mxCell id="jmV42XF77DHSqQWprtIl-265" value="" style="endArrow=none;html=1;rounded=0;exitX=0.5;exitY=0;exitDx=0;exitDy=0;entryX=0.5;entryY=1;entryDx=0;entryDy=0;" edge="1" parent="1" source="jmV42XF77DHSqQWprtIl-261" target="jmV42XF77DHSqQWprtIl-259">
          <mxGeometry width="50" height="50" relative="1" as="geometry">
            <mxPoint x="4340" y="645" as="sourcePoint" />
            <mxPoint x="4390" y="595" as="targetPoint" />
          </mxGeometry>
        </mxCell>
        <mxCell id="jmV42XF77DHSqQWprtIl-266" value="Print" style="rounded=1;whiteSpace=wrap;html=1;" vertex="1" parent="1">
          <mxGeometry x="3900" y="596" width="80" height="40" as="geometry" />
        </mxCell>
        <mxCell id="jmV42XF77DHSqQWprtIl-267" value="" style="endArrow=none;html=1;rounded=0;exitX=0.5;exitY=0;exitDx=0;exitDy=0;entryX=0.5;entryY=1;entryDx=0;entryDy=0;" edge="1" parent="1" source="jmV42XF77DHSqQWprtIl-266">
          <mxGeometry width="50" height="50" relative="1" as="geometry">
            <mxPoint x="4140" y="436" as="sourcePoint" />
            <mxPoint x="3940" y="575" as="targetPoint" />
          </mxGeometry>
        </mxCell>
        <mxCell id="jmV42XF77DHSqQWprtIl-268" value="Options" style="swimlane;fontStyle=0;childLayout=stackLayout;horizontal=1;startSize=30;horizontalStack=0;resizeParent=1;resizeParentMax=0;resizeLast=0;collapsible=1;marginBottom=0;whiteSpace=wrap;html=1;" vertex="1" parent="1">
          <mxGeometry x="3900" y="656" width="80" height="120" as="geometry">
            <mxRectangle x="480" y="450" width="80" height="30" as="alternateBounds" />
          </mxGeometry>
        </mxCell>
        <mxCell id="jmV42XF77DHSqQWprtIl-269" value="Definitions" style="text;strokeColor=none;fillColor=none;align=left;verticalAlign=middle;spacingLeft=4;spacingRight=4;overflow=hidden;points=[[0,0.5],[1,0.5]];portConstraint=eastwest;rotatable=0;whiteSpace=wrap;html=1;" vertex="1" parent="jmV42XF77DHSqQWprtIl-268">
          <mxGeometry y="30" width="80" height="30" as="geometry" />
        </mxCell>
        <mxCell id="jmV42XF77DHSqQWprtIl-270" value="Eng --&amp;gt; Esp" style="text;strokeColor=none;fillColor=none;align=left;verticalAlign=middle;spacingLeft=4;spacingRight=4;overflow=hidden;points=[[0,0.5],[1,0.5]];portConstraint=eastwest;rotatable=0;whiteSpace=wrap;html=1;" vertex="1" parent="jmV42XF77DHSqQWprtIl-268">
          <mxGeometry y="60" width="80" height="30" as="geometry" />
        </mxCell>
        <mxCell id="jmV42XF77DHSqQWprtIl-271" value="Esp --&amp;gt; Eng" style="text;strokeColor=none;fillColor=none;align=left;verticalAlign=middle;spacingLeft=4;spacingRight=4;overflow=hidden;points=[[0,0.5],[1,0.5]];portConstraint=eastwest;rotatable=0;whiteSpace=wrap;html=1;" vertex="1" parent="jmV42XF77DHSqQWprtIl-268">
          <mxGeometry y="90" width="80" height="30" as="geometry" />
        </mxCell>
        <mxCell id="jmV42XF77DHSqQWprtIl-272" value="" style="endArrow=none;html=1;rounded=0;exitX=0.5;exitY=0;exitDx=0;exitDy=0;entryX=0.5;entryY=1;entryDx=0;entryDy=0;" edge="1" parent="1" source="jmV42XF77DHSqQWprtIl-268" target="jmV42XF77DHSqQWprtIl-266">
          <mxGeometry width="50" height="50" relative="1" as="geometry">
            <mxPoint x="4430" y="646" as="sourcePoint" />
            <mxPoint x="4480" y="596" as="targetPoint" />
          </mxGeometry>
        </mxCell>
        <mxCell id="jmV42XF77DHSqQWprtIl-273" value="Print" style="rounded=1;whiteSpace=wrap;html=1;" vertex="1" parent="1">
          <mxGeometry x="3990" y="595" width="80" height="40" as="geometry" />
        </mxCell>
        <mxCell id="jmV42XF77DHSqQWprtIl-274" value="" style="endArrow=none;html=1;rounded=0;exitX=0.5;exitY=0;exitDx=0;exitDy=0;entryX=0.5;entryY=1;entryDx=0;entryDy=0;" edge="1" parent="1" source="jmV42XF77DHSqQWprtIl-273">
          <mxGeometry width="50" height="50" relative="1" as="geometry">
            <mxPoint x="4230" y="435" as="sourcePoint" />
            <mxPoint x="4030" y="574" as="targetPoint" />
          </mxGeometry>
        </mxCell>
        <mxCell id="jmV42XF77DHSqQWprtIl-275" value="Options" style="swimlane;fontStyle=0;childLayout=stackLayout;horizontal=1;startSize=30;horizontalStack=0;resizeParent=1;resizeParentMax=0;resizeLast=0;collapsible=1;marginBottom=0;whiteSpace=wrap;html=1;" vertex="1" parent="1">
          <mxGeometry x="3990" y="655" width="80" height="120" as="geometry">
            <mxRectangle x="480" y="450" width="80" height="30" as="alternateBounds" />
          </mxGeometry>
        </mxCell>
        <mxCell id="jmV42XF77DHSqQWprtIl-276" value="Definitions" style="text;strokeColor=none;fillColor=none;align=left;verticalAlign=middle;spacingLeft=4;spacingRight=4;overflow=hidden;points=[[0,0.5],[1,0.5]];portConstraint=eastwest;rotatable=0;whiteSpace=wrap;html=1;" vertex="1" parent="jmV42XF77DHSqQWprtIl-275">
          <mxGeometry y="30" width="80" height="30" as="geometry" />
        </mxCell>
        <mxCell id="jmV42XF77DHSqQWprtIl-277" value="Eng --&amp;gt; Esp" style="text;strokeColor=none;fillColor=none;align=left;verticalAlign=middle;spacingLeft=4;spacingRight=4;overflow=hidden;points=[[0,0.5],[1,0.5]];portConstraint=eastwest;rotatable=0;whiteSpace=wrap;html=1;" vertex="1" parent="jmV42XF77DHSqQWprtIl-275">
          <mxGeometry y="60" width="80" height="30" as="geometry" />
        </mxCell>
        <mxCell id="jmV42XF77DHSqQWprtIl-278" value="Esp --&amp;gt; Eng" style="text;strokeColor=none;fillColor=none;align=left;verticalAlign=middle;spacingLeft=4;spacingRight=4;overflow=hidden;points=[[0,0.5],[1,0.5]];portConstraint=eastwest;rotatable=0;whiteSpace=wrap;html=1;" vertex="1" parent="jmV42XF77DHSqQWprtIl-275">
          <mxGeometry y="90" width="80" height="30" as="geometry" />
        </mxCell>
        <mxCell id="jmV42XF77DHSqQWprtIl-279" value="" style="endArrow=none;html=1;rounded=0;exitX=0.5;exitY=0;exitDx=0;exitDy=0;entryX=0.5;entryY=1;entryDx=0;entryDy=0;" edge="1" parent="1" source="jmV42XF77DHSqQWprtIl-275" target="jmV42XF77DHSqQWprtIl-273">
          <mxGeometry width="50" height="50" relative="1" as="geometry">
            <mxPoint x="4520" y="645" as="sourcePoint" />
            <mxPoint x="4570" y="595" as="targetPoint" />
          </mxGeometry>
        </mxCell>
        <mxCell id="jmV42XF77DHSqQWprtIl-280" value="Print" style="rounded=1;whiteSpace=wrap;html=1;" vertex="1" parent="1">
          <mxGeometry x="4080" y="595" width="80" height="40" as="geometry" />
        </mxCell>
        <mxCell id="jmV42XF77DHSqQWprtIl-281" value="" style="endArrow=none;html=1;rounded=0;exitX=0.5;exitY=0;exitDx=0;exitDy=0;entryX=0.5;entryY=1;entryDx=0;entryDy=0;" edge="1" parent="1" source="jmV42XF77DHSqQWprtIl-280">
          <mxGeometry width="50" height="50" relative="1" as="geometry">
            <mxPoint x="4320" y="435" as="sourcePoint" />
            <mxPoint x="4120" y="574" as="targetPoint" />
          </mxGeometry>
        </mxCell>
        <mxCell id="jmV42XF77DHSqQWprtIl-282" value="Options" style="swimlane;fontStyle=0;childLayout=stackLayout;horizontal=1;startSize=30;horizontalStack=0;resizeParent=1;resizeParentMax=0;resizeLast=0;collapsible=1;marginBottom=0;whiteSpace=wrap;html=1;" vertex="1" parent="1">
          <mxGeometry x="4080" y="655" width="80" height="120" as="geometry">
            <mxRectangle x="480" y="450" width="80" height="30" as="alternateBounds" />
          </mxGeometry>
        </mxCell>
        <mxCell id="jmV42XF77DHSqQWprtIl-283" value="Definitions" style="text;strokeColor=none;fillColor=none;align=left;verticalAlign=middle;spacingLeft=4;spacingRight=4;overflow=hidden;points=[[0,0.5],[1,0.5]];portConstraint=eastwest;rotatable=0;whiteSpace=wrap;html=1;" vertex="1" parent="jmV42XF77DHSqQWprtIl-282">
          <mxGeometry y="30" width="80" height="30" as="geometry" />
        </mxCell>
        <mxCell id="jmV42XF77DHSqQWprtIl-284" value="Eng --&amp;gt; Esp" style="text;strokeColor=none;fillColor=none;align=left;verticalAlign=middle;spacingLeft=4;spacingRight=4;overflow=hidden;points=[[0,0.5],[1,0.5]];portConstraint=eastwest;rotatable=0;whiteSpace=wrap;html=1;" vertex="1" parent="jmV42XF77DHSqQWprtIl-282">
          <mxGeometry y="60" width="80" height="30" as="geometry" />
        </mxCell>
        <mxCell id="jmV42XF77DHSqQWprtIl-285" value="Esp --&amp;gt; Eng" style="text;strokeColor=none;fillColor=none;align=left;verticalAlign=middle;spacingLeft=4;spacingRight=4;overflow=hidden;points=[[0,0.5],[1,0.5]];portConstraint=eastwest;rotatable=0;whiteSpace=wrap;html=1;" vertex="1" parent="jmV42XF77DHSqQWprtIl-282">
          <mxGeometry y="90" width="80" height="30" as="geometry" />
        </mxCell>
        <mxCell id="jmV42XF77DHSqQWprtIl-286" value="" style="endArrow=none;html=1;rounded=0;exitX=0.5;exitY=0;exitDx=0;exitDy=0;entryX=0.5;entryY=1;entryDx=0;entryDy=0;" edge="1" parent="1" source="jmV42XF77DHSqQWprtIl-282" target="jmV42XF77DHSqQWprtIl-280">
          <mxGeometry width="50" height="50" relative="1" as="geometry">
            <mxPoint x="4610" y="645" as="sourcePoint" />
            <mxPoint x="4660" y="595" as="targetPoint" />
          </mxGeometry>
        </mxCell>
        <mxCell id="jmV42XF77DHSqQWprtIl-287" value="Print" style="rounded=1;whiteSpace=wrap;html=1;" vertex="1" parent="1">
          <mxGeometry x="4170" y="595" width="80" height="40" as="geometry" />
        </mxCell>
        <mxCell id="jmV42XF77DHSqQWprtIl-288" value="" style="endArrow=none;html=1;rounded=0;exitX=0.5;exitY=0;exitDx=0;exitDy=0;entryX=0.5;entryY=1;entryDx=0;entryDy=0;" edge="1" parent="1" source="jmV42XF77DHSqQWprtIl-287">
          <mxGeometry width="50" height="50" relative="1" as="geometry">
            <mxPoint x="4410" y="435" as="sourcePoint" />
            <mxPoint x="4210" y="574" as="targetPoint" />
          </mxGeometry>
        </mxCell>
        <mxCell id="jmV42XF77DHSqQWprtIl-289" value="Options" style="swimlane;fontStyle=0;childLayout=stackLayout;horizontal=1;startSize=30;horizontalStack=0;resizeParent=1;resizeParentMax=0;resizeLast=0;collapsible=1;marginBottom=0;whiteSpace=wrap;html=1;" vertex="1" parent="1">
          <mxGeometry x="4170" y="655" width="80" height="120" as="geometry">
            <mxRectangle x="480" y="450" width="80" height="30" as="alternateBounds" />
          </mxGeometry>
        </mxCell>
        <mxCell id="jmV42XF77DHSqQWprtIl-290" value="Definitions" style="text;strokeColor=none;fillColor=none;align=left;verticalAlign=middle;spacingLeft=4;spacingRight=4;overflow=hidden;points=[[0,0.5],[1,0.5]];portConstraint=eastwest;rotatable=0;whiteSpace=wrap;html=1;" vertex="1" parent="jmV42XF77DHSqQWprtIl-289">
          <mxGeometry y="30" width="80" height="30" as="geometry" />
        </mxCell>
        <mxCell id="jmV42XF77DHSqQWprtIl-291" value="Eng --&amp;gt; Esp" style="text;strokeColor=none;fillColor=none;align=left;verticalAlign=middle;spacingLeft=4;spacingRight=4;overflow=hidden;points=[[0,0.5],[1,0.5]];portConstraint=eastwest;rotatable=0;whiteSpace=wrap;html=1;" vertex="1" parent="jmV42XF77DHSqQWprtIl-289">
          <mxGeometry y="60" width="80" height="30" as="geometry" />
        </mxCell>
        <mxCell id="jmV42XF77DHSqQWprtIl-292" value="Esp --&amp;gt; Eng" style="text;strokeColor=none;fillColor=none;align=left;verticalAlign=middle;spacingLeft=4;spacingRight=4;overflow=hidden;points=[[0,0.5],[1,0.5]];portConstraint=eastwest;rotatable=0;whiteSpace=wrap;html=1;" vertex="1" parent="jmV42XF77DHSqQWprtIl-289">
          <mxGeometry y="90" width="80" height="30" as="geometry" />
        </mxCell>
        <mxCell id="jmV42XF77DHSqQWprtIl-293" value="" style="endArrow=none;html=1;rounded=0;exitX=0.5;exitY=0;exitDx=0;exitDy=0;entryX=0.5;entryY=1;entryDx=0;entryDy=0;" edge="1" parent="1" source="jmV42XF77DHSqQWprtIl-289" target="jmV42XF77DHSqQWprtIl-287">
          <mxGeometry width="50" height="50" relative="1" as="geometry">
            <mxPoint x="4700" y="645" as="sourcePoint" />
            <mxPoint x="4750" y="595" as="targetPoint" />
          </mxGeometry>
        </mxCell>
        <mxCell id="jmV42XF77DHSqQWprtIl-294" value="Print" style="rounded=1;whiteSpace=wrap;html=1;" vertex="1" parent="1">
          <mxGeometry x="4260" y="595" width="80" height="40" as="geometry" />
        </mxCell>
        <mxCell id="jmV42XF77DHSqQWprtIl-295" value="" style="endArrow=none;html=1;rounded=0;exitX=0.5;exitY=0;exitDx=0;exitDy=0;entryX=0.5;entryY=1;entryDx=0;entryDy=0;" edge="1" parent="1" source="jmV42XF77DHSqQWprtIl-294">
          <mxGeometry width="50" height="50" relative="1" as="geometry">
            <mxPoint x="4500" y="435" as="sourcePoint" />
            <mxPoint x="4300" y="574" as="targetPoint" />
          </mxGeometry>
        </mxCell>
        <mxCell id="jmV42XF77DHSqQWprtIl-296" value="Options" style="swimlane;fontStyle=0;childLayout=stackLayout;horizontal=1;startSize=30;horizontalStack=0;resizeParent=1;resizeParentMax=0;resizeLast=0;collapsible=1;marginBottom=0;whiteSpace=wrap;html=1;" vertex="1" parent="1">
          <mxGeometry x="4260" y="655" width="80" height="120" as="geometry">
            <mxRectangle x="480" y="450" width="80" height="30" as="alternateBounds" />
          </mxGeometry>
        </mxCell>
        <mxCell id="jmV42XF77DHSqQWprtIl-297" value="Definitions" style="text;strokeColor=none;fillColor=none;align=left;verticalAlign=middle;spacingLeft=4;spacingRight=4;overflow=hidden;points=[[0,0.5],[1,0.5]];portConstraint=eastwest;rotatable=0;whiteSpace=wrap;html=1;" vertex="1" parent="jmV42XF77DHSqQWprtIl-296">
          <mxGeometry y="30" width="80" height="30" as="geometry" />
        </mxCell>
        <mxCell id="jmV42XF77DHSqQWprtIl-298" value="Eng --&amp;gt; Esp" style="text;strokeColor=none;fillColor=none;align=left;verticalAlign=middle;spacingLeft=4;spacingRight=4;overflow=hidden;points=[[0,0.5],[1,0.5]];portConstraint=eastwest;rotatable=0;whiteSpace=wrap;html=1;" vertex="1" parent="jmV42XF77DHSqQWprtIl-296">
          <mxGeometry y="60" width="80" height="30" as="geometry" />
        </mxCell>
        <mxCell id="jmV42XF77DHSqQWprtIl-299" value="Esp --&amp;gt; Eng" style="text;strokeColor=none;fillColor=none;align=left;verticalAlign=middle;spacingLeft=4;spacingRight=4;overflow=hidden;points=[[0,0.5],[1,0.5]];portConstraint=eastwest;rotatable=0;whiteSpace=wrap;html=1;" vertex="1" parent="jmV42XF77DHSqQWprtIl-296">
          <mxGeometry y="90" width="80" height="30" as="geometry" />
        </mxCell>
        <mxCell id="jmV42XF77DHSqQWprtIl-300" value="" style="endArrow=none;html=1;rounded=0;exitX=0.5;exitY=0;exitDx=0;exitDy=0;entryX=0.5;entryY=1;entryDx=0;entryDy=0;" edge="1" parent="1" source="jmV42XF77DHSqQWprtIl-296" target="jmV42XF77DHSqQWprtIl-294">
          <mxGeometry width="50" height="50" relative="1" as="geometry">
            <mxPoint x="4790" y="645" as="sourcePoint" />
            <mxPoint x="4840" y="595" as="targetPoint" />
          </mxGeometry>
        </mxCell>
        <mxCell id="jmV42XF77DHSqQWprtIl-301" value="Print" style="rounded=1;whiteSpace=wrap;html=1;" vertex="1" parent="1">
          <mxGeometry x="4350" y="595" width="80" height="40" as="geometry" />
        </mxCell>
        <mxCell id="jmV42XF77DHSqQWprtIl-302" value="" style="endArrow=none;html=1;rounded=0;exitX=0.5;exitY=0;exitDx=0;exitDy=0;entryX=0.5;entryY=1;entryDx=0;entryDy=0;" edge="1" parent="1" source="jmV42XF77DHSqQWprtIl-301">
          <mxGeometry width="50" height="50" relative="1" as="geometry">
            <mxPoint x="4590" y="435" as="sourcePoint" />
            <mxPoint x="4390" y="574" as="targetPoint" />
          </mxGeometry>
        </mxCell>
        <mxCell id="jmV42XF77DHSqQWprtIl-303" value="Options" style="swimlane;fontStyle=0;childLayout=stackLayout;horizontal=1;startSize=30;horizontalStack=0;resizeParent=1;resizeParentMax=0;resizeLast=0;collapsible=1;marginBottom=0;whiteSpace=wrap;html=1;" vertex="1" parent="1">
          <mxGeometry x="4350" y="655" width="80" height="120" as="geometry">
            <mxRectangle x="480" y="450" width="80" height="30" as="alternateBounds" />
          </mxGeometry>
        </mxCell>
        <mxCell id="jmV42XF77DHSqQWprtIl-304" value="Definitions" style="text;strokeColor=none;fillColor=none;align=left;verticalAlign=middle;spacingLeft=4;spacingRight=4;overflow=hidden;points=[[0,0.5],[1,0.5]];portConstraint=eastwest;rotatable=0;whiteSpace=wrap;html=1;" vertex="1" parent="jmV42XF77DHSqQWprtIl-303">
          <mxGeometry y="30" width="80" height="30" as="geometry" />
        </mxCell>
        <mxCell id="jmV42XF77DHSqQWprtIl-305" value="Eng --&amp;gt; Esp" style="text;strokeColor=none;fillColor=none;align=left;verticalAlign=middle;spacingLeft=4;spacingRight=4;overflow=hidden;points=[[0,0.5],[1,0.5]];portConstraint=eastwest;rotatable=0;whiteSpace=wrap;html=1;" vertex="1" parent="jmV42XF77DHSqQWprtIl-303">
          <mxGeometry y="60" width="80" height="30" as="geometry" />
        </mxCell>
        <mxCell id="jmV42XF77DHSqQWprtIl-306" value="Esp --&amp;gt; Eng" style="text;strokeColor=none;fillColor=none;align=left;verticalAlign=middle;spacingLeft=4;spacingRight=4;overflow=hidden;points=[[0,0.5],[1,0.5]];portConstraint=eastwest;rotatable=0;whiteSpace=wrap;html=1;" vertex="1" parent="jmV42XF77DHSqQWprtIl-303">
          <mxGeometry y="90" width="80" height="30" as="geometry" />
        </mxCell>
        <mxCell id="jmV42XF77DHSqQWprtIl-307" value="" style="endArrow=none;html=1;rounded=0;exitX=0.5;exitY=0;exitDx=0;exitDy=0;entryX=0.5;entryY=1;entryDx=0;entryDy=0;" edge="1" parent="1" source="jmV42XF77DHSqQWprtIl-303" target="jmV42XF77DHSqQWprtIl-301">
          <mxGeometry width="50" height="50" relative="1" as="geometry">
            <mxPoint x="4880" y="645" as="sourcePoint" />
            <mxPoint x="4930" y="595" as="targetPoint" />
          </mxGeometry>
        </mxCell>
        <mxCell id="jmV42XF77DHSqQWprtIl-308" value="Print" style="rounded=1;whiteSpace=wrap;html=1;" vertex="1" parent="1">
          <mxGeometry x="4440" y="595" width="80" height="40" as="geometry" />
        </mxCell>
        <mxCell id="jmV42XF77DHSqQWprtIl-309" value="" style="endArrow=none;html=1;rounded=0;exitX=0.5;exitY=0;exitDx=0;exitDy=0;entryX=0.5;entryY=1;entryDx=0;entryDy=0;" edge="1" parent="1" source="jmV42XF77DHSqQWprtIl-308">
          <mxGeometry width="50" height="50" relative="1" as="geometry">
            <mxPoint x="4680" y="435" as="sourcePoint" />
            <mxPoint x="4480" y="574" as="targetPoint" />
          </mxGeometry>
        </mxCell>
        <mxCell id="jmV42XF77DHSqQWprtIl-310" value="Options" style="swimlane;fontStyle=0;childLayout=stackLayout;horizontal=1;startSize=30;horizontalStack=0;resizeParent=1;resizeParentMax=0;resizeLast=0;collapsible=1;marginBottom=0;whiteSpace=wrap;html=1;" vertex="1" parent="1">
          <mxGeometry x="4440" y="655" width="80" height="120" as="geometry">
            <mxRectangle x="480" y="450" width="80" height="30" as="alternateBounds" />
          </mxGeometry>
        </mxCell>
        <mxCell id="jmV42XF77DHSqQWprtIl-311" value="Definitions" style="text;strokeColor=none;fillColor=none;align=left;verticalAlign=middle;spacingLeft=4;spacingRight=4;overflow=hidden;points=[[0,0.5],[1,0.5]];portConstraint=eastwest;rotatable=0;whiteSpace=wrap;html=1;" vertex="1" parent="jmV42XF77DHSqQWprtIl-310">
          <mxGeometry y="30" width="80" height="30" as="geometry" />
        </mxCell>
        <mxCell id="jmV42XF77DHSqQWprtIl-312" value="Eng --&amp;gt; Esp" style="text;strokeColor=none;fillColor=none;align=left;verticalAlign=middle;spacingLeft=4;spacingRight=4;overflow=hidden;points=[[0,0.5],[1,0.5]];portConstraint=eastwest;rotatable=0;whiteSpace=wrap;html=1;" vertex="1" parent="jmV42XF77DHSqQWprtIl-310">
          <mxGeometry y="60" width="80" height="30" as="geometry" />
        </mxCell>
        <mxCell id="jmV42XF77DHSqQWprtIl-313" value="Esp --&amp;gt; Eng" style="text;strokeColor=none;fillColor=none;align=left;verticalAlign=middle;spacingLeft=4;spacingRight=4;overflow=hidden;points=[[0,0.5],[1,0.5]];portConstraint=eastwest;rotatable=0;whiteSpace=wrap;html=1;" vertex="1" parent="jmV42XF77DHSqQWprtIl-310">
          <mxGeometry y="90" width="80" height="30" as="geometry" />
        </mxCell>
        <mxCell id="jmV42XF77DHSqQWprtIl-314" value="" style="endArrow=none;html=1;rounded=0;exitX=0.5;exitY=0;exitDx=0;exitDy=0;entryX=0.5;entryY=1;entryDx=0;entryDy=0;" edge="1" parent="1" source="jmV42XF77DHSqQWprtIl-310" target="jmV42XF77DHSqQWprtIl-308">
          <mxGeometry width="50" height="50" relative="1" as="geometry">
            <mxPoint x="4970" y="645" as="sourcePoint" />
            <mxPoint x="5020" y="595" as="targetPoint" />
          </mxGeometry>
        </mxCell>
      </root>
    </mxGraphModel>
  </diagram>
</mxfile>
